{"glyphs":{"0":{"ha":947,"x_min":63,"x_max":885,"o":"m 474 -19 q 256 42 349 -19 q 113 218 163 104 q 63 486 63 332 q 113 754 63 640 q 256 930 163 868 q 474 992 349 992 q 692 930 599 992 q 835 754 785 868 q 885 486 885 640 q 835 218 885 332 q 692 42 785 104 q 474 -19 599 -19 m 474 153 q 640 243 579 153 q 701 486 701 333 q 640 729 701 639 q 474 819 579 819 q 307 729 368 819 q 246 486 246 639 q 307 243 246 333 q 474 153 368 153 z "},"1":{"ha":547,"x_min":64,"x_max":451,"o":"m 268 743 q 182 692 229 706 q 64 678 135 678 l 64 850 q 197 880 146 850 q 279 972 247 910 l 451 972 l 451 0 l 268 0 l 268 743 z "},"2":{"ha":815,"x_min":65,"x_max":728,"o":"m 349 169 l 728 169 l 728 0 l 67 0 l 67 131 l 400 432 q 515 561 479 503 q 550 678 550 619 q 510 784 550 743 q 407 825 471 825 q 293 777 336 825 q 249 624 250 729 l 65 650 q 156 899 67 807 q 407 992 244 992 q 574 952 501 992 q 688 842 647 913 q 728 678 728 771 q 676 498 728 585 q 513 313 625 411 l 349 169 z "},"3":{"ha":836,"x_min":69,"x_max":772,"o":"m 507 606 q 703 503 633 585 q 772 310 772 421 q 729 138 772 213 q 607 22 686 63 q 424 -19 528 -19 q 177 53 263 -19 q 69 242 92 126 l 238 313 q 299 187 249 229 q 424 144 349 144 q 543 187 497 144 q 589 299 589 229 q 369 469 589 469 q 296 465 336 469 l 296 601 l 496 811 l 107 811 l 108 972 l 710 972 l 710 826 l 507 606 z "},"4":{"ha":853,"x_min":57,"x_max":813,"o":"m 531 203 l 57 203 l 57 372 l 531 972 l 714 972 l 714 372 l 813 372 l 813 203 l 714 203 l 714 0 l 531 0 l 531 203 m 531 372 l 531 714 l 257 372 l 531 372 z "},"5":{"ha":856,"x_min":68,"x_max":796,"o":"m 458 669 q 707 578 618 669 q 796 333 796 486 q 749 154 796 235 q 618 27 703 74 q 424 -19 533 -19 q 178 52 267 -19 q 68 239 90 124 l 221 317 q 292 185 238 225 q 425 144 346 144 q 560 195 508 144 q 613 333 613 246 q 561 465 613 417 q 425 514 510 514 q 314 486 365 514 q 229 404 263 458 l 86 442 l 132 972 l 735 972 l 735 800 l 274 800 l 250 586 q 338 649 282 628 q 458 669 394 669 z "},"6":{"ha":860,"x_min":63,"x_max":803,"o":"m 471 636 q 642 594 567 636 q 760 479 718 553 q 803 313 803 406 q 758 139 803 214 q 631 22 713 64 q 442 -19 549 -19 q 241 33 326 -19 q 109 188 156 86 q 63 429 63 289 q 108 717 63 590 q 244 918 153 844 q 467 992 335 992 q 673 930 596 992 q 774 768 750 868 l 615 711 q 563 802 601 771 q 467 833 525 833 q 312 746 372 833 q 240 525 251 658 q 335 608 274 581 q 471 636 397 636 m 439 136 q 572 183 521 136 q 622 308 622 231 q 572 433 622 386 q 439 481 521 481 q 305 433 356 481 q 254 308 254 386 q 305 183 254 231 q 439 136 356 136 z "},"7":{"ha":757,"x_min":50,"x_max":706,"o":"m 706 972 l 706 811 l 393 0 l 182 0 l 506 803 l 50 803 l 50 972 l 706 972 z "},"8":{"ha":825,"x_min":64,"x_max":761,"o":"m 413 -19 q 228 17 307 -19 q 106 120 149 54 q 64 272 64 186 q 108 426 64 360 q 231 521 153 492 q 129 602 165 546 q 93 733 93 658 q 133 866 93 807 q 247 958 174 925 q 413 992 319 992 q 578 958 506 992 q 692 866 651 925 q 732 733 732 807 q 696 602 732 658 q 594 521 660 546 q 717 426 672 492 q 761 272 761 360 q 719 120 761 186 q 597 17 676 54 q 413 -19 518 -19 m 413 589 q 515 625 472 589 q 557 724 557 661 q 515 819 557 785 q 413 853 472 853 q 310 819 353 853 q 268 724 268 785 q 310 625 268 661 q 413 589 353 589 m 413 131 q 533 174 486 131 q 581 285 581 217 q 533 396 581 353 q 413 439 486 439 q 292 396 339 439 q 244 285 244 353 q 292 174 244 217 q 413 131 339 131 z "},"9":{"ha":860,"x_min":57,"x_max":797,"o":"m 418 992 q 619 939 533 992 q 751 785 704 886 q 797 543 797 683 q 752 255 797 382 q 616 54 707 128 q 393 -19 525 -19 q 187 42 264 -19 q 86 204 110 104 l 244 261 q 297 170 258 201 q 393 139 335 139 q 548 226 488 139 q 619 447 608 314 q 524 364 586 392 q 389 336 463 336 q 217 378 293 336 q 99 493 142 419 q 57 660 57 567 q 102 833 57 758 q 229 950 147 908 q 418 992 311 992 m 421 492 q 555 539 504 492 q 606 664 606 586 q 555 789 606 742 q 421 836 504 836 q 288 789 339 836 q 238 664 238 742 q 288 539 238 586 q 421 492 339 492 z "},"\r":{"ha":401,"x_min":0,"x_max":0,"o":""}," ":{"ha":383,"x_min":0,"x_max":0,"o":""},"A":{"ha":975,"x_min":7,"x_max":968,"o":"m 678 246 l 297 246 l 203 0 l 7 0 l 400 972 l 575 972 l 968 0 l 772 0 l 678 246 m 613 418 l 524 651 q 488 757 504 701 q 451 651 471 701 l 363 418 l 613 418 z "},"Á":{"ha":975,"x_min":7,"x_max":968,"o":"m 678 246 l 297 246 l 203 0 l 7 0 l 400 972 l 575 972 l 968 0 l 772 0 l 678 246 m 613 418 l 524 651 q 488 757 504 701 q 451 651 471 701 l 363 418 l 613 418 m 499 1267 l 711 1267 l 539 1047 l 404 1047 l 499 1267 z "},"Ă":{"ha":975,"x_min":7,"x_max":968,"o":"m 678 246 l 297 246 l 203 0 l 7 0 l 400 972 l 575 972 l 968 0 l 772 0 l 678 246 m 613 418 l 524 651 q 488 757 504 701 q 451 651 471 701 l 363 418 l 613 418 m 488 1067 q 373 1111 417 1067 q 329 1224 329 1156 l 435 1224 q 449 1181 435 1197 q 488 1164 463 1164 q 526 1181 513 1164 q 540 1224 540 1197 l 646 1224 q 602 1111 646 1156 q 488 1067 558 1067 z "},"Â":{"ha":975,"x_min":7,"x_max":968,"o":"m 678 246 l 297 246 l 203 0 l 7 0 l 400 972 l 575 972 l 968 0 l 772 0 l 678 246 m 613 418 l 524 651 q 488 757 504 701 q 451 651 471 701 l 363 418 l 613 418 m 425 1265 l 550 1265 l 707 1047 l 569 1047 l 488 1131 l 406 1047 l 268 1047 l 425 1265 z "},"Ä":{"ha":975,"x_min":7,"x_max":968,"o":"m 678 246 l 297 246 l 203 0 l 7 0 l 400 972 l 575 972 l 968 0 l 772 0 l 678 246 m 613 418 l 524 651 q 488 757 504 701 q 451 651 471 701 l 363 418 l 613 418 z "},"À":{"ha":975,"x_min":7,"x_max":968,"o":"m 678 246 l 297 246 l 203 0 l 7 0 l 400 972 l 575 972 l 968 0 l 772 0 l 678 246 m 613 418 l 524 651 q 488 757 504 701 q 451 651 471 701 l 363 418 l 613 418 m 264 1267 l 476 1267 l 571 1047 l 436 1047 l 264 1267 z "},"Ā":{"ha":975,"x_min":7,"x_max":968,"o":"m 678 246 l 297 246 l 203 0 l 7 0 l 400 972 l 575 972 l 968 0 l 772 0 l 678 246 m 613 418 l 524 651 q 488 757 504 701 q 451 651 471 701 l 363 418 l 613 418 m 315 1231 l 660 1231 l 660 1100 l 315 1100 l 315 1231 z "},"Ą":{"ha":975,"x_min":7,"x_max":971,"o":"m 971 -265 q 888 -275 935 -275 q 777 -240 825 -275 q 729 -144 729 -206 q 811 0 729 -60 l 772 0 l 678 246 l 297 246 l 203 0 l 7 0 l 400 972 l 575 972 l 968 0 q 896 -53 924 -25 q 868 -108 868 -81 q 884 -147 868 -133 q 925 -161 900 -161 q 956 -158 938 -161 l 971 -265 m 613 418 l 524 651 q 488 757 504 701 q 451 651 471 701 l 363 418 l 613 418 z "},"Å":{"ha":975,"x_min":7,"x_max":968,"o":"m 678 246 l 297 246 l 203 0 l 7 0 l 400 972 l 575 972 l 968 0 l 772 0 l 678 246 m 613 418 l 524 651 q 488 757 504 701 q 451 651 471 701 l 363 418 l 613 418 m 489 1033 q 394 1072 433 1033 q 356 1165 356 1110 q 394 1259 356 1221 q 489 1297 433 1297 q 583 1259 544 1297 q 622 1165 622 1221 q 583 1072 622 1110 q 489 1033 544 1033 m 489 1118 q 522 1131 510 1118 q 535 1165 535 1143 q 522 1200 535 1188 q 489 1213 510 1213 q 456 1200 468 1213 q 443 1165 443 1188 q 456 1131 443 1143 q 489 1118 468 1118 z "},"Ã":{"ha":975,"x_min":7,"x_max":968,"o":"m 678 246 l 297 246 l 203 0 l 7 0 l 400 972 l 575 972 l 968 0 l 772 0 l 678 246 m 613 418 l 524 651 q 488 757 504 701 q 451 651 471 701 l 363 418 l 613 418 m 597 1047 q 517 1063 547 1047 q 451 1106 486 1078 q 417 1131 432 1122 q 386 1139 403 1139 q 363 1131 372 1139 q 354 1108 354 1122 q 364 1072 354 1092 l 261 1051 q 247 1085 253 1064 q 242 1125 242 1106 q 283 1218 242 1185 q 378 1251 325 1251 q 458 1236 428 1251 q 524 1193 489 1221 q 558 1168 543 1176 q 589 1160 572 1160 q 612 1168 603 1160 q 621 1190 621 1176 q 611 1226 621 1207 l 714 1247 q 728 1214 722 1235 q 733 1174 733 1193 q 692 1081 733 1114 q 597 1047 650 1047 z "},"Æ":{"ha":1368,"x_min":7,"x_max":1290,"o":"m 311 254 l 199 0 l 7 0 l 451 972 l 1286 972 l 1286 808 l 799 808 l 799 585 l 1247 585 l 1247 421 l 799 421 l 799 164 l 1290 164 l 1290 0 l 615 0 l 615 254 l 311 254 m 615 418 l 615 808 l 557 808 l 383 418 l 615 418 z "},"Ǽ":{"ha":1368,"x_min":7,"x_max":1290,"o":"m 311 254 l 199 0 l 7 0 l 451 972 l 1286 972 l 1286 808 l 799 808 l 799 585 l 1247 585 l 1247 421 l 799 421 l 799 164 l 1290 164 l 1290 0 l 615 0 l 615 254 l 311 254 m 615 418 l 615 808 l 557 808 l 383 418 l 615 418 m 844 1267 l 1057 1267 l 885 1047 l 750 1047 l 844 1267 z "},"B":{"ha":917,"x_min":101,"x_max":853,"o":"m 101 972 l 501 972 q 731 905 649 972 q 813 718 813 838 q 775 601 813 654 q 674 525 738 547 q 805 443 757 501 q 853 292 853 385 q 760 78 853 157 q 508 0 667 0 l 101 0 l 101 972 m 496 594 q 597 622 563 594 q 632 700 632 649 q 597 778 632 751 q 496 806 563 806 l 285 806 l 285 594 l 496 594 m 497 172 q 626 206 582 172 q 669 303 669 239 q 626 400 669 367 q 497 433 582 433 l 285 433 l 285 172 l 497 172 z "},"C":{"ha":1067,"x_min":64,"x_max":1000,"o":"m 561 -19 q 306 44 419 -19 q 128 222 193 107 q 64 486 64 338 q 130 749 64 635 q 311 928 196 864 q 568 992 426 992 q 831 922 717 992 q 994 738 944 851 l 846 631 q 732 772 801 724 q 563 819 663 819 q 405 778 476 819 q 292 662 333 738 q 250 486 250 586 q 292 313 250 389 q 405 194 333 236 q 563 153 476 153 q 857 344 756 153 l 1000 242 q 878 92 939 149 q 741 8 817 36 q 561 -19 665 -19 z "},"Ć":{"ha":1067,"x_min":64,"x_max":1000,"o":"m 561 -19 q 306 44 419 -19 q 128 222 193 107 q 64 486 64 338 q 130 749 64 635 q 311 928 196 864 q 568 992 426 992 q 831 922 717 992 q 994 738 944 851 l 846 631 q 732 772 801 724 q 563 819 663 819 q 405 778 476 819 q 292 662 333 738 q 250 486 250 586 q 292 313 250 389 q 405 194 333 236 q 563 153 476 153 q 857 344 756 153 l 1000 242 q 878 92 939 149 q 741 8 817 36 q 561 -19 665 -19 m 571 1267 l 783 1267 l 611 1047 l 476 1047 l 571 1267 z "},"Č":{"ha":1067,"x_min":64,"x_max":1000,"o":"m 561 -19 q 306 44 419 -19 q 128 222 193 107 q 64 486 64 338 q 130 749 64 635 q 311 928 196 864 q 568 992 426 992 q 831 922 717 992 q 994 738 944 851 l 846 631 q 732 772 801 724 q 563 819 663 819 q 405 778 476 819 q 292 662 333 738 q 250 486 250 586 q 292 313 250 389 q 405 194 333 236 q 563 153 476 153 q 857 344 756 153 l 1000 242 q 878 92 939 149 q 741 8 817 36 q 561 -19 665 -19 m 340 1265 l 478 1265 l 560 1182 l 642 1265 l 779 1265 l 622 1047 l 497 1047 l 340 1265 z "},"Ç":{"ha":1067,"x_min":64,"x_max":1000,"o":"m 560 -19 l 528 -74 q 583 -61 551 -61 q 662 -92 632 -61 q 692 -169 692 -122 q 653 -253 692 -222 q 560 -283 615 -283 q 473 -261 507 -283 q 429 -199 439 -239 l 521 -175 q 560 -206 526 -206 q 585 -197 575 -206 q 594 -171 594 -187 q 584 -141 594 -151 q 556 -131 574 -131 q 522 -137 536 -131 q 493 -156 508 -143 l 442 -110 l 475 -12 q 261 72 354 6 q 116 246 168 139 q 64 486 64 353 q 130 749 64 635 q 311 928 196 864 q 568 992 426 992 q 831 922 717 992 q 994 738 944 851 l 846 631 q 732 772 801 724 q 563 819 663 819 q 405 778 476 819 q 292 662 333 738 q 250 486 250 586 q 292 313 250 389 q 405 194 333 236 q 563 153 476 153 q 857 344 756 153 l 1000 242 q 878 92 939 149 q 741 8 817 36 q 561 -19 665 -19 l 560 -19 z "},"Ĉ":{"ha":1067,"x_min":64,"x_max":1000,"o":"m 561 -19 q 306 44 419 -19 q 128 222 193 107 q 64 486 64 338 q 130 749 64 635 q 311 928 196 864 q 568 992 426 992 q 831 922 717 992 q 994 738 944 851 l 846 631 q 732 772 801 724 q 563 819 663 819 q 405 778 476 819 q 292 662 333 738 q 250 486 250 586 q 292 313 250 389 q 405 194 333 236 q 563 153 476 153 q 857 344 756 153 l 1000 242 q 878 92 939 149 q 741 8 817 36 q 561 -19 665 -19 m 497 1265 l 622 1265 l 779 1047 l 642 1047 l 560 1131 l 478 1047 l 340 1047 l 497 1265 z "},"Ċ":{"ha":1067,"x_min":64,"x_max":1000,"o":"m 561 -19 q 306 44 419 -19 q 128 222 193 107 q 64 486 64 338 q 130 749 64 635 q 311 928 196 864 q 568 992 426 992 q 831 922 717 992 q 994 738 944 851 l 846 631 q 732 772 801 724 q 563 819 663 819 q 405 778 476 819 q 292 662 333 738 q 250 486 250 586 q 292 313 250 389 q 405 194 333 236 q 563 153 476 153 q 857 344 756 153 l 1000 242 q 878 92 939 149 q 741 8 817 36 q 561 -19 665 -19 z "},"D":{"ha":988,"x_min":101,"x_max":924,"o":"m 394 972 q 669 918 550 972 q 856 754 789 864 q 924 486 924 644 q 856 218 924 328 q 669 54 789 108 q 394 0 550 0 l 101 0 l 101 972 l 394 972 m 407 172 q 649 252 560 172 q 738 486 738 332 q 649 720 738 640 q 407 800 560 800 l 285 800 l 285 172 l 407 172 z "},"Ð":{"ha":1040,"x_min":46,"x_max":976,"o":"m 154 563 l 154 972 l 447 972 q 722 918 603 972 q 909 754 842 864 q 976 486 976 644 q 909 218 976 328 q 722 54 842 108 q 447 0 603 0 l 154 0 l 154 410 l 46 410 l 46 563 l 154 563 m 460 169 q 701 251 613 169 q 790 486 790 332 q 701 722 790 640 q 460 803 613 803 l 338 803 l 338 563 l 553 563 l 553 410 l 338 410 l 338 169 l 460 169 z "},"Ď":{"ha":988,"x_min":101,"x_max":924,"o":"m 394 972 q 669 918 550 972 q 856 754 789 864 q 924 486 924 644 q 856 218 924 328 q 669 54 789 108 q 394 0 550 0 l 101 0 l 101 972 l 394 972 m 407 172 q 649 252 560 172 q 738 486 738 332 q 649 720 738 640 q 407 800 560 800 l 285 800 l 285 172 l 407 172 m 150 1265 l 288 1265 l 369 1182 l 451 1265 l 589 1265 l 432 1047 l 307 1047 l 150 1265 z "},"Đ":{"ha":1040,"x_min":46,"x_max":976,"o":"m 154 563 l 154 972 l 447 972 q 722 918 603 972 q 909 754 842 864 q 976 486 976 644 q 909 218 976 328 q 722 54 842 108 q 447 0 603 0 l 154 0 l 154 410 l 46 410 l 46 563 l 154 563 m 460 169 q 701 251 613 169 q 790 486 790 332 q 701 722 790 640 q 460 803 613 803 l 338 803 l 338 563 l 553 563 l 553 410 l 338 410 l 338 169 l 460 169 z "},"E":{"ha":854,"x_min":101,"x_max":776,"o":"m 101 972 l 772 972 l 772 806 l 285 806 l 285 586 l 733 586 l 733 419 l 285 419 l 285 167 l 776 167 l 776 0 l 101 0 l 101 972 z "},"É":{"ha":854,"x_min":101,"x_max":776,"o":"m 101 972 l 772 972 l 772 806 l 285 806 l 285 586 l 733 586 l 733 419 l 285 419 l 285 167 l 776 167 l 776 0 l 101 0 l 101 972 m 460 1267 l 672 1267 l 500 1047 l 365 1047 l 460 1267 z "},"Ĕ":{"ha":854,"x_min":101,"x_max":776,"o":"m 101 972 l 772 972 l 772 806 l 285 806 l 285 586 l 733 586 l 733 419 l 285 419 l 285 167 l 776 167 l 776 0 l 101 0 l 101 972 m 449 1067 q 334 1111 378 1067 q 290 1224 290 1156 l 396 1224 q 410 1181 396 1197 q 449 1164 424 1164 q 488 1181 474 1164 q 501 1224 501 1197 l 607 1224 q 563 1111 607 1156 q 449 1067 519 1067 z "},"Ě":{"ha":854,"x_min":101,"x_max":776,"o":"m 101 972 l 772 972 l 772 806 l 285 806 l 285 586 l 733 586 l 733 419 l 285 419 l 285 167 l 776 167 l 776 0 l 101 0 l 101 972 m 229 1265 l 367 1265 l 449 1182 l 531 1265 l 668 1265 l 511 1047 l 386 1047 l 229 1265 z "},"Ê":{"ha":854,"x_min":101,"x_max":776,"o":"m 101 972 l 772 972 l 772 806 l 285 806 l 285 586 l 733 586 l 733 419 l 285 419 l 285 167 l 776 167 l 776 0 l 101 0 l 101 972 m 386 1265 l 511 1265 l 668 1047 l 531 1047 l 449 1131 l 367 1047 l 229 1047 l 386 1265 z "},"Ë":{"ha":854,"x_min":101,"x_max":776,"o":"m 101 972 l 772 972 l 772 806 l 285 806 l 285 586 l 733 586 l 733 419 l 285 419 l 285 167 l 776 167 l 776 0 l 101 0 l 101 972 z "},"Ė":{"ha":854,"x_min":101,"x_max":776,"o":"m 101 972 l 772 972 l 772 806 l 285 806 l 285 586 l 733 586 l 733 419 l 285 419 l 285 167 l 776 167 l 776 0 l 101 0 l 101 972 z "},"È":{"ha":854,"x_min":101,"x_max":776,"o":"m 101 972 l 772 972 l 772 806 l 285 806 l 285 586 l 733 586 l 733 419 l 285 419 l 285 167 l 776 167 l 776 0 l 101 0 l 101 972 m 225 1267 l 438 1267 l 532 1047 l 397 1047 l 225 1267 z "},"Ē":{"ha":854,"x_min":101,"x_max":776,"o":"m 101 972 l 772 972 l 772 806 l 285 806 l 285 586 l 733 586 l 733 419 l 285 419 l 285 167 l 776 167 l 776 0 l 101 0 l 101 972 m 276 1231 l 621 1231 l 621 1100 l 276 1100 l 276 1231 z "},"Ę":{"ha":854,"x_min":101,"x_max":779,"o":"m 779 -265 q 696 -275 743 -275 q 585 -240 633 -275 q 538 -144 538 -206 q 619 0 538 -60 l 101 0 l 101 972 l 772 972 l 772 806 l 285 806 l 285 586 l 733 586 l 733 419 l 285 419 l 285 167 l 776 167 l 776 0 q 704 -53 732 -25 q 676 -108 676 -81 q 692 -147 676 -133 q 733 -161 708 -161 q 764 -158 746 -161 l 779 -265 z "},"F":{"ha":858,"x_min":101,"x_max":789,"o":"m 101 972 l 789 972 l 789 803 l 285 803 l 285 558 l 747 558 l 747 389 l 285 389 l 285 0 l 101 0 l 101 972 z "},"G":{"ha":1083,"x_min":64,"x_max":1001,"o":"m 1001 522 l 1001 0 l 881 0 l 842 132 q 718 22 797 63 q 535 -19 639 -19 q 293 44 400 -19 q 125 222 186 107 q 64 486 64 336 q 131 746 64 631 q 315 926 199 861 q 568 992 431 992 q 824 927 711 992 q 993 754 938 863 l 856 654 q 736 783 811 739 q 565 828 661 828 q 407 786 479 828 q 292 667 335 744 q 250 486 250 589 q 289 309 250 385 q 397 193 328 233 q 551 153 465 153 q 737 213 671 153 q 818 369 803 274 l 504 369 l 504 522 l 1001 522 z "},"Ğ":{"ha":1083,"x_min":64,"x_max":1001,"o":"m 1001 522 l 1001 0 l 881 0 l 842 132 q 718 22 797 63 q 535 -19 639 -19 q 293 44 400 -19 q 125 222 186 107 q 64 486 64 336 q 131 746 64 631 q 315 926 199 861 q 568 992 431 992 q 824 927 711 992 q 993 754 938 863 l 856 654 q 736 783 811 739 q 565 828 661 828 q 407 786 479 828 q 292 667 335 744 q 250 486 250 589 q 289 309 250 385 q 397 193 328 233 q 551 153 465 153 q 737 213 671 153 q 818 369 803 274 l 504 369 l 504 522 l 1001 522 m 568 1067 q 453 1111 497 1067 q 410 1224 410 1156 l 515 1224 q 529 1181 515 1197 q 568 1164 543 1164 q 607 1181 593 1164 q 621 1224 621 1197 l 726 1224 q 683 1111 726 1156 q 568 1067 639 1067 z "},"Ĝ":{"ha":1083,"x_min":64,"x_max":1001,"o":"m 1001 522 l 1001 0 l 881 0 l 842 132 q 718 22 797 63 q 535 -19 639 -19 q 293 44 400 -19 q 125 222 186 107 q 64 486 64 336 q 131 746 64 631 q 315 926 199 861 q 568 992 431 992 q 824 927 711 992 q 993 754 938 863 l 856 654 q 736 783 811 739 q 565 828 661 828 q 407 786 479 828 q 292 667 335 744 q 250 486 250 589 q 289 309 250 385 q 397 193 328 233 q 551 153 465 153 q 737 213 671 153 q 818 369 803 274 l 504 369 l 504 522 l 1001 522 m 506 1265 l 631 1265 l 788 1047 l 650 1047 l 568 1131 l 486 1047 l 349 1047 l 506 1265 z "},"Ģ":{"ha":1083,"x_min":64,"x_max":1001,"o":"m 1001 522 l 1001 0 l 881 0 l 842 132 q 718 22 797 63 q 535 -19 639 -19 q 293 44 400 -19 q 125 222 186 107 q 64 486 64 336 q 131 746 64 631 q 315 926 199 861 q 568 992 431 992 q 824 927 711 992 q 993 754 938 863 l 856 654 q 736 783 811 739 q 565 828 661 828 q 407 786 479 828 q 292 667 335 744 q 250 486 250 589 q 289 309 250 385 q 397 193 328 233 q 551 153 465 153 q 737 213 671 153 q 818 369 803 274 l 504 369 l 504 522 l 1001 522 m 439 -335 l 468 -82 l 653 -82 l 535 -335 l 439 -335 z "},"Ġ":{"ha":1083,"x_min":64,"x_max":1001,"o":"m 1001 522 l 1001 0 l 881 0 l 842 132 q 718 22 797 63 q 535 -19 639 -19 q 293 44 400 -19 q 125 222 186 107 q 64 486 64 336 q 131 746 64 631 q 315 926 199 861 q 568 992 431 992 q 824 927 711 992 q 993 754 938 863 l 856 654 q 736 783 811 739 q 565 828 661 828 q 407 786 479 828 q 292 667 335 744 q 250 486 250 589 q 289 309 250 385 q 397 193 328 233 q 551 153 465 153 q 737 213 671 153 q 818 369 803 274 l 504 369 l 504 522 l 1001 522 z "},"H":{"ha":994,"x_min":101,"x_max":893,"o":"m 101 972 l 285 972 l 285 582 l 710 582 l 710 972 l 893 972 l 893 0 l 710 0 l 710 410 l 285 410 l 285 0 l 101 0 l 101 972 z "},"Ħ":{"ha":994,"x_min":-18,"x_max":1013,"o":"m 1013 672 l 893 672 l 893 0 l 710 0 l 710 410 l 285 410 l 285 0 l 101 0 l 101 672 l -18 672 l -18 803 l 101 803 l 101 972 l 285 972 l 285 803 l 710 803 l 710 972 l 893 972 l 893 803 l 1013 803 l 1013 672 m 710 672 l 285 672 l 285 582 l 710 582 l 710 672 z "},"Ĥ":{"ha":994,"x_min":101,"x_max":893,"o":"m 101 972 l 285 972 l 285 582 l 710 582 l 710 972 l 893 972 l 893 0 l 710 0 l 710 410 l 285 410 l 285 0 l 101 0 l 101 972 m 435 1265 l 560 1265 l 717 1047 l 579 1047 l 497 1131 l 415 1047 l 278 1047 l 435 1265 z "},"I":{"ha":386,"x_min":101,"x_max":285,"o":"m 101 972 l 285 972 l 285 0 l 101 0 l 101 972 z "},"Ĳ":{"ha":1131,"x_min":101,"x_max":1054,"o":"m 101 972 l 285 972 l 285 0 l 101 0 l 101 972 m 736 -19 q 503 61 588 -19 q 418 281 418 142 l 601 319 q 638 197 603 240 q 736 153 674 153 q 836 193 801 153 q 871 300 871 233 l 871 972 l 1054 972 l 1054 297 q 1017 133 1054 204 q 908 21 979 61 q 736 -19 836 -19 z "},"Í":{"ha":386,"x_min":101,"x_max":417,"o":"m 101 972 l 285 972 l 285 0 l 101 0 l 101 972 m 204 1267 l 417 1267 l 244 1047 l 110 1047 l 204 1267 z "},"Ĭ":{"ha":386,"x_min":35,"x_max":351,"o":"m 101 972 l 285 972 l 285 0 l 101 0 l 101 972 m 193 1067 q 78 1111 122 1067 q 35 1224 35 1156 l 140 1224 q 154 1181 140 1197 q 193 1164 168 1164 q 232 1181 218 1164 q 246 1224 246 1197 l 351 1224 q 308 1111 351 1156 q 193 1067 264 1067 z "},"Î":{"ha":386,"x_min":-26,"x_max":413,"o":"m 101 972 l 285 972 l 285 0 l 101 0 l 101 972 m 131 1265 l 256 1265 l 413 1047 l 275 1047 l 193 1131 l 111 1047 l -26 1047 l 131 1265 z "},"Ï":{"ha":386,"x_min":-32,"x_max":418,"o":"m 101 972 l 285 972 l 285 0 l 101 0 l 101 972 z "},"İ":{"ha":386,"x_min":79,"x_max":307,"o":"m 101 972 l 285 972 l 285 0 l 101 0 l 101 972 z "},"Ì":{"ha":386,"x_min":-31,"x_max":285,"o":"m 101 972 l 285 972 l 285 0 l 101 0 l 101 972 m -31 1267 l 182 1267 l 276 1047 l 142 1047 l -31 1267 z "},"Ī":{"ha":386,"x_min":21,"x_max":365,"o":"m 101 972 l 285 972 l 285 0 l 101 0 l 101 972 m 21 1231 l 365 1231 l 365 1100 l 21 1100 l 21 1231 z "},"Į":{"ha":386,"x_min":46,"x_max":288,"o":"m 288 -265 q 204 -275 251 -275 q 94 -240 142 -275 q 46 -144 46 -206 q 128 0 46 -60 l 101 0 l 101 972 l 285 972 l 285 0 q 213 -53 240 -25 q 185 -108 185 -81 q 201 -147 185 -133 q 242 -161 217 -161 q 272 -158 254 -161 l 288 -265 z "},"Ĩ":{"ha":386,"x_min":-53,"x_max":439,"o":"m 101 972 l 285 972 l 285 0 l 101 0 l 101 972 m 303 1047 q 222 1063 253 1047 q 157 1106 192 1078 q 123 1131 138 1122 q 92 1139 108 1139 q 69 1131 78 1139 q 60 1108 60 1122 q 69 1072 60 1092 l -33 1051 q -47 1085 -42 1064 q -53 1125 -53 1106 q -11 1218 -53 1185 q 83 1251 31 1251 q 164 1236 133 1251 q 229 1193 194 1221 q 263 1168 249 1176 q 294 1160 278 1160 q 317 1168 308 1160 q 326 1190 326 1176 q 317 1226 326 1207 l 419 1247 q 433 1214 428 1235 q 439 1174 439 1193 q 397 1081 439 1114 q 303 1047 356 1047 z "},"J":{"ha":771,"x_min":58,"x_max":694,"o":"m 376 -19 q 143 61 228 -19 q 58 281 58 142 l 242 319 q 278 197 243 240 q 376 153 314 153 q 476 193 442 153 q 511 300 511 233 l 511 972 l 694 972 l 694 297 q 657 133 694 204 q 548 21 619 61 q 376 -19 476 -19 z "},"Ĵ":{"ha":771,"x_min":58,"x_max":824,"o":"m 376 -19 q 143 61 228 -19 q 58 281 58 142 l 242 319 q 278 197 243 240 q 376 153 314 153 q 476 193 442 153 q 511 300 511 233 l 511 972 l 694 972 l 694 297 q 657 133 694 204 q 548 21 619 61 q 376 -19 476 -19 m 542 1265 l 667 1265 l 824 1047 l 686 1047 l 604 1131 l 522 1047 l 385 1047 l 542 1265 z "},"K":{"ha":914,"x_min":101,"x_max":888,"o":"m 101 972 l 285 972 l 285 597 l 361 683 l 633 972 l 865 972 l 521 611 l 888 0 l 674 0 l 389 475 l 285 365 l 285 0 l 101 0 l 101 972 z "},"Ķ":{"ha":914,"x_min":101,"x_max":888,"o":"m 101 972 l 285 972 l 285 597 l 361 683 l 633 972 l 865 972 l 521 611 l 888 0 l 674 0 l 389 475 l 285 365 l 285 0 l 101 0 l 101 972 m 364 -335 l 393 -82 l 578 -82 l 460 -335 l 364 -335 z "},"L":{"ha":829,"x_min":101,"x_max":772,"o":"m 101 972 l 285 972 l 285 172 l 772 172 l 772 0 l 101 0 l 101 972 z "},"Ĺ":{"ha":829,"x_min":101,"x_max":772,"o":"m 101 972 l 285 972 l 285 172 l 772 172 l 772 0 l 101 0 l 101 972 m 213 1267 l 425 1267 l 253 1047 l 118 1047 l 213 1267 z "},"Ľ":{"ha":829,"x_min":101,"x_max":839,"o":"m 101 972 l 285 972 l 285 172 l 772 172 l 772 0 l 101 0 l 101 972 m 625 719 l 654 972 l 839 972 l 721 719 l 625 719 z "},"Ļ":{"ha":829,"x_min":101,"x_max":772,"o":"m 101 972 l 285 972 l 285 172 l 772 172 l 772 0 l 101 0 l 101 972 m 329 -335 l 358 -82 l 543 -82 l 425 -335 l 329 -335 z "},"Ŀ":{"ha":829,"x_min":101,"x_max":772,"o":"m 101 972 l 285 972 l 285 172 l 772 172 l 772 0 l 101 0 l 101 972 m 615 378 q 535 411 568 378 q 501 492 501 444 q 535 571 501 538 q 615 604 568 604 q 696 571 663 604 q 729 492 729 538 q 696 411 729 444 q 615 378 663 378 z "},"Ł":{"ha":829,"x_min":0,"x_max":772,"o":"m 772 172 l 772 0 l 101 0 l 101 242 l 0 178 l 0 347 l 101 411 l 101 972 l 285 972 l 285 528 l 504 668 l 504 499 l 285 358 l 285 172 l 772 172 z "},"M":{"ha":1208,"x_min":101,"x_max":1107,"o":"m 101 972 l 294 972 l 604 200 l 914 972 l 1107 972 l 1107 0 l 929 0 l 929 594 l 882 446 l 692 0 l 517 0 l 326 446 l 279 594 l 279 0 l 101 0 l 101 972 z "},"N":{"ha":1014,"x_min":101,"x_max":913,"o":"m 288 972 l 693 354 q 735 278 726 297 l 735 972 l 913 972 l 913 0 l 726 0 l 321 622 q 279 699 288 679 l 279 0 l 101 0 l 101 972 l 288 972 z "},"Ń":{"ha":1014,"x_min":101,"x_max":913,"o":"m 288 972 l 693 354 q 735 278 726 297 l 735 972 l 913 972 l 913 0 l 726 0 l 321 622 q 279 699 288 679 l 279 0 l 101 0 l 101 972 l 288 972 m 518 1267 l 731 1267 l 558 1047 l 424 1047 l 518 1267 z "},"Ň":{"ha":1014,"x_min":101,"x_max":913,"o":"m 288 972 l 693 354 q 735 278 726 297 l 735 972 l 913 972 l 913 0 l 726 0 l 321 622 q 279 699 288 679 l 279 0 l 101 0 l 101 972 l 288 972 m 288 1265 l 425 1265 l 507 1182 l 589 1265 l 726 1265 l 569 1047 l 444 1047 l 288 1265 z "},"Ņ":{"ha":1014,"x_min":101,"x_max":913,"o":"m 288 972 l 693 354 q 735 278 726 297 l 735 972 l 913 972 l 913 0 l 726 0 l 321 622 q 279 699 288 679 l 279 0 l 101 0 l 101 972 l 288 972 m 400 -335 l 429 -82 l 614 -82 l 496 -335 l 400 -335 z "},"Ŋ":{"ha":1014,"x_min":101,"x_max":913,"o":"m 632 -303 q 506 -281 565 -303 l 506 -115 q 610 -133 556 -133 q 726 0 726 -133 l 321 622 q 279 699 288 679 l 279 0 l 101 0 l 101 972 l 288 972 l 693 354 q 735 278 726 297 l 735 972 l 913 972 l 913 14 q 844 -220 913 -137 q 632 -303 775 -303 z "},"Ñ":{"ha":1014,"x_min":101,"x_max":913,"o":"m 288 972 l 693 354 q 735 278 726 297 l 735 972 l 913 972 l 913 0 l 726 0 l 321 622 q 279 699 288 679 l 279 0 l 101 0 l 101 972 l 288 972 m 617 1047 q 536 1063 567 1047 q 471 1106 506 1078 q 437 1131 451 1122 q 406 1139 422 1139 q 383 1131 392 1139 q 374 1108 374 1122 q 383 1072 374 1092 l 281 1051 q 267 1085 272 1064 q 261 1125 261 1106 q 303 1218 261 1185 q 397 1251 344 1251 q 478 1236 447 1251 q 543 1193 508 1221 q 577 1168 563 1176 q 608 1160 592 1160 q 631 1168 622 1160 q 640 1190 640 1176 q 631 1226 640 1207 l 733 1247 q 747 1214 742 1235 q 753 1174 753 1193 q 711 1081 753 1114 q 617 1047 669 1047 z "},"O":{"ha":1128,"x_min":64,"x_max":1064,"o":"m 564 -19 q 308 47 422 -19 q 129 228 194 113 q 64 486 64 343 q 129 744 64 629 q 308 926 194 860 q 564 992 422 992 q 819 926 706 992 q 999 744 933 860 q 1064 486 1064 629 q 999 228 1064 343 q 819 47 933 113 q 564 -19 706 -19 m 564 153 q 724 193 653 153 q 837 308 796 233 q 878 486 878 383 q 837 664 878 589 q 724 779 796 739 q 564 819 653 819 q 403 779 475 819 q 291 664 332 739 q 250 486 250 589 q 291 308 250 383 q 403 193 332 233 q 564 153 475 153 z "},"Ó":{"ha":1128,"x_min":64,"x_max":1064,"o":"m 564 -19 q 308 47 422 -19 q 129 228 194 113 q 64 486 64 343 q 129 744 64 629 q 308 926 194 860 q 564 992 422 992 q 819 926 706 992 q 999 744 933 860 q 1064 486 1064 629 q 999 228 1064 343 q 819 47 933 113 q 564 -19 706 -19 m 564 153 q 724 193 653 153 q 837 308 796 233 q 878 486 878 383 q 837 664 878 589 q 724 779 796 739 q 564 819 653 819 q 403 779 475 819 q 291 664 332 739 q 250 486 250 589 q 291 308 250 383 q 403 193 332 233 q 564 153 475 153 m 575 1267 l 788 1267 l 615 1047 l 481 1047 l 575 1267 z "},"Ŏ":{"ha":1128,"x_min":64,"x_max":1064,"o":"m 564 -19 q 308 47 422 -19 q 129 228 194 113 q 64 486 64 343 q 129 744 64 629 q 308 926 194 860 q 564 992 422 992 q 819 926 706 992 q 999 744 933 860 q 1064 486 1064 629 q 999 228 1064 343 q 819 47 933 113 q 564 -19 706 -19 m 564 153 q 724 193 653 153 q 837 308 796 233 q 878 486 878 383 q 837 664 878 589 q 724 779 796 739 q 564 819 653 819 q 403 779 475 819 q 291 664 332 739 q 250 486 250 589 q 291 308 250 383 q 403 193 332 233 q 564 153 475 153 m 564 1067 q 449 1111 493 1067 q 406 1224 406 1156 l 511 1224 q 525 1181 511 1197 q 564 1164 539 1164 q 603 1181 589 1164 q 617 1224 617 1197 l 722 1224 q 678 1111 722 1156 q 564 1067 635 1067 z "},"Ô":{"ha":1128,"x_min":64,"x_max":1064,"o":"m 564 -19 q 308 47 422 -19 q 129 228 194 113 q 64 486 64 343 q 129 744 64 629 q 308 926 194 860 q 564 992 422 992 q 819 926 706 992 q 999 744 933 860 q 1064 486 1064 629 q 999 228 1064 343 q 819 47 933 113 q 564 -19 706 -19 m 564 153 q 724 193 653 153 q 837 308 796 233 q 878 486 878 383 q 837 664 878 589 q 724 779 796 739 q 564 819 653 819 q 403 779 475 819 q 291 664 332 739 q 250 486 250 589 q 291 308 250 383 q 403 193 332 233 q 564 153 475 153 m 501 1265 l 626 1265 l 783 1047 l 646 1047 l 564 1131 l 482 1047 l 344 1047 l 501 1265 z "},"Ö":{"ha":1128,"x_min":64,"x_max":1064,"o":"m 564 -19 q 308 47 422 -19 q 129 228 194 113 q 64 486 64 343 q 129 744 64 629 q 308 926 194 860 q 564 992 422 992 q 819 926 706 992 q 999 744 933 860 q 1064 486 1064 629 q 999 228 1064 343 q 819 47 933 113 q 564 -19 706 -19 m 564 153 q 724 193 653 153 q 837 308 796 233 q 878 486 878 383 q 837 664 878 589 q 724 779 796 739 q 564 819 653 819 q 403 779 475 819 q 291 664 332 739 q 250 486 250 589 q 291 308 250 383 q 403 193 332 233 q 564 153 475 153 z "},"Ò":{"ha":1128,"x_min":64,"x_max":1064,"o":"m 564 -19 q 308 47 422 -19 q 129 228 194 113 q 64 486 64 343 q 129 744 64 629 q 308 926 194 860 q 564 992 422 992 q 819 926 706 992 q 999 744 933 860 q 1064 486 1064 629 q 999 228 1064 343 q 819 47 933 113 q 564 -19 706 -19 m 564 153 q 724 193 653 153 q 837 308 796 233 q 878 486 878 383 q 837 664 878 589 q 724 779 796 739 q 564 819 653 819 q 403 779 475 819 q 291 664 332 739 q 250 486 250 589 q 291 308 250 383 q 403 193 332 233 q 564 153 475 153 m 340 1267 l 553 1267 l 647 1047 l 513 1047 l 340 1267 z "},"Ő":{"ha":1128,"x_min":64,"x_max":1064,"o":"m 564 -19 q 308 47 422 -19 q 129 228 194 113 q 64 486 64 343 q 129 744 64 629 q 308 926 194 860 q 564 992 422 992 q 819 926 706 992 q 999 744 933 860 q 1064 486 1064 629 q 999 228 1064 343 q 819 47 933 113 q 564 -19 706 -19 m 564 153 q 724 193 653 153 q 837 308 796 233 q 878 486 878 383 q 837 664 878 589 q 724 779 796 739 q 564 819 653 819 q 403 779 475 819 q 291 664 332 739 q 250 486 250 589 q 291 308 250 383 q 403 193 332 233 q 564 153 475 153 m 433 1267 l 646 1267 l 474 1047 l 339 1047 l 433 1267 m 696 1267 l 908 1267 l 736 1047 l 601 1047 l 696 1267 z "},"Ō":{"ha":1128,"x_min":64,"x_max":1064,"o":"m 564 -19 q 308 47 422 -19 q 129 228 194 113 q 64 486 64 343 q 129 744 64 629 q 308 926 194 860 q 564 992 422 992 q 819 926 706 992 q 999 744 933 860 q 1064 486 1064 629 q 999 228 1064 343 q 819 47 933 113 q 564 -19 706 -19 m 564 153 q 724 193 653 153 q 837 308 796 233 q 878 486 878 383 q 837 664 878 589 q 724 779 796 739 q 564 819 653 819 q 403 779 475 819 q 291 664 332 739 q 250 486 250 589 q 291 308 250 383 q 403 193 332 233 q 564 153 475 153 m 392 1231 l 736 1231 l 736 1100 l 392 1100 l 392 1231 z "},"Ø":{"ha":1128,"x_min":64,"x_max":1064,"o":"m 867 894 q 1012 720 960 826 q 1064 486 1064 614 q 999 228 1064 343 q 819 47 933 113 q 564 -19 706 -19 q 400 6 478 -19 l 351 -86 l 215 -8 l 261 78 q 116 252 168 146 q 64 486 64 358 q 129 744 64 629 q 308 926 194 860 q 564 992 422 992 q 728 967 650 992 l 776 1058 l 913 981 l 867 894 m 250 486 q 275 345 250 408 q 344 238 300 282 l 646 810 q 564 819 608 819 q 403 779 475 819 q 291 664 332 739 q 250 486 250 589 m 564 153 q 724 193 653 153 q 837 308 796 233 q 878 486 878 383 q 853 627 878 564 q 783 735 828 690 l 482 163 q 564 153 519 153 z "},"Õ":{"ha":1128,"x_min":64,"x_max":1064,"o":"m 564 -19 q 308 47 422 -19 q 129 228 194 113 q 64 486 64 343 q 129 744 64 629 q 308 926 194 860 q 564 992 422 992 q 819 926 706 992 q 999 744 933 860 q 1064 486 1064 629 q 999 228 1064 343 q 819 47 933 113 q 564 -19 706 -19 m 564 153 q 724 193 653 153 q 837 308 796 233 q 878 486 878 383 q 837 664 878 589 q 724 779 796 739 q 564 819 653 819 q 403 779 475 819 q 291 664 332 739 q 250 486 250 589 q 291 308 250 383 q 403 193 332 233 q 564 153 475 153 m 674 1047 q 593 1063 624 1047 q 528 1106 563 1078 q 494 1131 508 1122 q 463 1139 479 1139 q 440 1131 449 1139 q 431 1108 431 1122 q 440 1072 431 1092 l 338 1051 q 324 1085 329 1064 q 318 1125 318 1106 q 360 1218 318 1185 q 454 1251 401 1251 q 535 1236 504 1251 q 600 1193 565 1221 q 634 1168 619 1176 q 665 1160 649 1160 q 688 1168 679 1160 q 697 1190 697 1176 q 688 1226 697 1207 l 790 1247 q 804 1214 799 1235 q 810 1174 810 1193 q 768 1081 810 1114 q 674 1047 726 1047 z "},"Œ":{"ha":1631,"x_min":64,"x_max":1553,"o":"m 564 -19 q 308 47 422 -19 q 129 228 194 113 q 64 486 64 343 q 129 744 64 629 q 308 926 194 860 q 564 992 422 992 q 878 863 765 992 l 878 972 l 1549 972 l 1549 808 l 1061 808 l 1061 585 l 1510 585 l 1510 421 l 1061 421 l 1061 164 l 1553 164 l 1553 0 l 878 0 l 878 121 q 738 17 818 53 q 564 -19 658 -19 m 564 150 q 724 192 651 150 q 837 310 796 233 q 878 486 878 388 q 837 665 878 589 q 724 781 796 740 q 564 822 653 822 q 403 781 475 822 q 291 665 332 740 q 250 486 250 589 q 291 308 250 383 q 403 191 332 232 q 564 150 475 150 z "},"P":{"ha":964,"x_min":101,"x_max":907,"o":"m 101 972 l 543 972 q 809 890 711 972 q 907 656 907 807 q 809 422 907 504 q 543 339 711 339 l 285 339 l 285 0 l 101 0 l 101 972 m 538 506 q 677 545 631 506 q 724 656 724 585 q 677 766 724 726 q 538 806 631 806 l 285 806 l 285 506 l 538 506 z "},"Þ":{"ha":964,"x_min":101,"x_max":907,"o":"m 285 972 l 285 803 l 543 803 q 809 720 711 803 q 907 486 907 638 q 809 252 907 335 q 543 169 711 169 l 285 169 l 285 0 l 101 0 l 101 972 l 285 972 m 538 333 q 677 374 631 333 q 724 486 724 415 q 677 598 724 557 q 538 639 631 639 l 285 639 l 285 333 l 538 333 z "},"Q":{"ha":1128,"x_min":64,"x_max":1064,"o":"m 1064 486 q 1011 251 1064 358 q 864 75 958 143 l 960 -76 l 818 -164 l 714 1 q 564 -19 643 -19 q 308 47 422 -19 q 129 228 194 113 q 64 486 64 343 q 129 744 64 629 q 308 926 194 860 q 564 992 422 992 q 819 926 706 992 q 999 744 933 860 q 1064 486 1064 629 m 564 153 q 617 157 592 153 l 515 319 l 656 403 l 769 224 q 849 335 821 268 q 878 486 878 401 q 837 664 878 589 q 724 779 796 739 q 564 819 653 819 q 403 779 475 819 q 291 664 332 739 q 250 486 250 589 q 291 308 250 383 q 403 193 332 233 q 564 153 475 153 z "},"R":{"ha":918,"x_min":101,"x_max":875,"o":"m 450 394 l 285 394 l 285 0 l 101 0 l 101 972 l 517 972 q 769 898 676 972 q 863 697 863 824 q 640 411 863 490 l 875 0 l 658 0 l 450 394 m 285 556 l 517 556 q 639 590 599 556 q 679 683 679 624 q 639 777 679 743 q 517 811 599 811 l 285 811 l 285 556 z "},"Ŕ":{"ha":918,"x_min":101,"x_max":875,"o":"m 450 394 l 285 394 l 285 0 l 101 0 l 101 972 l 517 972 q 769 898 676 972 q 863 697 863 824 q 640 411 863 490 l 875 0 l 658 0 l 450 394 m 285 556 l 517 556 q 639 590 599 556 q 679 683 679 624 q 639 777 679 743 q 517 811 599 811 l 285 811 l 285 556 m 475 1267 l 688 1267 l 515 1047 l 381 1047 l 475 1267 z "},"Ř":{"ha":918,"x_min":101,"x_max":875,"o":"m 450 394 l 285 394 l 285 0 l 101 0 l 101 972 l 517 972 q 769 898 676 972 q 863 697 863 824 q 640 411 863 490 l 875 0 l 658 0 l 450 394 m 285 556 l 517 556 q 639 590 599 556 q 679 683 679 624 q 639 777 679 743 q 517 811 599 811 l 285 811 l 285 556 m 244 1265 l 382 1265 l 464 1182 l 546 1265 l 683 1265 l 526 1047 l 401 1047 l 244 1265 z "},"Ŗ":{"ha":918,"x_min":101,"x_max":875,"o":"m 450 394 l 285 394 l 285 0 l 101 0 l 101 972 l 517 972 q 769 898 676 972 q 863 697 863 824 q 640 411 863 490 l 875 0 l 658 0 l 450 394 m 285 556 l 517 556 q 639 590 599 556 q 679 683 679 624 q 639 777 679 743 q 517 811 599 811 l 285 811 l 285 556 m 357 -335 l 386 -82 l 571 -82 l 453 -335 l 357 -335 z "},"S":{"ha":926,"x_min":61,"x_max":853,"o":"m 490 -19 q 210 55 317 -19 q 61 256 104 129 l 225 344 q 320 194 258 246 q 489 142 382 142 q 619 178 569 142 q 669 272 669 214 q 631 356 669 325 q 508 404 593 388 l 393 426 q 178 524 246 454 q 111 717 111 594 q 153 863 111 800 q 274 958 196 925 q 454 992 351 992 q 831 774 722 992 l 686 683 q 450 836 611 836 q 333 806 378 836 q 289 724 289 776 q 322 649 289 678 q 428 606 356 621 l 549 581 q 780 475 707 547 q 853 279 853 403 q 808 123 853 190 q 681 18 763 56 q 490 -19 599 -19 z "},"Ś":{"ha":926,"x_min":61,"x_max":853,"o":"m 490 -19 q 210 55 317 -19 q 61 256 104 129 l 225 344 q 320 194 258 246 q 489 142 382 142 q 619 178 569 142 q 669 272 669 214 q 631 356 669 325 q 508 404 593 388 l 393 426 q 178 524 246 454 q 111 717 111 594 q 153 863 111 800 q 274 958 196 925 q 454 992 351 992 q 831 774 722 992 l 686 683 q 450 836 611 836 q 333 806 378 836 q 289 724 289 776 q 322 649 289 678 q 428 606 356 621 l 549 581 q 780 475 707 547 q 853 279 853 403 q 808 123 853 190 q 681 18 763 56 q 490 -19 599 -19 m 474 1267 l 686 1267 l 514 1047 l 379 1047 l 474 1267 z "},"Š":{"ha":926,"x_min":61,"x_max":853,"o":"m 490 -19 q 210 55 317 -19 q 61 256 104 129 l 225 344 q 320 194 258 246 q 489 142 382 142 q 619 178 569 142 q 669 272 669 214 q 631 356 669 325 q 508 404 593 388 l 393 426 q 178 524 246 454 q 111 717 111 594 q 153 863 111 800 q 274 958 196 925 q 454 992 351 992 q 831 774 722 992 l 686 683 q 450 836 611 836 q 333 806 378 836 q 289 724 289 776 q 322 649 289 678 q 428 606 356 621 l 549 581 q 780 475 707 547 q 853 279 853 403 q 808 123 853 190 q 681 18 763 56 q 490 -19 599 -19 m 243 1265 l 381 1265 l 463 1182 l 544 1265 l 682 1265 l 525 1047 l 400 1047 l 243 1265 z "},"Ş":{"ha":926,"x_min":61,"x_max":853,"o":"m 478 -19 l 444 -76 q 500 -64 468 -64 q 578 -94 549 -64 q 608 -172 608 -125 q 570 -256 608 -225 q 476 -286 532 -286 q 390 -264 424 -286 q 346 -201 356 -242 l 438 -178 q 476 -208 443 -208 q 501 -199 492 -208 q 511 -174 511 -190 q 501 -144 511 -154 q 472 -133 490 -133 q 439 -140 453 -133 q 410 -158 425 -146 l 358 -112 l 393 -12 q 179 78 261 7 q 61 256 97 149 l 225 344 q 320 194 258 246 q 489 142 382 142 q 619 178 569 142 q 669 272 669 214 q 631 356 669 325 q 508 404 593 388 l 393 426 q 178 524 246 454 q 111 717 111 594 q 153 863 111 800 q 274 958 196 925 q 454 992 351 992 q 831 774 722 992 l 686 683 q 450 836 611 836 q 333 806 378 836 q 289 724 289 776 q 322 649 289 678 q 428 606 356 621 l 549 581 q 780 475 707 547 q 853 279 853 403 q 808 123 853 190 q 681 18 763 56 q 490 -19 599 -19 l 478 -19 z "},"Ŝ":{"ha":926,"x_min":61,"x_max":853,"o":"m 490 -19 q 210 55 317 -19 q 61 256 104 129 l 225 344 q 320 194 258 246 q 489 142 382 142 q 619 178 569 142 q 669 272 669 214 q 631 356 669 325 q 508 404 593 388 l 393 426 q 178 524 246 454 q 111 717 111 594 q 153 863 111 800 q 274 958 196 925 q 454 992 351 992 q 831 774 722 992 l 686 683 q 450 836 611 836 q 333 806 378 836 q 289 724 289 776 q 322 649 289 678 q 428 606 356 621 l 549 581 q 780 475 707 547 q 853 279 853 403 q 808 123 853 190 q 681 18 763 56 q 490 -19 599 -19 m 400 1265 l 525 1265 l 682 1047 l 544 1047 l 463 1131 l 381 1047 l 243 1047 l 400 1265 z "},"Ș":{"ha":926,"x_min":61,"x_max":853,"o":"m 490 -19 q 210 55 317 -19 q 61 256 104 129 l 225 344 q 320 194 258 246 q 489 142 382 142 q 619 178 569 142 q 669 272 669 214 q 631 356 669 325 q 508 404 593 388 l 393 426 q 178 524 246 454 q 111 717 111 594 q 153 863 111 800 q 274 958 196 925 q 454 992 351 992 q 831 774 722 992 l 686 683 q 450 836 611 836 q 333 806 378 836 q 289 724 289 776 q 322 649 289 678 q 428 606 356 621 l 549 581 q 780 475 707 547 q 853 279 853 403 q 808 123 853 190 q 681 18 763 56 q 490 -19 599 -19 m 356 -335 l 385 -82 l 569 -82 l 451 -335 l 356 -335 z "},"ẞ":{"ha":958,"x_min":101,"x_max":894,"o":"m 593 -19 q 450 9 506 -19 q 351 93 394 38 l 478 221 q 529 170 494 190 q 597 150 564 150 q 685 186 656 150 q 714 286 714 222 q 456 456 714 456 l 456 597 l 613 808 l 428 808 q 322 772 360 808 q 285 663 285 735 l 285 0 l 101 0 l 101 663 q 428 972 101 972 l 789 972 l 789 808 l 629 597 q 826 492 757 572 q 894 286 894 411 q 853 120 894 189 q 742 16 811 51 q 593 -19 674 -19 z "},"T":{"ha":822,"x_min":22,"x_max":800,"o":"m 319 800 l 22 800 l 22 972 l 800 972 l 800 800 l 503 800 l 503 0 l 319 0 l 319 800 z "},"Ŧ":{"ha":822,"x_min":22,"x_max":800,"o":"m 800 972 l 800 803 l 503 803 l 503 608 l 694 608 l 694 478 l 503 478 l 503 0 l 319 0 l 319 478 l 128 478 l 128 608 l 319 608 l 319 803 l 22 803 l 22 972 l 800 972 z "},"Ť":{"ha":822,"x_min":22,"x_max":800,"o":"m 319 800 l 22 800 l 22 972 l 800 972 l 800 800 l 503 800 l 503 0 l 319 0 l 319 800 m 192 1265 l 329 1265 l 411 1182 l 493 1265 l 631 1265 l 474 1047 l 349 1047 l 192 1265 z "},"Ţ":{"ha":822,"x_min":22,"x_max":800,"o":"m 457 0 l 414 -74 q 469 -61 438 -61 q 548 -92 518 -61 q 578 -169 578 -122 q 540 -253 578 -222 q 446 -283 501 -283 q 359 -261 393 -283 q 315 -199 325 -239 l 407 -175 q 446 -206 413 -206 q 471 -197 461 -206 q 481 -171 481 -187 q 470 -141 481 -151 q 442 -131 460 -131 q 408 -137 422 -131 q 379 -156 394 -143 l 328 -110 l 365 0 l 319 0 l 319 800 l 22 800 l 22 972 l 800 972 l 800 800 l 503 800 l 503 0 l 457 0 z "},"Ț":{"ha":822,"x_min":22,"x_max":800,"o":"m 319 800 l 22 800 l 22 972 l 800 972 l 800 800 l 503 800 l 503 0 l 319 0 l 319 800 m 304 -335 l 333 -82 l 518 -82 l 400 -335 l 304 -335 z "},"U":{"ha":972,"x_min":88,"x_max":885,"o":"m 486 -19 q 281 26 371 -19 q 139 160 190 72 q 88 368 88 247 l 88 972 l 271 972 l 271 386 q 328 214 271 275 q 486 153 386 153 q 644 214 586 153 q 701 386 701 275 l 701 972 l 885 972 l 885 368 q 833 160 885 247 q 692 26 782 72 q 486 -19 601 -19 z "},"Ú":{"ha":972,"x_min":88,"x_max":885,"o":"m 486 -19 q 281 26 371 -19 q 139 160 190 72 q 88 368 88 247 l 88 972 l 271 972 l 271 386 q 328 214 271 275 q 486 153 386 153 q 644 214 586 153 q 701 386 701 275 l 701 972 l 885 972 l 885 368 q 833 160 885 247 q 692 26 782 72 q 486 -19 601 -19 m 497 1267 l 710 1267 l 538 1047 l 403 1047 l 497 1267 z "},"Ŭ":{"ha":972,"x_min":88,"x_max":885,"o":"m 486 -19 q 281 26 371 -19 q 139 160 190 72 q 88 368 88 247 l 88 972 l 271 972 l 271 386 q 328 214 271 275 q 486 153 386 153 q 644 214 586 153 q 701 386 701 275 l 701 972 l 885 972 l 885 368 q 833 160 885 247 q 692 26 782 72 q 486 -19 601 -19 m 486 1067 q 372 1111 415 1067 q 328 1224 328 1156 l 433 1224 q 447 1181 433 1197 q 486 1164 461 1164 q 525 1181 511 1164 q 539 1224 539 1197 l 644 1224 q 601 1111 644 1156 q 486 1067 557 1067 z "},"Û":{"ha":972,"x_min":88,"x_max":885,"o":"m 486 -19 q 281 26 371 -19 q 139 160 190 72 q 88 368 88 247 l 88 972 l 271 972 l 271 386 q 328 214 271 275 q 486 153 386 153 q 644 214 586 153 q 701 386 701 275 l 701 972 l 885 972 l 885 368 q 833 160 885 247 q 692 26 782 72 q 486 -19 601 -19 m 424 1265 l 549 1265 l 706 1047 l 568 1047 l 486 1131 l 404 1047 l 267 1047 l 424 1265 z "},"Ü":{"ha":972,"x_min":88,"x_max":885,"o":"m 486 -19 q 281 26 371 -19 q 139 160 190 72 q 88 368 88 247 l 88 972 l 271 972 l 271 386 q 328 214 271 275 q 486 153 386 153 q 644 214 586 153 q 701 386 701 275 l 701 972 l 885 972 l 885 368 q 833 160 885 247 q 692 26 782 72 q 486 -19 601 -19 z "},"Ù":{"ha":972,"x_min":88,"x_max":885,"o":"m 486 -19 q 281 26 371 -19 q 139 160 190 72 q 88 368 88 247 l 88 972 l 271 972 l 271 386 q 328 214 271 275 q 486 153 386 153 q 644 214 586 153 q 701 386 701 275 l 701 972 l 885 972 l 885 368 q 833 160 885 247 q 692 26 782 72 q 486 -19 601 -19 m 263 1267 l 475 1267 l 569 1047 l 435 1047 l 263 1267 z "},"Ű":{"ha":972,"x_min":88,"x_max":885,"o":"m 486 -19 q 281 26 371 -19 q 139 160 190 72 q 88 368 88 247 l 88 972 l 271 972 l 271 386 q 328 214 271 275 q 486 153 386 153 q 644 214 586 153 q 701 386 701 275 l 701 972 l 885 972 l 885 368 q 833 160 885 247 q 692 26 782 72 q 486 -19 601 -19 m 356 1267 l 568 1267 l 396 1047 l 261 1047 l 356 1267 m 618 1267 l 831 1267 l 658 1047 l 524 1047 l 618 1267 z "},"Ū":{"ha":972,"x_min":88,"x_max":885,"o":"m 486 -19 q 281 26 371 -19 q 139 160 190 72 q 88 368 88 247 l 88 972 l 271 972 l 271 386 q 328 214 271 275 q 486 153 386 153 q 644 214 586 153 q 701 386 701 275 l 701 972 l 885 972 l 885 368 q 833 160 885 247 q 692 26 782 72 q 486 -19 601 -19 m 314 1231 l 658 1231 l 658 1100 l 314 1100 l 314 1231 z "},"Ų":{"ha":972,"x_min":88,"x_max":885,"o":"m 885 972 l 885 368 q 815 131 885 226 q 624 0 744 36 q 552 -53 579 -25 q 525 -108 525 -81 q 541 -147 525 -133 q 582 -161 557 -161 q 613 -158 594 -161 l 628 -265 q 544 -275 592 -275 q 434 -240 482 -275 q 386 -144 386 -206 q 446 -18 386 -75 q 260 38 342 -10 q 133 169 179 85 q 88 368 88 254 l 88 972 l 271 972 l 271 386 q 328 214 271 275 q 486 153 386 153 q 644 214 586 153 q 701 386 701 275 l 701 972 l 885 972 z "},"Ů":{"ha":972,"x_min":88,"x_max":885,"o":"m 486 -19 q 281 26 371 -19 q 139 160 190 72 q 88 368 88 247 l 88 972 l 271 972 l 271 386 q 328 214 271 275 q 486 153 386 153 q 644 214 586 153 q 701 386 701 275 l 701 972 l 885 972 l 885 368 q 833 160 885 247 q 692 26 782 72 q 486 -19 601 -19 m 488 1033 q 393 1072 432 1033 q 354 1165 354 1110 q 393 1259 354 1221 q 488 1297 432 1297 q 582 1259 543 1297 q 621 1165 621 1221 q 582 1072 621 1110 q 488 1033 543 1033 m 488 1118 q 521 1131 508 1118 q 533 1165 533 1143 q 521 1200 533 1188 q 488 1213 508 1213 q 454 1200 467 1213 q 442 1165 442 1188 q 454 1131 442 1143 q 488 1118 467 1118 z "},"Ũ":{"ha":972,"x_min":88,"x_max":885,"o":"m 486 -19 q 281 26 371 -19 q 139 160 190 72 q 88 368 88 247 l 88 972 l 271 972 l 271 386 q 328 214 271 275 q 486 153 386 153 q 644 214 586 153 q 701 386 701 275 l 701 972 l 885 972 l 885 368 q 833 160 885 247 q 692 26 782 72 q 486 -19 601 -19 m 596 1047 q 515 1063 546 1047 q 450 1106 485 1078 q 416 1131 431 1122 q 385 1139 401 1139 q 362 1131 371 1139 q 353 1108 353 1122 q 363 1072 353 1092 l 260 1051 q 246 1085 251 1064 q 240 1125 240 1106 q 282 1218 240 1185 q 376 1251 324 1251 q 457 1236 426 1251 q 522 1193 488 1221 q 556 1168 542 1176 q 588 1160 571 1160 q 610 1168 601 1160 q 619 1190 619 1176 q 610 1226 619 1207 l 713 1247 q 726 1214 721 1235 q 732 1174 732 1193 q 690 1081 732 1114 q 596 1047 649 1047 z "},"V":{"ha":914,"x_min":3,"x_max":911,"o":"m 201 972 l 421 351 l 457 228 l 493 351 l 713 972 l 911 972 l 550 0 l 364 0 l 3 972 l 201 972 z "},"W":{"ha":1308,"x_min":7,"x_max":1301,"o":"m 7 972 l 200 972 l 354 358 l 378 253 l 401 360 l 560 972 l 749 972 l 907 360 l 931 253 l 954 358 l 1108 972 l 1301 972 l 1033 0 l 836 0 l 654 706 l 472 0 l 275 0 l 7 972 z "},"Ẃ":{"ha":1308,"x_min":7,"x_max":1301,"o":"m 7 972 l 200 972 l 354 358 l 378 253 l 401 360 l 560 972 l 749 972 l 907 360 l 931 253 l 954 358 l 1108 972 l 1301 972 l 1033 0 l 836 0 l 654 706 l 472 0 l 275 0 l 7 972 m 665 1267 l 878 1267 l 706 1047 l 571 1047 l 665 1267 z "},"Ŵ":{"ha":1308,"x_min":7,"x_max":1301,"o":"m 7 972 l 200 972 l 354 358 l 378 253 l 401 360 l 560 972 l 749 972 l 907 360 l 931 253 l 954 358 l 1108 972 l 1301 972 l 1033 0 l 836 0 l 654 706 l 472 0 l 275 0 l 7 972 m 592 1265 l 717 1265 l 874 1047 l 736 1047 l 654 1131 l 572 1047 l 435 1047 l 592 1265 z "},"Ẅ":{"ha":1308,"x_min":7,"x_max":1301,"o":"m 7 972 l 200 972 l 354 358 l 378 253 l 401 360 l 560 972 l 749 972 l 907 360 l 931 253 l 954 358 l 1108 972 l 1301 972 l 1033 0 l 836 0 l 654 706 l 472 0 l 275 0 l 7 972 z "},"Ẁ":{"ha":1308,"x_min":7,"x_max":1301,"o":"m 7 972 l 200 972 l 354 358 l 378 253 l 401 360 l 560 972 l 749 972 l 907 360 l 931 253 l 954 358 l 1108 972 l 1301 972 l 1033 0 l 836 0 l 654 706 l 472 0 l 275 0 l 7 972 m 431 1267 l 643 1267 l 738 1047 l 603 1047 l 431 1267 z "},"X":{"ha":857,"x_min":4,"x_max":851,"o":"m 329 522 l 47 972 l 243 972 l 428 664 l 622 972 l 808 972 l 531 529 l 851 0 l 656 0 l 428 375 l 201 0 l 4 0 l 329 522 z "},"Y":{"ha":836,"x_min":6,"x_max":831,"o":"m 326 381 l 6 972 l 207 972 l 388 626 q 418 556 404 593 q 449 626 432 593 l 629 972 l 831 972 l 510 381 l 510 0 l 326 0 l 326 381 z "},"Ý":{"ha":836,"x_min":6,"x_max":831,"o":"m 326 381 l 6 972 l 207 972 l 388 626 q 418 556 404 593 q 449 626 432 593 l 629 972 l 831 972 l 510 381 l 510 0 l 326 0 l 326 381 m 429 1267 l 642 1267 l 469 1047 l 335 1047 l 429 1267 z "},"Ŷ":{"ha":836,"x_min":6,"x_max":831,"o":"m 326 381 l 6 972 l 207 972 l 388 626 q 418 556 404 593 q 449 626 432 593 l 629 972 l 831 972 l 510 381 l 510 0 l 326 0 l 326 381 m 356 1265 l 481 1265 l 638 1047 l 500 1047 l 418 1131 l 336 1047 l 199 1047 l 356 1265 z "},"Ÿ":{"ha":836,"x_min":6,"x_max":831,"o":"m 326 381 l 6 972 l 207 972 l 388 626 q 418 556 404 593 q 449 626 432 593 l 629 972 l 831 972 l 510 381 l 510 0 l 326 0 l 326 381 z "},"Ỳ":{"ha":836,"x_min":6,"x_max":831,"o":"m 326 381 l 6 972 l 207 972 l 388 626 q 418 556 404 593 q 449 626 432 593 l 629 972 l 831 972 l 510 381 l 510 0 l 326 0 l 326 381 m 194 1267 l 407 1267 l 501 1047 l 367 1047 l 194 1267 z "},"Z":{"ha":853,"x_min":49,"x_max":801,"o":"m 49 167 l 558 800 l 67 800 l 67 972 l 778 972 l 778 803 l 272 172 l 801 172 l 801 0 l 49 0 l 49 167 z "},"Ź":{"ha":853,"x_min":49,"x_max":801,"o":"m 49 167 l 558 800 l 67 800 l 67 972 l 778 972 l 778 803 l 272 172 l 801 172 l 801 0 l 49 0 l 49 167 m 440 1267 l 653 1267 l 481 1047 l 346 1047 l 440 1267 z "},"Ž":{"ha":853,"x_min":49,"x_max":801,"o":"m 49 167 l 558 800 l 67 800 l 67 972 l 778 972 l 778 803 l 272 172 l 801 172 l 801 0 l 49 0 l 49 167 m 210 1265 l 347 1265 l 429 1182 l 511 1265 l 649 1265 l 492 1047 l 367 1047 l 210 1265 z "},"Ż":{"ha":853,"x_min":49,"x_max":801,"o":"m 49 167 l 558 800 l 67 800 l 67 972 l 778 972 l 778 803 l 272 172 l 801 172 l 801 0 l 49 0 l 49 167 z "},"Ƶ":{"ha":853,"x_min":49,"x_max":801,"o":"m 778 972 l 778 803 l 581 557 l 757 557 l 757 426 l 475 426 l 269 169 l 801 169 l 801 0 l 49 0 l 49 167 l 257 426 l 88 426 l 88 557 l 363 557 l 560 803 l 67 803 l 67 972 l 778 972 z "},"a":{"ha":788,"x_min":60,"x_max":733,"o":"m 688 171 q 698 75 688 113 q 733 0 708 38 l 556 0 q 532 45 543 17 q 522 114 521 74 q 437 14 494 47 q 301 -19 379 -19 q 125 39 190 -19 q 60 196 60 97 q 128 351 60 294 q 306 424 197 407 l 513 456 l 513 474 q 482 552 513 525 q 394 579 451 579 q 301 548 342 579 q 235 463 260 517 l 94 526 q 394 708 179 708 q 688 458 688 708 l 688 171 m 333 122 q 463 174 413 122 q 513 322 513 226 l 513 335 l 346 307 q 231 206 231 288 q 258 144 231 165 q 333 122 286 122 z "},"á":{"ha":788,"x_min":60,"x_max":733,"o":"m 688 171 q 698 75 688 113 q 733 0 708 38 l 556 0 q 532 45 543 17 q 522 114 521 74 q 437 14 494 47 q 301 -19 379 -19 q 125 39 190 -19 q 60 196 60 97 q 128 351 60 294 q 306 424 197 407 l 513 456 l 513 474 q 482 552 513 525 q 394 579 451 579 q 301 548 342 579 q 235 463 260 517 l 94 526 q 394 708 179 708 q 688 458 688 708 l 688 171 m 333 122 q 463 174 413 122 q 513 322 513 226 l 513 335 l 346 307 q 231 206 231 288 q 258 144 231 165 q 333 122 286 122 m 396 983 l 608 983 l 436 764 l 301 764 l 396 983 z "},"ă":{"ha":788,"x_min":60,"x_max":733,"o":"m 688 171 q 698 75 688 113 q 733 0 708 38 l 556 0 q 532 45 543 17 q 522 114 521 74 q 437 14 494 47 q 301 -19 379 -19 q 125 39 190 -19 q 60 196 60 97 q 128 351 60 294 q 306 424 197 407 l 513 456 l 513 474 q 482 552 513 525 q 394 579 451 579 q 301 548 342 579 q 235 463 260 517 l 94 526 q 394 708 179 708 q 688 458 688 708 l 688 171 m 333 122 q 463 174 413 122 q 513 322 513 226 l 513 335 l 346 307 q 231 206 231 288 q 258 144 231 165 q 333 122 286 122 m 386 783 q 272 828 315 783 q 228 940 228 872 l 333 940 q 347 897 333 914 q 386 881 361 881 q 425 897 411 881 q 439 940 439 914 l 544 940 q 501 828 544 872 q 386 783 457 783 z "},"â":{"ha":788,"x_min":60,"x_max":733,"o":"m 688 171 q 698 75 688 113 q 733 0 708 38 l 556 0 q 532 45 543 17 q 522 114 521 74 q 437 14 494 47 q 301 -19 379 -19 q 125 39 190 -19 q 60 196 60 97 q 128 351 60 294 q 306 424 197 407 l 513 456 l 513 474 q 482 552 513 525 q 394 579 451 579 q 301 548 342 579 q 235 463 260 517 l 94 526 q 394 708 179 708 q 688 458 688 708 l 688 171 m 333 122 q 463 174 413 122 q 513 322 513 226 l 513 335 l 346 307 q 231 206 231 288 q 258 144 231 165 q 333 122 286 122 m 324 982 l 449 982 l 606 764 l 468 764 l 386 847 l 304 764 l 167 764 l 324 982 z "},"ä":{"ha":788,"x_min":60,"x_max":733,"o":"m 688 171 q 698 75 688 113 q 733 0 708 38 l 556 0 q 532 45 543 17 q 522 114 521 74 q 437 14 494 47 q 301 -19 379 -19 q 125 39 190 -19 q 60 196 60 97 q 128 351 60 294 q 306 424 197 407 l 513 456 l 513 474 q 482 552 513 525 q 394 579 451 579 q 301 548 342 579 q 235 463 260 517 l 94 526 q 394 708 179 708 q 688 458 688 708 l 688 171 m 333 122 q 463 174 413 122 q 513 322 513 226 l 513 335 l 346 307 q 231 206 231 288 q 258 144 231 165 q 333 122 286 122 z "},"à":{"ha":788,"x_min":60,"x_max":733,"o":"m 688 171 q 698 75 688 113 q 733 0 708 38 l 556 0 q 532 45 543 17 q 522 114 521 74 q 437 14 494 47 q 301 -19 379 -19 q 125 39 190 -19 q 60 196 60 97 q 128 351 60 294 q 306 424 197 407 l 513 456 l 513 474 q 482 552 513 525 q 394 579 451 579 q 301 548 342 579 q 235 463 260 517 l 94 526 q 394 708 179 708 q 688 458 688 708 l 688 171 m 333 122 q 463 174 413 122 q 513 322 513 226 l 513 335 l 346 307 q 231 206 231 288 q 258 144 231 165 q 333 122 286 122 m 172 983 l 385 983 l 479 764 l 344 764 l 172 983 z "},"ā":{"ha":788,"x_min":60,"x_max":733,"o":"m 688 171 q 698 75 688 113 q 733 0 708 38 l 556 0 q 532 45 543 17 q 522 114 521 74 q 437 14 494 47 q 301 -19 379 -19 q 125 39 190 -19 q 60 196 60 97 q 128 351 60 294 q 306 424 197 407 l 513 456 l 513 474 q 482 552 513 525 q 394 579 451 579 q 301 548 342 579 q 235 463 260 517 l 94 526 q 394 708 179 708 q 688 458 688 708 l 688 171 m 333 122 q 463 174 413 122 q 513 322 513 226 l 513 335 l 346 307 q 231 206 231 288 q 258 144 231 165 q 333 122 286 122 m 214 947 l 558 947 l 558 817 l 214 817 l 214 947 z "},"ą":{"ha":788,"x_min":60,"x_max":736,"o":"m 736 -265 q 653 -275 700 -275 q 542 -240 590 -275 q 494 -144 494 -206 q 576 0 494 -60 l 556 0 q 532 45 543 17 q 522 114 521 74 q 437 14 494 47 q 301 -19 379 -19 q 125 39 190 -19 q 60 196 60 97 q 128 351 60 294 q 306 424 197 407 l 513 456 l 513 474 q 482 552 513 525 q 394 579 451 579 q 301 548 342 579 q 235 463 260 517 l 94 526 q 394 708 179 708 q 688 458 688 708 l 688 171 q 698 75 688 113 q 733 0 708 38 q 661 -53 689 -25 q 633 -108 633 -81 q 649 -147 633 -133 q 690 -161 665 -161 q 721 -158 703 -161 l 736 -265 m 333 122 q 463 174 413 122 q 513 322 513 226 l 513 335 l 346 307 q 231 206 231 288 q 258 144 231 165 q 333 122 286 122 z "},"å":{"ha":788,"x_min":60,"x_max":733,"o":"m 688 171 q 698 75 688 113 q 733 0 708 38 l 556 0 q 532 45 543 17 q 522 114 521 74 q 437 14 494 47 q 301 -19 379 -19 q 125 39 190 -19 q 60 196 60 97 q 128 351 60 294 q 306 424 197 407 l 513 456 l 513 474 q 482 552 513 525 q 394 579 451 579 q 301 548 342 579 q 235 463 260 517 l 94 526 q 394 708 179 708 q 688 458 688 708 l 688 171 m 333 122 q 463 174 413 122 q 513 322 513 226 l 513 335 l 346 307 q 231 206 231 288 q 258 144 231 165 q 333 122 286 122 m 388 750 q 293 788 332 750 q 254 882 254 826 q 293 976 254 938 q 388 1014 332 1014 q 482 976 443 1014 q 521 882 521 938 q 482 788 521 826 q 388 750 443 750 m 388 835 q 421 847 408 835 q 433 882 433 860 q 421 917 433 904 q 388 929 408 929 q 354 917 367 929 q 342 882 342 904 q 354 847 342 860 q 388 835 367 835 z "},"ã":{"ha":788,"x_min":60,"x_max":733,"o":"m 688 171 q 698 75 688 113 q 733 0 708 38 l 556 0 q 532 45 543 17 q 522 114 521 74 q 437 14 494 47 q 301 -19 379 -19 q 125 39 190 -19 q 60 196 60 97 q 128 351 60 294 q 306 424 197 407 l 513 456 l 513 474 q 482 552 513 525 q 394 579 451 579 q 301 548 342 579 q 235 463 260 517 l 94 526 q 394 708 179 708 q 688 458 688 708 l 688 171 m 333 122 q 463 174 413 122 q 513 322 513 226 l 513 335 l 346 307 q 231 206 231 288 q 258 144 231 165 q 333 122 286 122 m 496 764 q 415 779 446 764 q 350 822 385 794 q 316 847 331 839 q 285 856 301 856 q 262 847 271 856 q 253 825 253 839 q 263 789 253 808 l 160 768 q 146 801 151 781 q 140 842 140 822 q 182 935 140 901 q 276 968 224 968 q 357 953 326 968 q 422 910 388 938 q 456 885 442 893 q 488 876 471 876 q 510 885 501 876 q 519 907 519 893 q 510 943 519 924 l 613 964 q 626 931 621 951 q 632 890 632 910 q 590 797 632 831 q 496 764 549 764 z "},"æ":{"ha":1240,"x_min":60,"x_max":1189,"o":"m 321 -19 q 131 40 201 -19 q 60 200 60 99 q 135 369 60 310 q 354 428 210 428 l 513 428 l 513 454 q 481 545 513 511 q 390 579 449 579 q 297 548 338 579 q 235 463 256 517 l 94 526 q 199 663 126 618 q 390 708 272 708 q 617 622 544 708 q 726 686 660 664 q 863 708 792 708 q 1038 665 964 708 q 1151 543 1113 621 q 1189 364 1189 465 l 1189 297 l 688 297 q 744 172 693 219 q 875 125 796 125 q 1056 225 999 125 l 1175 131 q 1057 21 1133 61 q 872 -19 981 -19 q 696 21 774 -19 q 572 136 618 61 q 478 22 543 63 q 321 -19 414 -19 m 1024 428 q 972 531 1015 493 q 863 569 928 569 q 749 531 792 569 q 693 428 706 493 l 1024 428 m 340 122 q 458 168 410 122 q 511 299 506 214 l 354 299 q 262 276 293 299 q 231 210 231 253 q 260 146 231 169 q 340 122 290 122 z "},"ǽ":{"ha":1240,"x_min":60,"x_max":1189,"o":"m 321 -19 q 131 40 201 -19 q 60 200 60 99 q 135 369 60 310 q 354 428 210 428 l 513 428 l 513 454 q 481 545 513 511 q 390 579 449 579 q 297 548 338 579 q 235 463 256 517 l 94 526 q 199 663 126 618 q 390 708 272 708 q 617 622 544 708 q 726 686 660 664 q 863 708 792 708 q 1038 665 964 708 q 1151 543 1113 621 q 1189 364 1189 465 l 1189 297 l 688 297 q 744 172 693 219 q 875 125 796 125 q 1056 225 999 125 l 1175 131 q 1057 21 1133 61 q 872 -19 981 -19 q 696 21 774 -19 q 572 136 618 61 q 478 22 543 63 q 321 -19 414 -19 m 1024 428 q 972 531 1015 493 q 863 569 928 569 q 749 531 792 569 q 693 428 706 493 l 1024 428 m 340 122 q 458 168 410 122 q 511 299 506 214 l 354 299 q 262 276 293 299 q 231 210 231 253 q 260 146 231 169 q 340 122 290 122 m 622 983 l 835 983 l 663 764 l 528 764 l 622 983 z "},"b":{"ha":867,"x_min":88,"x_max":818,"o":"m 482 -19 q 356 10 413 -19 q 263 92 299 39 l 263 0 l 88 0 l 88 972 l 263 972 l 263 597 q 356 679 299 650 q 482 708 413 708 q 657 663 581 708 q 776 535 733 617 q 818 344 818 453 q 776 154 818 236 q 657 26 733 72 q 482 -19 581 -19 m 446 136 q 587 194 533 136 q 640 344 640 251 q 587 495 640 438 q 446 553 533 553 q 305 496 358 553 q 251 344 251 439 q 305 194 251 251 q 446 136 358 136 z "},"c":{"ha":751,"x_min":49,"x_max":722,"o":"m 403 -19 q 221 26 301 -19 q 94 153 140 71 q 49 344 49 236 q 96 534 49 451 q 224 663 143 617 q 403 708 306 708 q 714 536 622 708 l 575 440 q 506 526 546 499 q 410 553 467 553 q 317 526 358 553 q 251 452 275 500 q 226 344 226 404 q 278 192 226 247 q 410 136 329 136 q 510 163 472 136 q 588 256 549 190 l 722 163 q 592 28 672 75 q 403 -19 511 -19 z "},"ć":{"ha":751,"x_min":49,"x_max":722,"o":"m 403 -19 q 221 26 301 -19 q 94 153 140 71 q 49 344 49 236 q 96 534 49 451 q 224 663 143 617 q 403 708 306 708 q 714 536 622 708 l 575 440 q 506 526 546 499 q 410 553 467 553 q 317 526 358 553 q 251 452 275 500 q 226 344 226 404 q 278 192 226 247 q 410 136 329 136 q 510 163 472 136 q 588 256 549 190 l 722 163 q 592 28 672 75 q 403 -19 511 -19 m 421 983 l 633 983 l 461 764 l 326 764 l 421 983 z "},"č":{"ha":751,"x_min":49,"x_max":722,"o":"m 403 -19 q 221 26 301 -19 q 94 153 140 71 q 49 344 49 236 q 96 534 49 451 q 224 663 143 617 q 403 708 306 708 q 714 536 622 708 l 575 440 q 506 526 546 499 q 410 553 467 553 q 317 526 358 553 q 251 452 275 500 q 226 344 226 404 q 278 192 226 247 q 410 136 329 136 q 510 163 472 136 q 588 256 549 190 l 722 163 q 592 28 672 75 q 403 -19 511 -19 m 192 982 l 329 982 l 411 899 l 493 982 l 631 982 l 474 764 l 349 764 l 192 982 z "},"ç":{"ha":751,"x_min":49,"x_max":722,"o":"m 722 163 q 592 28 672 75 q 403 -19 511 -19 l 371 -74 q 426 -61 394 -61 q 505 -92 475 -61 q 535 -169 535 -122 q 497 -253 535 -222 q 403 -283 458 -283 q 316 -261 350 -283 q 272 -199 282 -239 l 364 -175 q 403 -206 369 -206 q 428 -197 418 -206 q 438 -171 438 -187 q 427 -141 438 -151 q 399 -131 417 -131 q 365 -137 379 -131 q 336 -156 351 -143 l 285 -110 l 319 -11 q 123 110 197 15 q 49 344 49 206 q 96 534 49 451 q 224 663 143 617 q 403 708 306 708 q 714 536 622 708 l 575 440 q 506 526 546 499 q 410 553 467 553 q 317 526 358 553 q 251 452 275 500 q 226 344 226 404 q 278 192 226 247 q 410 136 329 136 q 510 163 472 136 q 588 256 549 190 l 722 163 z "},"ĉ":{"ha":751,"x_min":49,"x_max":722,"o":"m 403 -19 q 221 26 301 -19 q 94 153 140 71 q 49 344 49 236 q 96 534 49 451 q 224 663 143 617 q 403 708 306 708 q 714 536 622 708 l 575 440 q 506 526 546 499 q 410 553 467 553 q 317 526 358 553 q 251 452 275 500 q 226 344 226 404 q 278 192 226 247 q 410 136 329 136 q 510 163 472 136 q 588 256 549 190 l 722 163 q 592 28 672 75 q 403 -19 511 -19 m 349 982 l 474 982 l 631 764 l 493 764 l 411 847 l 329 764 l 192 764 l 349 982 z "},"ċ":{"ha":751,"x_min":49,"x_max":722,"o":"m 403 -19 q 221 26 301 -19 q 94 153 140 71 q 49 344 49 236 q 96 534 49 451 q 224 663 143 617 q 403 708 306 708 q 714 536 622 708 l 575 440 q 506 526 546 499 q 410 553 467 553 q 317 526 358 553 q 251 452 275 500 q 226 344 226 404 q 278 192 226 247 q 410 136 329 136 q 510 163 472 136 q 588 256 549 190 l 722 163 q 592 28 672 75 q 403 -19 511 -19 z "},"d":{"ha":867,"x_min":49,"x_max":779,"o":"m 385 -19 q 210 26 286 -19 q 91 154 133 72 q 49 344 49 236 q 91 535 49 453 q 210 663 133 617 q 385 708 286 708 q 511 679 454 708 q 604 597 568 650 l 604 972 l 779 972 l 779 0 l 604 0 l 604 92 q 511 10 568 39 q 385 -19 454 -19 m 421 136 q 562 194 508 136 q 615 344 615 251 q 562 496 615 439 q 421 553 508 553 q 280 496 333 553 q 226 344 226 439 q 280 193 226 250 q 421 136 333 136 z "},"ð":{"ha":819,"x_min":57,"x_max":763,"o":"m 407 -19 q 224 24 304 -19 q 101 142 144 67 q 57 315 57 218 q 101 484 57 410 q 222 600 146 558 q 389 642 299 642 q 582 568 517 642 q 460 744 543 667 l 315 689 l 272 804 l 346 832 q 197 911 274 879 l 278 1042 q 515 899 414 981 l 663 956 l 707 840 l 614 804 q 763 393 763 628 q 669 92 763 203 q 407 -19 575 -19 m 411 128 q 501 150 460 128 q 568 214 543 172 q 593 311 593 256 q 568 408 593 367 q 501 472 543 450 q 411 494 460 494 q 321 472 363 494 q 254 408 279 450 q 229 311 229 367 q 254 214 229 256 q 321 150 279 172 q 411 128 363 128 z "},"ď":{"ha":1081,"x_min":49,"x_max":1081,"o":"m 385 -19 q 210 26 286 -19 q 91 154 133 72 q 49 344 49 236 q 91 535 49 453 q 210 663 133 617 q 385 708 286 708 q 511 679 454 708 q 604 597 568 650 l 604 972 l 779 972 l 779 0 l 604 0 l 604 92 q 511 10 568 39 q 385 -19 454 -19 m 421 136 q 562 194 508 136 q 615 344 615 251 q 562 496 615 439 q 421 553 508 553 q 280 496 333 553 q 226 344 226 439 q 280 193 226 250 q 421 136 333 136 m 867 719 l 896 972 l 1081 972 l 963 719 l 867 719 z "},"đ":{"ha":867,"x_min":49,"x_max":854,"o":"m 854 767 l 779 767 l 779 0 l 604 0 l 604 92 q 511 10 568 39 q 385 -19 454 -19 q 210 26 286 -19 q 91 154 133 72 q 49 344 49 236 q 91 535 49 453 q 210 663 133 617 q 385 708 286 708 q 511 679 454 708 q 604 597 568 650 l 604 767 l 371 767 l 371 900 l 604 900 l 604 972 l 779 972 l 779 900 l 854 900 l 854 767 m 421 136 q 562 194 508 136 q 615 344 615 251 q 562 496 615 439 q 421 553 508 553 q 280 496 333 553 q 226 344 226 439 q 280 193 226 250 q 421 136 333 136 z "},"e":{"ha":771,"x_min":49,"x_max":719,"o":"m 719 297 l 218 297 q 275 172 224 219 q 406 125 326 125 q 586 225 529 125 l 706 131 q 588 21 664 61 q 403 -19 511 -19 q 217 26 297 -19 q 93 153 138 71 q 49 344 49 236 q 92 538 49 456 q 214 664 135 619 q 399 708 293 708 q 571 665 499 708 q 681 543 643 621 q 719 364 719 465 l 719 297 m 393 569 q 279 531 322 569 q 224 428 236 493 l 554 428 q 502 531 546 493 q 393 569 458 569 z "},"é":{"ha":771,"x_min":49,"x_max":719,"o":"m 719 297 l 218 297 q 275 172 224 219 q 406 125 326 125 q 586 225 529 125 l 706 131 q 588 21 664 61 q 403 -19 511 -19 q 217 26 297 -19 q 93 153 138 71 q 49 344 49 236 q 92 538 49 456 q 214 664 135 619 q 399 708 293 708 q 571 665 499 708 q 681 543 643 621 q 719 364 719 465 l 719 297 m 393 569 q 279 531 322 569 q 224 428 236 493 l 554 428 q 502 531 546 493 q 393 569 458 569 m 421 983 l 633 983 l 461 764 l 326 764 l 421 983 z "},"ĕ":{"ha":771,"x_min":49,"x_max":719,"o":"m 719 297 l 218 297 q 275 172 224 219 q 406 125 326 125 q 586 225 529 125 l 706 131 q 588 21 664 61 q 403 -19 511 -19 q 217 26 297 -19 q 93 153 138 71 q 49 344 49 236 q 92 538 49 456 q 214 664 135 619 q 399 708 293 708 q 571 665 499 708 q 681 543 643 621 q 719 364 719 465 l 719 297 m 393 569 q 279 531 322 569 q 224 428 236 493 l 554 428 q 502 531 546 493 q 393 569 458 569 m 411 783 q 297 828 340 783 q 253 940 253 872 l 358 940 q 372 897 358 914 q 411 881 386 881 q 450 897 436 881 q 464 940 464 914 l 569 940 q 526 828 569 872 q 411 783 482 783 z "},"ě":{"ha":771,"x_min":49,"x_max":719,"o":"m 719 297 l 218 297 q 275 172 224 219 q 406 125 326 125 q 586 225 529 125 l 706 131 q 588 21 664 61 q 403 -19 511 -19 q 217 26 297 -19 q 93 153 138 71 q 49 344 49 236 q 92 538 49 456 q 214 664 135 619 q 399 708 293 708 q 571 665 499 708 q 681 543 643 621 q 719 364 719 465 l 719 297 m 393 569 q 279 531 322 569 q 224 428 236 493 l 554 428 q 502 531 546 493 q 393 569 458 569 m 192 982 l 329 982 l 411 899 l 493 982 l 631 982 l 474 764 l 349 764 l 192 982 z "},"ê":{"ha":771,"x_min":49,"x_max":719,"o":"m 719 297 l 218 297 q 275 172 224 219 q 406 125 326 125 q 586 225 529 125 l 706 131 q 588 21 664 61 q 403 -19 511 -19 q 217 26 297 -19 q 93 153 138 71 q 49 344 49 236 q 92 538 49 456 q 214 664 135 619 q 399 708 293 708 q 571 665 499 708 q 681 543 643 621 q 719 364 719 465 l 719 297 m 393 569 q 279 531 322 569 q 224 428 236 493 l 554 428 q 502 531 546 493 q 393 569 458 569 m 349 982 l 474 982 l 631 764 l 493 764 l 411 847 l 329 764 l 192 764 l 349 982 z "},"ë":{"ha":771,"x_min":49,"x_max":719,"o":"m 719 297 l 218 297 q 275 172 224 219 q 406 125 326 125 q 586 225 529 125 l 706 131 q 588 21 664 61 q 403 -19 511 -19 q 217 26 297 -19 q 93 153 138 71 q 49 344 49 236 q 92 538 49 456 q 214 664 135 619 q 399 708 293 708 q 571 665 499 708 q 681 543 643 621 q 719 364 719 465 l 719 297 m 393 569 q 279 531 322 569 q 224 428 236 493 l 554 428 q 502 531 546 493 q 393 569 458 569 z "},"ė":{"ha":771,"x_min":49,"x_max":719,"o":"m 719 297 l 218 297 q 275 172 224 219 q 406 125 326 125 q 586 225 529 125 l 706 131 q 588 21 664 61 q 403 -19 511 -19 q 217 26 297 -19 q 93 153 138 71 q 49 344 49 236 q 92 538 49 456 q 214 664 135 619 q 399 708 293 708 q 571 665 499 708 q 681 543 643 621 q 719 364 719 465 l 719 297 m 393 569 q 279 531 322 569 q 224 428 236 493 l 554 428 q 502 531 546 493 q 393 569 458 569 z "},"è":{"ha":771,"x_min":49,"x_max":719,"o":"m 719 297 l 218 297 q 275 172 224 219 q 406 125 326 125 q 586 225 529 125 l 706 131 q 588 21 664 61 q 403 -19 511 -19 q 217 26 297 -19 q 93 153 138 71 q 49 344 49 236 q 92 538 49 456 q 214 664 135 619 q 399 708 293 708 q 571 665 499 708 q 681 543 643 621 q 719 364 719 465 l 719 297 m 393 569 q 279 531 322 569 q 224 428 236 493 l 554 428 q 502 531 546 493 q 393 569 458 569 m 197 983 l 410 983 l 504 764 l 369 764 l 197 983 z "},"ē":{"ha":771,"x_min":49,"x_max":719,"o":"m 719 297 l 218 297 q 275 172 224 219 q 406 125 326 125 q 586 225 529 125 l 706 131 q 588 21 664 61 q 403 -19 511 -19 q 217 26 297 -19 q 93 153 138 71 q 49 344 49 236 q 92 538 49 456 q 214 664 135 619 q 399 708 293 708 q 571 665 499 708 q 681 543 643 621 q 719 364 719 465 l 719 297 m 393 569 q 279 531 322 569 q 224 428 236 493 l 554 428 q 502 531 546 493 q 393 569 458 569 m 239 947 l 583 947 l 583 817 l 239 817 l 239 947 z "},"ę":{"ha":771,"x_min":49,"x_max":719,"o":"m 719 297 l 218 297 q 275 172 224 219 q 406 125 326 125 q 586 225 529 125 l 706 131 q 529 -3 647 33 q 460 -54 486 -26 q 433 -108 433 -82 q 449 -147 433 -133 q 490 -161 465 -161 q 521 -158 503 -161 l 536 -265 q 453 -275 500 -275 q 342 -240 390 -275 q 294 -144 294 -206 q 356 -17 294 -74 q 132 96 215 -1 q 49 344 49 193 q 92 538 49 456 q 214 664 135 619 q 399 708 293 708 q 571 665 499 708 q 681 543 643 621 q 719 364 719 465 l 719 297 m 393 569 q 279 531 322 569 q 224 428 236 493 l 554 428 q 502 531 546 493 q 393 569 458 569 z "},"f":{"ha":474,"x_min":26,"x_max":457,"o":"m 126 689 l 126 764 q 188 931 126 871 q 357 992 249 992 q 457 976 417 992 l 457 817 q 379 831 407 831 q 322 807 342 831 q 301 740 301 783 l 301 689 l 451 689 l 451 547 l 301 547 l 301 0 l 126 0 l 126 547 l 26 547 l 26 689 l 126 689 z "},"g":{"ha":832,"x_min":49,"x_max":754,"o":"m 754 47 q 662 -210 754 -117 q 410 -303 569 -303 q 197 -265 288 -303 q 58 -149 107 -228 l 181 -26 q 274 -122 218 -90 q 396 -153 331 -153 q 532 -105 483 -153 q 581 29 581 -57 l 581 118 q 492 39 547 67 q 371 11 438 11 q 202 54 275 11 q 89 176 129 97 q 49 360 49 256 q 90 542 49 463 q 204 665 131 621 q 371 708 278 708 q 492 681 438 708 q 581 601 547 653 l 581 690 l 753 690 l 754 47 m 406 167 q 540 221 489 167 q 592 360 592 275 q 540 499 592 444 q 406 553 489 553 q 276 499 326 553 q 226 360 226 444 q 276 221 226 275 q 406 167 326 167 z "},"ğ":{"ha":832,"x_min":49,"x_max":754,"o":"m 754 47 q 662 -210 754 -117 q 410 -303 569 -303 q 197 -265 288 -303 q 58 -149 107 -228 l 181 -26 q 274 -122 218 -90 q 396 -153 331 -153 q 532 -105 483 -153 q 581 29 581 -57 l 581 118 q 492 39 547 67 q 371 11 438 11 q 202 54 275 11 q 89 176 129 97 q 49 360 49 256 q 90 542 49 463 q 204 665 131 621 q 371 708 278 708 q 492 681 438 708 q 581 601 547 653 l 581 690 l 753 690 l 754 47 m 406 167 q 540 221 489 167 q 592 360 592 275 q 540 499 592 444 q 406 553 489 553 q 276 499 326 553 q 226 360 226 444 q 276 221 226 275 q 406 167 326 167 m 400 783 q 285 828 329 783 q 242 940 242 872 l 347 940 q 361 897 347 914 q 400 881 375 881 q 439 897 425 881 q 453 940 453 914 l 558 940 q 515 828 558 872 q 400 783 471 783 z "},"ĝ":{"ha":832,"x_min":49,"x_max":754,"o":"m 754 47 q 662 -210 754 -117 q 410 -303 569 -303 q 197 -265 288 -303 q 58 -149 107 -228 l 181 -26 q 274 -122 218 -90 q 396 -153 331 -153 q 532 -105 483 -153 q 581 29 581 -57 l 581 118 q 492 39 547 67 q 371 11 438 11 q 202 54 275 11 q 89 176 129 97 q 49 360 49 256 q 90 542 49 463 q 204 665 131 621 q 371 708 278 708 q 492 681 438 708 q 581 601 547 653 l 581 690 l 753 690 l 754 47 m 406 167 q 540 221 489 167 q 592 360 592 275 q 540 499 592 444 q 406 553 489 553 q 276 499 326 553 q 226 360 226 444 q 276 221 226 275 q 406 167 326 167 m 338 982 l 463 982 l 619 764 l 482 764 l 400 847 l 318 764 l 181 764 l 338 982 z "},"ģ":{"ha":832,"x_min":49,"x_max":754,"o":"m 754 47 q 662 -210 754 -117 q 410 -303 569 -303 q 197 -265 288 -303 q 58 -149 107 -228 l 181 -26 q 274 -122 218 -90 q 396 -153 331 -153 q 532 -105 483 -153 q 581 29 581 -57 l 581 118 q 492 39 547 67 q 371 11 438 11 q 202 54 275 11 q 89 176 129 97 q 49 360 49 256 q 90 542 49 463 q 204 665 131 621 q 371 708 278 708 q 492 681 438 708 q 581 601 547 653 l 581 690 l 753 690 l 754 47 m 406 167 q 540 221 489 167 q 592 360 592 275 q 540 499 592 444 q 406 553 489 553 q 276 499 326 553 q 226 360 226 444 q 276 221 226 275 q 406 167 326 167 m 507 1042 l 478 789 l 293 789 l 411 1042 l 507 1042 z "},"ġ":{"ha":832,"x_min":49,"x_max":754,"o":"m 754 47 q 662 -210 754 -117 q 410 -303 569 -303 q 197 -265 288 -303 q 58 -149 107 -228 l 181 -26 q 274 -122 218 -90 q 396 -153 331 -153 q 532 -105 483 -153 q 581 29 581 -57 l 581 118 q 492 39 547 67 q 371 11 438 11 q 202 54 275 11 q 89 176 129 97 q 49 360 49 256 q 90 542 49 463 q 204 665 131 621 q 371 708 278 708 q 492 681 438 708 q 581 601 547 653 l 581 690 l 753 690 l 754 47 m 406 167 q 540 221 489 167 q 592 360 592 275 q 540 499 592 444 q 406 553 489 553 q 276 499 326 553 q 226 360 226 444 q 276 221 226 275 q 406 167 326 167 z "},"h":{"ha":825,"x_min":88,"x_max":738,"o":"m 489 708 q 672 631 607 708 q 738 414 738 553 l 738 0 l 563 0 l 563 404 q 528 513 563 474 q 432 551 493 551 q 308 489 353 551 q 263 301 263 426 l 263 0 l 88 0 l 88 972 l 263 972 l 263 554 q 489 708 329 708 z "},"ħ":{"ha":825,"x_min":13,"x_max":738,"o":"m 489 708 q 672 631 607 708 q 738 414 738 553 l 738 0 l 563 0 l 563 404 q 528 513 563 474 q 432 551 493 551 q 308 489 353 551 q 263 301 263 426 l 263 0 l 88 0 l 88 767 l 13 767 l 13 900 l 88 900 l 88 972 l 263 972 l 263 900 l 496 900 l 496 767 l 263 767 l 263 554 q 489 708 329 708 z "},"ĥ":{"ha":825,"x_min":57,"x_max":738,"o":"m 489 708 q 672 631 607 708 q 738 414 738 553 l 738 0 l 563 0 l 563 404 q 528 513 563 474 q 432 551 493 551 q 308 489 353 551 q 263 301 263 426 l 263 0 l 88 0 l 88 972 l 263 972 l 263 554 q 489 708 329 708 m 214 1265 l 339 1265 l 496 1047 l 358 1047 l 276 1131 l 194 1047 l 57 1047 l 214 1265 z "},"i":{"ha":347,"x_min":60,"x_max":288,"o":"m 86 689 l 261 689 l 261 0 l 86 0 l 86 689 z "},"ı":{"ha":347,"x_min":86,"x_max":261,"o":"m 86 689 l 261 689 l 261 0 l 86 0 l 86 689 z "},"í":{"ha":347,"x_min":86,"x_max":396,"o":"m 86 689 l 261 689 l 261 0 l 86 0 l 86 689 m 183 983 l 396 983 l 224 764 l 89 764 l 183 983 z "},"ĭ":{"ha":347,"x_min":15,"x_max":332,"o":"m 86 689 l 261 689 l 261 0 l 86 0 l 86 689 m 174 783 q 59 828 103 783 q 15 940 15 872 l 121 940 q 135 897 121 914 q 174 881 149 881 q 213 897 199 881 q 226 940 226 914 l 332 940 q 288 828 332 872 q 174 783 244 783 z "},"î":{"ha":347,"x_min":-46,"x_max":393,"o":"m 86 689 l 261 689 l 261 0 l 86 0 l 86 689 m 111 982 l 236 982 l 393 764 l 256 764 l 174 847 l 92 764 l -46 764 l 111 982 z "},"ï":{"ha":347,"x_min":-51,"x_max":399,"o":"m 86 689 l 261 689 l 261 0 l 86 0 l 86 689 z "},"ì":{"ha":347,"x_min":-40,"x_max":267,"o":"m 86 689 l 261 689 l 261 0 l 86 0 l 86 689 m -40 983 l 172 983 l 267 764 l 132 764 l -40 983 z "},"ĳ":{"ha":679,"x_min":60,"x_max":619,"o":"m 86 689 l 261 689 l 261 0 l 86 0 l 86 689 z "},"ī":{"ha":347,"x_min":1,"x_max":346,"o":"m 86 689 l 261 689 l 261 0 l 86 0 l 86 689 m 1 947 l 346 947 l 346 817 l 1 817 l 1 947 z "},"į":{"ha":347,"x_min":24,"x_max":271,"o":"m 79 972 l 271 972 l 271 789 l 79 789 l 79 972 m 182 -275 q 72 -240 119 -275 q 24 -144 24 -206 q 106 0 24 -60 l 88 0 l 88 689 l 263 689 l 263 0 q 190 -53 218 -25 q 163 -108 163 -81 q 178 -147 163 -133 q 219 -161 194 -161 q 250 -158 232 -161 l 265 -265 q 182 -275 229 -275 z "},"ĩ":{"ha":347,"x_min":-72,"x_max":419,"o":"m 86 689 l 261 689 l 261 0 l 86 0 l 86 689 m 283 764 q 203 779 233 764 q 138 822 172 794 q 103 847 118 839 q 72 856 89 856 q 49 847 58 856 q 40 825 40 839 q 50 789 40 808 l -53 768 q -67 801 -61 781 q -72 842 -72 822 q -31 935 -72 901 q 64 968 11 968 q 144 953 114 968 q 210 910 175 938 q 244 885 229 893 q 275 876 258 876 q 298 885 289 876 q 307 907 307 893 q 297 943 307 924 l 400 964 q 414 931 408 951 q 419 890 419 910 q 378 797 419 831 q 283 764 336 764 z "},"j":{"ha":332,"x_min":-68,"x_max":272,"o":"m 21 -293 q -68 -279 -26 -293 l -68 -121 q -7 -132 -39 -132 q 52 -108 33 -132 q 71 -33 71 -85 l 71 689 l 246 689 l 246 -53 q 190 -231 246 -169 q 21 -293 133 -293 z "},"ȷ":{"ha":332,"x_min":-68,"x_max":246,"o":"m 21 -293 q -68 -279 -26 -293 l -68 -121 q -7 -132 -39 -132 q 52 -108 33 -132 q 71 -33 71 -85 l 71 689 l 246 689 l 246 -53 q 190 -231 246 -169 q 21 -293 133 -293 z "},"ĵ":{"ha":332,"x_min":-68,"x_max":378,"o":"m 21 -293 q -68 -279 -26 -293 l -68 -121 q -7 -132 -39 -132 q 52 -108 33 -132 q 71 -33 71 -85 l 71 689 l 246 689 l 246 -53 q 190 -231 246 -169 q 21 -293 133 -293 m 96 982 l 221 982 l 378 764 l 240 764 l 158 847 l 76 764 l -61 764 l 96 982 z "},"k":{"ha":751,"x_min":88,"x_max":722,"o":"m 88 972 l 263 972 l 263 481 l 472 689 l 689 689 l 438 443 l 722 0 l 521 0 l 315 322 l 263 271 l 263 0 l 88 0 l 88 972 z "},"ķ":{"ha":751,"x_min":88,"x_max":722,"o":"m 88 972 l 263 972 l 263 481 l 472 689 l 689 689 l 438 443 l 722 0 l 521 0 l 315 322 l 263 271 l 263 0 l 88 0 l 88 972 m 275 -335 l 304 -82 l 489 -82 l 371 -335 l 275 -335 z "},"ĸ":{"ha":751,"x_min":88,"x_max":722,"o":"m 88 689 l 263 689 l 263 469 l 472 689 l 689 689 l 431 425 l 722 0 l 521 0 l 310 301 l 263 253 l 263 0 l 88 0 l 88 689 z "},"l":{"ha":350,"x_min":88,"x_max":263,"o":"m 88 972 l 263 972 l 263 0 l 88 0 l 88 972 z "},"ĺ":{"ha":350,"x_min":88,"x_max":397,"o":"m 88 972 l 263 972 l 263 0 l 88 0 l 88 972 m 185 1267 l 397 1267 l 225 1047 l 90 1047 l 185 1267 z "},"ľ":{"ha":564,"x_min":88,"x_max":564,"o":"m 88 972 l 263 972 l 263 0 l 88 0 l 88 972 m 350 719 l 379 972 l 564 972 l 446 719 l 350 719 z "},"ļ":{"ha":350,"x_min":68,"x_max":282,"o":"m 88 972 l 263 972 l 263 0 l 88 0 l 88 972 m 68 -335 l 97 -82 l 282 -82 l 164 -335 l 68 -335 z "},"ŀ":{"ha":557,"x_min":88,"x_max":578,"o":"m 88 972 l 263 972 l 263 0 l 88 0 l 88 972 m 464 378 q 383 411 417 378 q 350 492 350 444 q 383 571 350 538 q 464 604 417 604 q 544 571 511 604 q 578 492 578 538 q 544 411 578 444 q 464 378 511 378 z "},"ł":{"ha":350,"x_min":-3,"x_max":353,"o":"m 353 522 l 263 465 l 263 0 l 88 0 l 88 353 l -3 296 l -3 449 l 88 506 l 88 972 l 263 972 l 263 618 l 353 675 l 353 522 z "},"m":{"ha":1183,"x_min":88,"x_max":1096,"o":"m 864 708 q 1033 644 971 708 q 1096 468 1096 581 l 1096 0 l 921 0 l 921 426 q 813 556 921 556 q 716 511 753 556 q 679 383 679 467 l 679 0 l 504 0 l 504 424 q 393 556 504 556 q 301 510 339 556 q 263 386 263 465 l 263 0 l 88 0 l 88 689 l 263 689 l 263 583 q 342 678 292 647 q 453 708 392 708 q 654 581 606 708 q 740 676 685 644 q 864 708 796 708 z "},"n":{"ha":825,"x_min":88,"x_max":738,"o":"m 489 708 q 672 631 607 708 q 738 414 738 553 l 738 0 l 563 0 l 563 404 q 528 513 563 474 q 432 551 493 551 q 308 489 353 551 q 263 301 263 426 l 263 0 l 88 0 l 88 689 l 263 689 l 263 554 q 489 708 329 708 z "},"ń":{"ha":825,"x_min":88,"x_max":738,"o":"m 489 708 q 672 631 607 708 q 738 414 738 553 l 738 0 l 563 0 l 563 404 q 528 513 563 474 q 432 551 493 551 q 308 489 353 551 q 263 301 263 426 l 263 0 l 88 0 l 88 689 l 263 689 l 263 554 q 489 708 329 708 m 422 983 l 635 983 l 463 764 l 328 764 l 422 983 z "},"ň":{"ha":825,"x_min":88,"x_max":738,"o":"m 489 708 q 672 631 607 708 q 738 414 738 553 l 738 0 l 563 0 l 563 404 q 528 513 563 474 q 432 551 493 551 q 308 489 353 551 q 263 301 263 426 l 263 0 l 88 0 l 88 689 l 263 689 l 263 554 q 489 708 329 708 m 193 982 l 331 982 l 413 899 l 494 982 l 632 982 l 475 764 l 350 764 l 193 982 z "},"ņ":{"ha":825,"x_min":88,"x_max":738,"o":"m 489 708 q 672 631 607 708 q 738 414 738 553 l 738 0 l 563 0 l 563 404 q 528 513 563 474 q 432 551 493 551 q 308 489 353 551 q 263 301 263 426 l 263 0 l 88 0 l 88 689 l 263 689 l 263 554 q 489 708 329 708 m 306 -335 l 335 -82 l 519 -82 l 401 -335 l 306 -335 z "},"ŋ":{"ha":825,"x_min":88,"x_max":738,"o":"m 489 708 q 672 631 607 708 q 738 414 738 553 l 738 -53 q 681 -231 738 -169 q 513 -293 625 -293 q 424 -279 465 -293 l 424 -121 q 485 -132 453 -132 q 544 -108 525 -132 q 563 -33 563 -85 l 563 404 q 528 513 563 474 q 432 551 493 551 q 308 489 353 551 q 263 301 263 426 l 263 0 l 88 0 l 88 689 l 263 689 l 263 554 q 489 708 329 708 z "},"ñ":{"ha":825,"x_min":88,"x_max":738,"o":"m 489 708 q 672 631 607 708 q 738 414 738 553 l 738 0 l 563 0 l 563 404 q 528 513 563 474 q 432 551 493 551 q 308 489 353 551 q 263 301 263 426 l 263 0 l 88 0 l 88 689 l 263 689 l 263 554 q 489 708 329 708 m 522 764 q 442 779 472 764 q 376 822 411 794 q 342 847 357 839 q 311 856 328 856 q 288 847 297 856 q 279 825 279 839 q 289 789 279 808 l 186 768 q 172 801 178 781 q 167 842 167 822 q 208 935 167 901 q 303 968 250 968 q 383 953 353 968 q 449 910 414 938 q 483 885 468 893 q 514 876 497 876 q 537 885 528 876 q 546 907 546 893 q 536 943 546 924 l 639 964 q 653 931 647 951 q 658 890 658 910 q 617 797 658 831 q 522 764 575 764 z "},"o":{"ha":850,"x_min":49,"x_max":801,"o":"m 425 -19 q 241 22 328 -19 q 101 147 154 64 q 49 344 49 229 q 101 542 49 460 q 241 667 154 625 q 425 708 328 708 q 609 667 522 708 q 749 542 696 625 q 801 344 801 460 q 749 147 801 229 q 609 22 696 64 q 425 -19 522 -19 m 425 136 q 523 160 478 136 q 596 232 568 185 q 624 344 624 279 q 596 457 624 410 q 523 528 568 504 q 425 553 478 553 q 327 528 372 553 q 254 457 282 504 q 226 344 226 410 q 254 232 226 279 q 327 160 282 185 q 425 136 372 136 z "},"ó":{"ha":850,"x_min":49,"x_max":801,"o":"m 425 -19 q 241 22 328 -19 q 101 147 154 64 q 49 344 49 229 q 101 542 49 460 q 241 667 154 625 q 425 708 328 708 q 609 667 522 708 q 749 542 696 625 q 801 344 801 460 q 749 147 801 229 q 609 22 696 64 q 425 -19 522 -19 m 425 136 q 523 160 478 136 q 596 232 568 185 q 624 344 624 279 q 596 457 624 410 q 523 528 568 504 q 425 553 478 553 q 327 528 372 553 q 254 457 282 504 q 226 344 226 410 q 254 232 226 279 q 327 160 282 185 q 425 136 372 136 m 435 983 l 647 983 l 475 764 l 340 764 l 435 983 z "},"ŏ":{"ha":850,"x_min":49,"x_max":801,"o":"m 425 -19 q 241 22 328 -19 q 101 147 154 64 q 49 344 49 229 q 101 542 49 460 q 241 667 154 625 q 425 708 328 708 q 609 667 522 708 q 749 542 696 625 q 801 344 801 460 q 749 147 801 229 q 609 22 696 64 q 425 -19 522 -19 m 425 136 q 523 160 478 136 q 596 232 568 185 q 624 344 624 279 q 596 457 624 410 q 523 528 568 504 q 425 553 478 553 q 327 528 372 553 q 254 457 282 504 q 226 344 226 410 q 254 232 226 279 q 327 160 282 185 q 425 136 372 136 m 425 783 q 310 828 354 783 q 267 940 267 872 l 372 940 q 386 897 372 914 q 425 881 400 881 q 464 897 450 881 q 478 940 478 914 l 583 940 q 540 828 583 872 q 425 783 496 783 z "},"ô":{"ha":850,"x_min":49,"x_max":801,"o":"m 425 -19 q 241 22 328 -19 q 101 147 154 64 q 49 344 49 229 q 101 542 49 460 q 241 667 154 625 q 425 708 328 708 q 609 667 522 708 q 749 542 696 625 q 801 344 801 460 q 749 147 801 229 q 609 22 696 64 q 425 -19 522 -19 m 425 136 q 523 160 478 136 q 596 232 568 185 q 624 344 624 279 q 596 457 624 410 q 523 528 568 504 q 425 553 478 553 q 327 528 372 553 q 254 457 282 504 q 226 344 226 410 q 254 232 226 279 q 327 160 282 185 q 425 136 372 136 m 363 982 l 488 982 l 644 764 l 507 764 l 425 847 l 343 764 l 206 764 l 363 982 z "},"ö":{"ha":850,"x_min":49,"x_max":801,"o":"m 425 -19 q 241 22 328 -19 q 101 147 154 64 q 49 344 49 229 q 101 542 49 460 q 241 667 154 625 q 425 708 328 708 q 609 667 522 708 q 749 542 696 625 q 801 344 801 460 q 749 147 801 229 q 609 22 696 64 q 425 -19 522 -19 m 425 136 q 523 160 478 136 q 596 232 568 185 q 624 344 624 279 q 596 457 624 410 q 523 528 568 504 q 425 553 478 553 q 327 528 372 553 q 254 457 282 504 q 226 344 226 410 q 254 232 226 279 q 327 160 282 185 q 425 136 372 136 z "},"ò":{"ha":850,"x_min":49,"x_max":801,"o":"m 425 -19 q 241 22 328 -19 q 101 147 154 64 q 49 344 49 229 q 101 542 49 460 q 241 667 154 625 q 425 708 328 708 q 609 667 522 708 q 749 542 696 625 q 801 344 801 460 q 749 147 801 229 q 609 22 696 64 q 425 -19 522 -19 m 425 136 q 523 160 478 136 q 596 232 568 185 q 624 344 624 279 q 596 457 624 410 q 523 528 568 504 q 425 553 478 553 q 327 528 372 553 q 254 457 282 504 q 226 344 226 410 q 254 232 226 279 q 327 160 282 185 q 425 136 372 136 m 211 983 l 424 983 l 518 764 l 383 764 l 211 983 z "},"ő":{"ha":850,"x_min":49,"x_max":801,"o":"m 425 -19 q 241 22 328 -19 q 101 147 154 64 q 49 344 49 229 q 101 542 49 460 q 241 667 154 625 q 425 708 328 708 q 609 667 522 708 q 749 542 696 625 q 801 344 801 460 q 749 147 801 229 q 609 22 696 64 q 425 -19 522 -19 m 425 136 q 523 160 478 136 q 596 232 568 185 q 624 344 624 279 q 596 457 624 410 q 523 528 568 504 q 425 553 478 553 q 327 528 372 553 q 254 457 282 504 q 226 344 226 410 q 254 232 226 279 q 327 160 282 185 q 425 136 372 136 m 294 983 l 507 983 l 335 764 l 200 764 l 294 983 m 557 983 l 769 983 l 597 764 l 463 764 l 557 983 z "},"ō":{"ha":850,"x_min":49,"x_max":801,"o":"m 425 -19 q 241 22 328 -19 q 101 147 154 64 q 49 344 49 229 q 101 542 49 460 q 241 667 154 625 q 425 708 328 708 q 609 667 522 708 q 749 542 696 625 q 801 344 801 460 q 749 147 801 229 q 609 22 696 64 q 425 -19 522 -19 m 425 136 q 523 160 478 136 q 596 232 568 185 q 624 344 624 279 q 596 457 624 410 q 523 528 568 504 q 425 553 478 553 q 327 528 372 553 q 254 457 282 504 q 226 344 226 410 q 254 232 226 279 q 327 160 282 185 q 425 136 372 136 m 253 947 l 597 947 l 597 817 l 253 817 l 253 947 z "},"ø":{"ha":850,"x_min":49,"x_max":801,"o":"m 671 628 q 767 509 732 581 q 801 344 801 438 q 749 147 801 229 q 609 22 696 64 q 425 -19 522 -19 q 300 -1 358 -19 l 267 -58 l 151 13 l 179 61 q 83 180 118 108 q 49 344 49 251 q 101 542 49 460 q 241 667 154 625 q 425 708 328 708 q 550 690 492 708 l 583 747 l 699 676 l 671 628 m 226 344 q 268 211 226 264 l 467 549 q 425 553 446 553 q 327 528 372 553 q 254 457 282 504 q 226 344 226 410 m 425 136 q 523 160 478 136 q 596 232 568 185 q 624 344 624 279 q 582 478 624 425 l 383 140 q 425 136 404 136 z "},"õ":{"ha":850,"x_min":49,"x_max":801,"o":"m 425 -19 q 241 22 328 -19 q 101 147 154 64 q 49 344 49 229 q 101 542 49 460 q 241 667 154 625 q 425 708 328 708 q 609 667 522 708 q 749 542 696 625 q 801 344 801 460 q 749 147 801 229 q 609 22 696 64 q 425 -19 522 -19 m 425 136 q 523 160 478 136 q 596 232 568 185 q 624 344 624 279 q 596 457 624 410 q 523 528 568 504 q 425 553 478 553 q 327 528 372 553 q 254 457 282 504 q 226 344 226 410 q 254 232 226 279 q 327 160 282 185 q 425 136 372 136 m 535 764 q 454 779 485 764 q 389 822 424 794 q 355 847 369 839 q 324 856 340 856 q 301 847 310 856 q 292 825 292 839 q 301 789 292 808 l 199 768 q 185 801 190 781 q 179 842 179 822 q 221 935 179 901 q 315 968 263 968 q 396 953 365 968 q 461 910 426 938 q 495 885 481 893 q 526 876 510 876 q 549 885 540 876 q 558 907 558 893 q 549 943 558 924 l 651 964 q 665 931 660 951 q 671 890 671 910 q 629 797 671 831 q 535 764 588 764 z "},"œ":{"ha":1383,"x_min":49,"x_max":1332,"o":"m 425 -19 q 241 22 328 -19 q 101 147 154 64 q 49 344 49 229 q 101 542 49 460 q 241 667 154 625 q 425 708 328 708 q 585 675 508 708 q 717 581 663 642 q 840 674 768 640 q 996 708 913 708 q 1169 665 1093 708 q 1289 542 1246 621 q 1332 364 1332 464 l 1332 303 l 801 303 q 861 177 810 224 q 990 131 913 131 q 1104 163 1058 131 q 1181 257 1150 194 l 1311 182 q 1182 31 1261 81 q 988 -19 1103 -19 q 838 14 908 -19 q 717 106 767 47 q 586 13 664 46 q 425 -19 508 -19 m 1171 431 q 1111 537 1158 499 q 990 575 1064 575 q 872 534 922 575 q 801 431 821 493 l 1171 431 m 425 144 q 523 169 478 144 q 596 238 568 193 q 624 344 624 283 q 596 451 624 406 q 523 520 568 496 q 425 544 478 544 q 327 520 372 544 q 254 451 282 496 q 226 344 226 406 q 254 238 226 283 q 327 169 282 193 q 425 144 372 144 z "},"p":{"ha":867,"x_min":88,"x_max":818,"o":"m 88 689 l 263 689 l 263 597 q 356 679 299 650 q 482 708 413 708 q 657 663 581 708 q 776 535 733 617 q 818 344 818 453 q 776 154 818 236 q 657 26 733 72 q 482 -19 581 -19 q 356 10 413 -19 q 263 92 299 39 l 263 -283 l 88 -283 l 88 689 m 446 136 q 587 194 533 136 q 640 344 640 251 q 587 495 640 438 q 446 553 533 553 q 305 496 358 553 q 251 344 251 439 q 305 194 251 251 q 446 136 358 136 z "},"þ":{"ha":867,"x_min":88,"x_max":818,"o":"m 263 972 l 263 590 q 364 675 299 642 q 506 708 429 708 q 662 665 590 708 q 776 538 733 621 q 818 344 818 456 q 774 153 818 236 q 656 26 731 71 q 489 -19 581 -19 q 360 8 418 -19 q 263 85 301 36 l 263 -283 l 88 -283 l 88 972 l 263 972 m 446 544 q 307 487 363 544 q 251 344 251 429 q 307 202 251 260 q 446 144 363 144 q 585 202 529 144 q 640 344 640 260 q 585 487 640 429 q 446 544 529 544 z "},"q":{"ha":867,"x_min":49,"x_max":779,"o":"m 604 92 q 511 10 568 39 q 385 -19 454 -19 q 210 26 286 -19 q 91 154 133 72 q 49 344 49 236 q 91 535 49 453 q 210 663 133 617 q 385 708 286 708 q 511 679 454 708 q 604 597 568 650 l 604 689 l 779 689 l 779 -283 l 604 -283 l 604 92 m 421 136 q 562 194 508 136 q 615 344 615 251 q 562 496 615 439 q 421 553 508 553 q 280 496 333 553 q 226 344 226 439 q 280 193 226 250 q 421 136 333 136 z "},"r":{"ha":519,"x_min":88,"x_max":500,"o":"m 446 708 q 500 700 471 708 l 500 535 q 443 544 474 544 q 308 486 353 544 q 263 326 263 428 l 263 0 l 88 0 l 88 689 l 263 689 l 263 572 q 327 674 279 640 q 446 708 375 708 z "},"ŕ":{"ha":519,"x_min":88,"x_max":533,"o":"m 446 708 q 500 700 471 708 l 500 535 q 443 544 474 544 q 308 486 353 544 q 263 326 263 428 l 263 0 l 88 0 l 88 689 l 263 689 l 263 572 q 327 674 279 640 q 446 708 375 708 m 321 983 l 533 983 l 361 764 l 226 764 l 321 983 z "},"ř":{"ha":519,"x_min":88,"x_max":531,"o":"m 446 708 q 500 700 471 708 l 500 535 q 443 544 474 544 q 308 486 353 544 q 263 326 263 428 l 263 0 l 88 0 l 88 689 l 263 689 l 263 572 q 327 674 279 640 q 446 708 375 708 m 92 982 l 229 982 l 311 899 l 393 982 l 531 982 l 374 764 l 249 764 l 92 982 z "},"ŗ":{"ha":519,"x_min":68,"x_max":500,"o":"m 446 708 q 500 700 471 708 l 500 535 q 443 544 474 544 q 308 486 353 544 q 263 326 263 428 l 263 0 l 88 0 l 88 689 l 263 689 l 263 572 q 327 674 279 640 q 446 708 375 708 m 68 -335 l 97 -82 l 282 -82 l 164 -335 l 68 -335 z "},"s":{"ha":700,"x_min":56,"x_max":664,"o":"m 381 -19 q 56 138 146 -19 l 185 243 q 261 149 214 179 q 383 119 308 119 q 465 140 433 119 q 497 193 497 160 q 415 263 497 246 l 303 286 q 142 357 196 308 q 88 496 88 406 q 161 651 88 593 q 349 708 235 708 q 649 563 564 708 l 528 471 q 458 549 503 522 q 354 575 413 575 q 276 556 303 575 q 249 506 249 538 q 267 464 249 479 q 326 440 286 449 l 450 415 q 613 340 561 393 q 664 206 664 288 q 586 42 664 104 q 381 -19 508 -19 z "},"ś":{"ha":700,"x_min":56,"x_max":664,"o":"m 381 -19 q 56 138 146 -19 l 185 243 q 261 149 214 179 q 383 119 308 119 q 465 140 433 119 q 497 193 497 160 q 415 263 497 246 l 303 286 q 142 357 196 308 q 88 496 88 406 q 161 651 88 593 q 349 708 235 708 q 649 563 564 708 l 528 471 q 458 549 503 522 q 354 575 413 575 q 276 556 303 575 q 249 506 249 538 q 267 464 249 479 q 326 440 286 449 l 450 415 q 613 340 561 393 q 664 206 664 288 q 586 42 664 104 q 381 -19 508 -19 m 369 983 l 582 983 l 410 764 l 275 764 l 369 983 z "},"š":{"ha":700,"x_min":56,"x_max":664,"o":"m 381 -19 q 56 138 146 -19 l 185 243 q 261 149 214 179 q 383 119 308 119 q 465 140 433 119 q 497 193 497 160 q 415 263 497 246 l 303 286 q 142 357 196 308 q 88 496 88 406 q 161 651 88 593 q 349 708 235 708 q 649 563 564 708 l 528 471 q 458 549 503 522 q 354 575 413 575 q 276 556 303 575 q 249 506 249 538 q 267 464 249 479 q 326 440 286 449 l 450 415 q 613 340 561 393 q 664 206 664 288 q 586 42 664 104 q 381 -19 508 -19 m 140 982 l 278 982 l 360 899 l 442 982 l 579 982 l 422 764 l 297 764 l 140 982 z "},"ş":{"ha":700,"x_min":56,"x_max":664,"o":"m 353 -19 l 321 -74 q 376 -61 344 -61 q 455 -92 425 -61 q 485 -169 485 -122 q 447 -253 485 -222 q 353 -283 408 -283 q 266 -261 300 -283 q 222 -199 232 -239 l 314 -175 q 353 -206 319 -206 q 378 -197 368 -206 q 388 -171 388 -187 q 377 -141 388 -151 q 349 -131 367 -131 q 315 -137 329 -131 q 286 -156 301 -143 l 235 -110 l 269 -10 q 56 138 121 21 l 185 243 q 261 149 214 179 q 383 119 308 119 q 465 140 433 119 q 497 193 497 160 q 415 263 497 246 l 303 286 q 142 357 196 308 q 88 496 88 406 q 161 651 88 593 q 349 708 235 708 q 649 563 564 708 l 528 471 q 458 549 503 522 q 354 575 413 575 q 276 556 303 575 q 249 506 249 538 q 267 464 249 479 q 326 440 286 449 l 450 415 q 613 340 561 393 q 664 206 664 288 q 586 42 664 104 q 381 -19 508 -19 l 353 -19 z "},"ŝ":{"ha":700,"x_min":56,"x_max":664,"o":"m 381 -19 q 56 138 146 -19 l 185 243 q 261 149 214 179 q 383 119 308 119 q 465 140 433 119 q 497 193 497 160 q 415 263 497 246 l 303 286 q 142 357 196 308 q 88 496 88 406 q 161 651 88 593 q 349 708 235 708 q 649 563 564 708 l 528 471 q 458 549 503 522 q 354 575 413 575 q 276 556 303 575 q 249 506 249 538 q 267 464 249 479 q 326 440 286 449 l 450 415 q 613 340 561 393 q 664 206 664 288 q 586 42 664 104 q 381 -19 508 -19 m 297 982 l 422 982 l 579 764 l 442 764 l 360 847 l 278 764 l 140 764 l 297 982 z "},"ș":{"ha":700,"x_min":56,"x_max":664,"o":"m 381 -19 q 56 138 146 -19 l 185 243 q 261 149 214 179 q 383 119 308 119 q 465 140 433 119 q 497 193 497 160 q 415 263 497 246 l 303 286 q 142 357 196 308 q 88 496 88 406 q 161 651 88 593 q 349 708 235 708 q 649 563 564 708 l 528 471 q 458 549 503 522 q 354 575 413 575 q 276 556 303 575 q 249 506 249 538 q 267 464 249 479 q 326 440 286 449 l 450 415 q 613 340 561 393 q 664 206 664 288 q 586 42 664 104 q 381 -19 508 -19 m 253 -335 l 282 -82 l 467 -82 l 349 -335 l 253 -335 z "},"ß":{"ha":836,"x_min":29,"x_max":779,"o":"m 508 -19 q 395 -4 443 -19 q 307 43 347 11 l 383 179 q 490 133 429 133 q 571 167 538 133 q 604 264 604 200 q 541 401 604 350 q 385 453 478 453 l 342 453 l 342 606 l 390 606 q 496 640 456 606 q 536 733 536 674 q 503 810 536 782 q 414 839 471 839 q 320 801 358 839 q 282 690 282 763 l 282 0 l 107 0 l 107 547 l 29 547 l 29 689 l 107 689 l 107 699 q 150 859 107 793 q 264 958 193 925 q 418 992 335 992 q 572 963 506 992 q 672 881 638 933 q 707 761 707 828 q 670 628 707 681 q 567 544 633 576 q 724 435 669 506 q 779 254 779 365 q 745 111 779 174 q 649 15 711 49 q 508 -19 588 -19 z "},"t":{"ha":499,"x_min":33,"x_max":465,"o":"m 315 547 l 315 233 q 403 136 315 136 q 465 144 438 136 l 465 0 q 361 -19 425 -19 q 201 31 261 -19 q 140 200 140 82 l 140 547 l 33 547 l 33 689 l 140 689 l 140 875 l 315 875 l 315 689 l 465 689 l 465 547 l 315 547 z "},"ŧ":{"ha":511,"x_min":33,"x_max":478,"o":"m 140 689 l 140 875 l 315 875 l 315 689 l 465 689 l 465 547 l 315 547 l 315 428 l 447 428 l 447 294 l 315 294 l 315 233 q 403 136 315 136 q 461 144 433 136 l 478 0 q 361 -19 425 -19 q 201 31 261 -19 q 140 200 140 82 l 140 294 l 50 294 l 50 428 l 140 428 l 140 547 l 33 547 l 33 689 l 140 689 z "},"ť":{"ha":499,"x_min":33,"x_max":586,"o":"m 315 547 l 315 233 q 403 136 315 136 q 465 144 438 136 l 465 0 q 361 -19 425 -19 q 201 31 261 -19 q 140 200 140 82 l 140 547 l 33 547 l 33 689 l 140 689 l 140 875 l 315 875 l 315 689 l 465 689 l 465 547 l 315 547 m 372 740 l 401 993 l 586 993 l 468 740 l 372 740 z "},"ţ":{"ha":499,"x_min":33,"x_max":465,"o":"m 315 547 l 315 233 q 403 136 315 136 q 465 144 438 136 l 465 0 q 361 -19 425 -19 q 301 -15 331 -19 l 267 -74 q 322 -61 290 -61 q 401 -92 371 -61 q 431 -169 431 -122 q 392 -253 431 -222 q 299 -283 354 -283 q 212 -261 246 -283 q 168 -199 178 -239 l 260 -175 q 299 -206 265 -206 q 324 -197 314 -206 q 333 -171 333 -187 q 323 -141 333 -151 q 294 -131 313 -131 q 261 -137 275 -131 q 232 -156 247 -143 l 181 -110 l 224 14 q 140 200 140 67 l 140 547 l 33 547 l 33 689 l 140 689 l 140 875 l 315 875 l 315 689 l 465 689 l 465 547 l 315 547 z "},"ț":{"ha":499,"x_min":33,"x_max":465,"o":"m 315 547 l 315 233 q 403 136 315 136 q 465 144 438 136 l 465 0 q 361 -19 425 -19 q 201 31 261 -19 q 140 200 140 82 l 140 547 l 33 547 l 33 689 l 140 689 l 140 875 l 315 875 l 315 689 l 465 689 l 465 547 l 315 547 m 199 -335 l 228 -82 l 413 -82 l 294 -335 l 199 -335 z "},"u":{"ha":825,"x_min":88,"x_max":738,"o":"m 738 689 l 738 0 l 563 0 l 563 135 q 336 -19 496 -19 q 153 58 218 -19 q 88 275 88 136 l 88 689 l 263 689 l 263 285 q 297 176 263 215 q 393 138 332 138 q 517 200 472 138 q 563 388 563 263 l 563 689 l 738 689 z "},"ú":{"ha":825,"x_min":88,"x_max":738,"o":"m 738 689 l 738 0 l 563 0 l 563 135 q 336 -19 496 -19 q 153 58 218 -19 q 88 275 88 136 l 88 689 l 263 689 l 263 285 q 297 176 263 215 q 393 138 332 138 q 517 200 472 138 q 563 388 563 263 l 563 689 l 738 689 m 422 983 l 635 983 l 463 764 l 328 764 l 422 983 z "},"ŭ":{"ha":825,"x_min":88,"x_max":738,"o":"m 738 689 l 738 0 l 563 0 l 563 135 q 336 -19 496 -19 q 153 58 218 -19 q 88 275 88 136 l 88 689 l 263 689 l 263 285 q 297 176 263 215 q 393 138 332 138 q 517 200 472 138 q 563 388 563 263 l 563 689 l 738 689 m 413 783 q 298 828 342 783 q 254 940 254 872 l 360 940 q 374 897 360 914 q 413 881 388 881 q 451 897 438 881 q 465 940 465 914 l 571 940 q 527 828 571 872 q 413 783 483 783 z "},"û":{"ha":825,"x_min":88,"x_max":738,"o":"m 738 689 l 738 0 l 563 0 l 563 135 q 336 -19 496 -19 q 153 58 218 -19 q 88 275 88 136 l 88 689 l 263 689 l 263 285 q 297 176 263 215 q 393 138 332 138 q 517 200 472 138 q 563 388 563 263 l 563 689 l 738 689 m 350 982 l 475 982 l 632 764 l 494 764 l 413 847 l 331 764 l 193 764 l 350 982 z "},"ü":{"ha":825,"x_min":88,"x_max":738,"o":"m 738 689 l 738 0 l 563 0 l 563 135 q 336 -19 496 -19 q 153 58 218 -19 q 88 275 88 136 l 88 689 l 263 689 l 263 285 q 297 176 263 215 q 393 138 332 138 q 517 200 472 138 q 563 388 563 263 l 563 689 l 738 689 z "},"ù":{"ha":825,"x_min":88,"x_max":738,"o":"m 738 689 l 738 0 l 563 0 l 563 135 q 336 -19 496 -19 q 153 58 218 -19 q 88 275 88 136 l 88 689 l 263 689 l 263 285 q 297 176 263 215 q 393 138 332 138 q 517 200 472 138 q 563 388 563 263 l 563 689 l 738 689 m 199 983 l 411 983 l 506 764 l 371 764 l 199 983 z "},"ű":{"ha":825,"x_min":88,"x_max":757,"o":"m 738 689 l 738 0 l 563 0 l 563 135 q 336 -19 496 -19 q 153 58 218 -19 q 88 275 88 136 l 88 689 l 263 689 l 263 285 q 297 176 263 215 q 393 138 332 138 q 517 200 472 138 q 563 388 563 263 l 563 689 l 738 689 m 282 983 l 494 983 l 322 764 l 188 764 l 282 983 m 544 983 l 757 983 l 585 764 l 450 764 l 544 983 z "},"ū":{"ha":825,"x_min":88,"x_max":738,"o":"m 738 689 l 738 0 l 563 0 l 563 135 q 336 -19 496 -19 q 153 58 218 -19 q 88 275 88 136 l 88 689 l 263 689 l 263 285 q 297 176 263 215 q 393 138 332 138 q 517 200 472 138 q 563 388 563 263 l 563 689 l 738 689 m 240 947 l 585 947 l 585 817 l 240 817 l 240 947 z "},"ų":{"ha":825,"x_min":88,"x_max":740,"o":"m 740 -265 q 657 -275 704 -275 q 547 -240 594 -275 q 499 -144 499 -206 q 581 0 499 -60 l 563 0 l 563 135 q 336 -19 496 -19 q 153 58 218 -19 q 88 275 88 136 l 88 689 l 263 689 l 263 285 q 297 176 263 215 q 393 138 332 138 q 517 200 472 138 q 563 388 563 263 l 563 689 l 738 689 l 738 0 q 665 -53 693 -25 q 638 -108 638 -81 q 653 -147 638 -133 q 694 -161 669 -161 q 725 -158 707 -161 l 740 -265 z "},"ů":{"ha":825,"x_min":88,"x_max":738,"o":"m 738 689 l 738 0 l 563 0 l 563 135 q 336 -19 496 -19 q 153 58 218 -19 q 88 275 88 136 l 88 689 l 263 689 l 263 285 q 297 176 263 215 q 393 138 332 138 q 517 200 472 138 q 563 388 563 263 l 563 689 l 738 689 m 414 750 q 319 788 358 750 q 281 882 281 826 q 319 976 281 938 q 414 1014 358 1014 q 508 976 469 1014 q 547 882 547 938 q 508 788 547 826 q 414 750 469 750 m 414 835 q 447 847 435 835 q 460 882 460 860 q 447 917 460 904 q 414 929 435 929 q 381 917 393 929 q 368 882 368 904 q 381 847 368 860 q 414 835 393 835 z "},"ũ":{"ha":825,"x_min":88,"x_max":738,"o":"m 738 689 l 738 0 l 563 0 l 563 135 q 336 -19 496 -19 q 153 58 218 -19 q 88 275 88 136 l 88 689 l 263 689 l 263 285 q 297 176 263 215 q 393 138 332 138 q 517 200 472 138 q 563 388 563 263 l 563 689 l 738 689 m 522 764 q 442 779 472 764 q 376 822 411 794 q 342 847 357 839 q 311 856 328 856 q 288 847 297 856 q 279 825 279 839 q 289 789 279 808 l 186 768 q 172 801 178 781 q 167 842 167 822 q 208 935 167 901 q 303 968 250 968 q 383 953 353 968 q 449 910 414 938 q 483 885 468 893 q 514 876 497 876 q 537 885 528 876 q 546 907 546 893 q 536 943 546 924 l 639 964 q 653 931 647 951 q 658 890 658 910 q 617 797 658 831 q 522 764 575 764 z "},"v":{"ha":742,"x_min":10,"x_max":732,"o":"m 10 689 l 196 689 l 371 222 l 546 689 l 732 689 l 453 0 l 289 0 l 10 689 z "},"w":{"ha":992,"x_min":8,"x_max":983,"o":"m 8 689 l 178 689 l 289 228 l 413 689 l 579 689 l 703 228 l 814 689 l 983 689 l 792 0 l 622 0 l 496 474 l 369 0 l 200 0 l 8 689 z "},"ẃ":{"ha":992,"x_min":8,"x_max":983,"o":"m 8 689 l 178 689 l 289 228 l 413 689 l 579 689 l 703 228 l 814 689 l 983 689 l 792 0 l 622 0 l 496 474 l 369 0 l 200 0 l 8 689 m 506 983 l 718 983 l 546 764 l 411 764 l 506 983 z "},"ŵ":{"ha":992,"x_min":8,"x_max":983,"o":"m 8 689 l 178 689 l 289 228 l 413 689 l 579 689 l 703 228 l 814 689 l 983 689 l 792 0 l 622 0 l 496 474 l 369 0 l 200 0 l 8 689 m 433 982 l 558 982 l 715 764 l 578 764 l 496 847 l 414 764 l 276 764 l 433 982 z "},"ẅ":{"ha":992,"x_min":8,"x_max":983,"o":"m 8 689 l 178 689 l 289 228 l 413 689 l 579 689 l 703 228 l 814 689 l 983 689 l 792 0 l 622 0 l 496 474 l 369 0 l 200 0 l 8 689 z "},"ẁ":{"ha":992,"x_min":8,"x_max":983,"o":"m 8 689 l 178 689 l 289 228 l 413 689 l 579 689 l 703 228 l 814 689 l 983 689 l 792 0 l 622 0 l 496 474 l 369 0 l 200 0 l 8 689 m 282 983 l 494 983 l 589 764 l 454 764 l 282 983 z "},"x":{"ha":690,"x_min":-1,"x_max":689,"o":"m 250 364 l 28 689 l 228 689 l 343 504 l 460 689 l 663 689 l 447 368 l 689 0 l 485 0 l 343 226 l 200 0 l -1 0 l 250 364 z "},"y":{"ha":758,"x_min":7,"x_max":751,"o":"m 290 -6 l 7 689 l 206 689 l 383 242 l 553 689 l 751 689 l 360 -283 l 172 -283 l 290 -6 z "},"ý":{"ha":758,"x_min":7,"x_max":751,"o":"m 290 -6 l 7 689 l 206 689 l 383 242 l 553 689 l 751 689 l 360 -283 l 172 -283 l 290 -6 m 389 983 l 601 983 l 429 764 l 294 764 l 389 983 z "},"ŷ":{"ha":758,"x_min":7,"x_max":751,"o":"m 290 -6 l 7 689 l 206 689 l 383 242 l 553 689 l 751 689 l 360 -283 l 172 -283 l 290 -6 m 317 982 l 442 982 l 599 764 l 461 764 l 379 847 l 297 764 l 160 764 l 317 982 z "},"ÿ":{"ha":758,"x_min":7,"x_max":751,"o":"m 290 -6 l 7 689 l 206 689 l 383 242 l 553 689 l 751 689 l 360 -283 l 172 -283 l 290 -6 z "},"ỳ":{"ha":758,"x_min":7,"x_max":751,"o":"m 290 -6 l 7 689 l 206 689 l 383 242 l 553 689 l 751 689 l 360 -283 l 172 -283 l 290 -6 m 165 983 l 378 983 l 472 764 l 338 764 l 165 983 z "},"z":{"ha":689,"x_min":50,"x_max":639,"o":"m 50 142 l 413 547 l 65 547 l 65 689 l 615 689 l 615 547 l 251 142 l 639 142 l 639 0 l 50 0 l 50 142 z "},"ź":{"ha":689,"x_min":50,"x_max":639,"o":"m 50 142 l 413 547 l 65 547 l 65 689 l 615 689 l 615 547 l 251 142 l 639 142 l 639 0 l 50 0 l 50 142 m 353 983 l 565 983 l 393 764 l 258 764 l 353 983 z "},"ž":{"ha":689,"x_min":50,"x_max":639,"o":"m 50 142 l 413 547 l 65 547 l 65 689 l 615 689 l 615 547 l 251 142 l 639 142 l 639 0 l 50 0 l 50 142 m 124 982 l 261 982 l 343 899 l 425 982 l 563 982 l 406 764 l 281 764 l 124 982 z "},"ż":{"ha":689,"x_min":50,"x_max":639,"o":"m 50 142 l 413 547 l 65 547 l 65 689 l 615 689 l 615 547 l 251 142 l 639 142 l 639 0 l 50 0 l 50 142 z "},"ƶ":{"ha":689,"x_min":50,"x_max":639,"o":"m 50 142 l 183 292 l 89 292 l 89 425 l 303 425 l 413 547 l 65 547 l 65 689 l 615 689 l 615 547 l 506 425 l 600 425 l 600 292 l 386 292 l 251 142 l 639 142 l 639 0 l 50 0 l 50 142 z "},"ﬁ":{"ha":822,"x_min":26,"x_max":763,"o":"m 126 547 l 26 547 l 26 689 l 126 689 l 126 764 q 188 931 126 871 q 357 992 249 992 q 457 976 417 992 l 457 817 q 379 831 407 831 q 322 807 342 831 q 301 740 301 783 l 301 689 l 736 689 l 736 0 l 561 0 l 561 547 l 301 547 l 301 0 l 126 0 l 126 547 m 649 761 q 568 794 601 761 q 535 875 535 828 q 568 954 535 921 q 649 988 601 988 q 729 954 696 988 q 763 875 763 921 q 729 794 763 828 q 649 761 696 761 z "},"ﬂ":{"ha":824,"x_min":26,"x_max":736,"o":"m 126 689 l 126 764 q 188 931 126 871 q 357 992 249 992 q 457 976 417 992 l 457 817 q 379 831 407 831 q 322 807 342 831 q 301 740 301 783 l 301 689 l 451 689 l 451 547 l 301 547 l 301 0 l 126 0 l 126 547 l 26 547 l 26 689 l 126 689 m 561 972 l 736 972 l 736 0 l 561 0 l 561 972 z "},"ª":{"ha":565,"x_min":57,"x_max":540,"o":"m 401 417 q 387 442 394 424 q 378 489 379 461 q 228 403 339 403 q 103 444 150 403 q 57 554 57 485 q 106 664 57 624 q 232 715 156 704 l 371 736 l 371 747 q 351 797 371 779 q 296 814 332 814 q 237 794 265 814 q 190 738 208 774 l 82 786 q 167 881 115 850 q 296 913 219 913 q 507 733 507 913 l 507 536 q 515 469 507 496 q 540 417 522 442 l 401 417 m 254 513 q 338 543 304 513 q 371 639 371 574 l 371 644 l 264 626 q 190 563 190 614 q 254 513 190 513 z "},"º":{"ha":636,"x_min":57,"x_max":579,"o":"m 318 407 q 190 436 250 407 q 94 522 131 465 q 57 660 57 579 q 94 797 57 740 q 190 883 131 854 q 318 913 250 913 q 446 883 386 913 q 542 797 506 854 q 579 660 579 740 q 542 522 579 579 q 446 436 506 465 q 318 407 386 407 m 318 528 q 410 564 374 528 q 447 660 447 600 q 411 756 447 719 q 318 792 375 792 q 224 756 261 792 q 188 660 188 719 q 224 564 188 600 q 318 528 261 528 z "},"А":{"ha":975,"x_min":7,"x_max":968,"o":"m 678 246 l 297 246 l 203 0 l 7 0 l 400 972 l 575 972 l 968 0 l 772 0 l 678 246 m 613 418 l 524 651 q 488 757 504 701 q 451 651 471 701 l 363 418 l 613 418 z "},"Б":{"ha":917,"x_min":101,"x_max":853,"o":"m 101 972 l 783 972 l 783 806 l 285 806 l 285 606 l 511 606 q 688 569 611 606 q 809 465 765 533 q 853 303 853 396 q 809 141 853 210 q 688 36 765 72 q 511 0 611 0 l 101 0 l 101 972 m 497 169 q 669 303 669 169 q 626 403 669 367 q 497 439 583 439 l 285 439 l 285 169 l 497 169 z "},"В":{"ha":917,"x_min":101,"x_max":853,"o":"m 101 972 l 501 972 q 731 905 649 972 q 813 718 813 838 q 775 601 813 654 q 674 525 738 547 q 805 443 757 501 q 853 292 853 385 q 760 78 853 157 q 508 0 667 0 l 101 0 l 101 972 m 496 594 q 597 622 563 594 q 632 700 632 649 q 597 778 632 751 q 496 806 563 806 l 285 806 l 285 594 l 496 594 m 497 172 q 626 206 582 172 q 669 303 669 239 q 626 400 669 367 q 497 433 582 433 l 285 433 l 285 172 l 497 172 z "},"Г":{"ha":794,"x_min":101,"x_max":772,"o":"m 101 972 l 772 972 l 772 800 l 285 800 l 285 0 l 101 0 l 101 972 z "},"Ѓ":{"ha":794,"x_min":101,"x_max":772,"o":"m 101 972 l 772 972 l 772 800 l 285 800 l 285 0 l 101 0 l 101 972 m 464 1267 l 676 1267 l 504 1047 l 369 1047 l 464 1267 z "},"Ґ":{"ha":794,"x_min":101,"x_max":772,"o":"m 772 1146 l 772 800 l 285 800 l 285 0 l 101 0 l 101 972 l 603 972 l 603 1146 l 772 1146 z "},"Д":{"ha":1035,"x_min":19,"x_max":1001,"o":"m 19 172 l 103 172 q 168 352 147 263 q 197 582 189 442 l 219 972 l 867 972 l 867 172 l 1001 172 l 1001 -175 l 831 -175 l 831 0 l 190 0 l 190 -175 l 19 -175 l 19 172 m 683 172 l 683 800 l 389 800 l 376 586 q 351 354 368 443 q 296 172 333 265 l 683 172 z "},"Е":{"ha":854,"x_min":101,"x_max":776,"o":"m 101 972 l 772 972 l 772 806 l 285 806 l 285 586 l 733 586 l 733 419 l 285 419 l 285 167 l 776 167 l 776 0 l 101 0 l 101 972 z "},"Ѐ":{"ha":854,"x_min":101,"x_max":776,"o":"m 101 972 l 772 972 l 772 806 l 285 806 l 285 586 l 733 586 l 733 419 l 285 419 l 285 167 l 776 167 l 776 0 l 101 0 l 101 972 m 225 1267 l 438 1267 l 532 1047 l 397 1047 l 225 1267 z "},"Ё":{"ha":854,"x_min":101,"x_max":776,"o":"m 101 972 l 772 972 l 772 806 l 285 806 l 285 586 l 733 586 l 733 419 l 285 419 l 285 167 l 776 167 l 776 0 l 101 0 l 101 972 z "},"Ж":{"ha":1431,"x_min":26,"x_max":1404,"o":"m 1404 0 l 1176 0 l 879 353 l 843 393 l 807 435 l 807 0 l 624 0 l 624 436 l 551 353 l 254 0 l 26 0 l 463 515 l 46 972 l 282 972 l 547 669 q 624 576 590 622 l 624 972 l 807 972 l 807 576 q 883 669 840 622 l 1149 972 l 1385 972 l 968 515 l 1404 0 z "},"З":{"ha":879,"x_min":75,"x_max":813,"o":"m 656 517 q 771 428 729 488 q 813 290 813 368 q 766 127 813 197 q 635 19 719 57 q 443 -19 551 -19 q 197 56 294 -19 q 75 260 100 131 l 250 325 q 310 197 257 247 q 443 147 364 147 q 578 185 526 147 q 629 293 629 222 q 580 385 629 351 q 453 418 531 418 l 346 418 l 346 579 l 453 579 q 556 613 517 579 q 594 706 594 647 q 554 793 594 761 q 446 825 514 825 q 327 790 371 825 q 271 696 283 756 l 115 757 q 219 926 135 860 q 447 992 303 992 q 690 917 607 992 q 772 724 772 843 q 741 604 772 658 q 656 517 710 550 z "},"И":{"ha":1001,"x_min":101,"x_max":900,"o":"m 101 972 l 279 972 l 279 258 q 321 335 293 289 l 714 972 l 900 972 l 900 0 l 722 0 l 722 718 q 681 642 700 674 l 288 0 l 101 0 l 101 972 z "},"Й":{"ha":1001,"x_min":101,"x_max":900,"o":"m 101 972 l 279 972 l 279 258 q 321 335 293 289 l 714 972 l 900 972 l 900 0 l 722 0 l 722 718 q 681 642 700 674 l 288 0 l 101 0 l 101 972 m 501 1067 q 387 1111 431 1067 q 343 1224 343 1156 l 449 1224 q 463 1181 449 1197 q 501 1164 476 1164 q 540 1181 526 1164 q 554 1224 554 1197 l 660 1224 q 616 1111 660 1156 q 501 1067 572 1067 z "},"Ѝ":{"ha":1001,"x_min":101,"x_max":900,"o":"m 101 972 l 279 972 l 279 258 q 321 335 293 289 l 714 972 l 900 972 l 900 0 l 722 0 l 722 718 q 681 642 700 674 l 288 0 l 101 0 l 101 972 m 278 1267 l 490 1267 l 585 1047 l 450 1047 l 278 1267 z "},"К":{"ha":908,"x_min":101,"x_max":882,"o":"m 882 0 l 654 0 l 357 353 l 322 393 l 285 438 l 285 0 l 101 0 l 101 972 l 285 972 l 285 576 q 361 669 318 622 l 626 972 l 863 972 l 446 515 l 882 0 z "},"Ќ":{"ha":908,"x_min":101,"x_max":882,"o":"m 882 0 l 654 0 l 357 353 l 322 393 l 285 438 l 285 0 l 101 0 l 101 972 l 285 972 l 285 576 q 361 669 318 622 l 626 972 l 863 972 l 446 515 l 882 0 m 468 1267 l 681 1267 l 508 1047 l 374 1047 l 468 1267 z "},"Л":{"ha":1019,"x_min":42,"x_max":918,"o":"m 133 -10 q 42 0 86 -10 l 42 171 q 103 163 67 163 q 170 197 147 163 q 200 332 193 232 q 211 549 206 419 l 221 739 l 233 972 l 918 972 l 918 0 l 735 0 l 735 808 l 396 808 l 392 731 l 382 556 q 368 299 378 439 q 296 62 356 133 q 133 -10 236 -10 z "},"М":{"ha":1208,"x_min":101,"x_max":1107,"o":"m 101 972 l 294 972 l 604 200 l 914 972 l 1107 972 l 1107 0 l 929 0 l 929 594 l 882 446 l 692 0 l 517 0 l 326 446 l 279 594 l 279 0 l 101 0 l 101 972 z "},"Н":{"ha":994,"x_min":101,"x_max":893,"o":"m 101 972 l 285 972 l 285 582 l 710 582 l 710 972 l 893 972 l 893 0 l 710 0 l 710 410 l 285 410 l 285 0 l 101 0 l 101 972 z "},"О":{"ha":1128,"x_min":64,"x_max":1064,"o":"m 564 -19 q 308 47 422 -19 q 129 228 194 113 q 64 486 64 343 q 129 744 64 629 q 308 926 194 860 q 564 992 422 992 q 819 926 706 992 q 999 744 933 860 q 1064 486 1064 629 q 999 228 1064 343 q 819 47 933 113 q 564 -19 706 -19 m 564 153 q 724 193 653 153 q 837 308 796 233 q 878 486 878 383 q 837 664 878 589 q 724 779 796 739 q 564 819 653 819 q 403 779 475 819 q 291 664 332 739 q 250 486 250 589 q 291 308 250 383 q 403 193 332 233 q 564 153 475 153 z "},"П":{"ha":972,"x_min":101,"x_max":871,"o":"m 101 972 l 871 972 l 871 0 l 688 0 l 688 800 l 285 800 l 285 0 l 101 0 l 101 972 z "},"Р":{"ha":964,"x_min":101,"x_max":907,"o":"m 101 972 l 543 972 q 809 890 711 972 q 907 656 907 807 q 809 422 907 504 q 543 339 711 339 l 285 339 l 285 0 l 101 0 l 101 972 m 538 506 q 677 545 631 506 q 724 656 724 585 q 677 766 724 726 q 538 806 631 806 l 285 806 l 285 506 l 538 506 z "},"С":{"ha":1067,"x_min":64,"x_max":1000,"o":"m 561 -19 q 306 44 419 -19 q 128 222 193 107 q 64 486 64 338 q 130 749 64 635 q 311 928 196 864 q 568 992 426 992 q 831 922 717 992 q 994 738 944 851 l 846 631 q 732 772 801 724 q 563 819 663 819 q 405 778 476 819 q 292 662 333 738 q 250 486 250 586 q 292 313 250 389 q 405 194 333 236 q 563 153 476 153 q 857 344 756 153 l 1000 242 q 878 92 939 149 q 741 8 817 36 q 561 -19 665 -19 z "},"Т":{"ha":822,"x_min":22,"x_max":800,"o":"m 319 800 l 22 800 l 22 972 l 800 972 l 800 800 l 503 800 l 503 0 l 319 0 l 319 800 z "},"У":{"ha":769,"x_min":14,"x_max":758,"o":"m 297 278 l 14 972 l 213 972 l 390 525 l 560 972 l 758 972 l 367 0 l 179 0 l 297 278 z "},"Ў":{"ha":769,"x_min":14,"x_max":758,"o":"m 297 278 l 14 972 l 213 972 l 390 525 l 560 972 l 758 972 l 367 0 l 179 0 l 297 278 m 461 1067 q 347 1111 390 1067 q 303 1224 303 1156 l 408 1224 q 422 1181 408 1197 q 461 1164 436 1164 q 500 1181 486 1164 q 514 1224 514 1197 l 619 1224 q 576 1111 619 1156 q 461 1067 532 1067 z "},"Ф":{"ha":1169,"x_min":57,"x_max":1113,"o":"m 490 81 l 485 81 q 278 128 376 81 q 118 267 179 175 q 57 486 57 360 q 118 705 57 613 q 278 844 179 797 q 485 892 376 892 l 490 892 l 490 992 l 679 992 l 679 892 l 685 892 q 892 844 793 892 q 1051 705 990 797 q 1113 486 1113 613 q 1051 267 1113 360 q 892 128 990 175 q 685 81 793 81 l 679 81 l 679 -19 l 490 -19 l 490 81 m 490 239 l 490 733 l 478 733 q 355 705 411 733 q 265 620 299 676 q 232 486 232 564 q 265 352 232 408 q 355 267 299 296 q 478 239 411 239 l 490 239 m 692 239 q 815 267 758 239 q 904 352 871 296 q 938 486 938 408 q 904 620 938 564 q 815 705 871 676 q 692 733 758 733 l 679 733 l 679 239 l 692 239 z "},"Х":{"ha":857,"x_min":4,"x_max":851,"o":"m 329 522 l 47 972 l 243 972 l 428 664 l 622 972 l 808 972 l 531 529 l 851 0 l 656 0 l 428 375 l 201 0 l 4 0 l 329 522 z "},"Ч":{"ha":954,"x_min":83,"x_max":853,"o":"m 669 367 q 442 322 589 322 q 258 362 339 322 q 131 480 178 401 q 83 672 83 558 l 83 972 l 267 972 l 267 689 q 313 543 267 592 q 444 494 358 494 q 669 543 597 494 l 669 972 l 853 972 l 853 0 l 669 0 l 669 367 z "},"Ц":{"ha":1049,"x_min":101,"x_max":1007,"o":"m 836 0 l 101 0 l 101 972 l 285 972 l 285 172 l 689 172 l 689 972 l 872 972 l 872 172 l 1007 172 l 1007 -175 l 836 -175 l 836 0 z "},"Ш":{"ha":1328,"x_min":101,"x_max":1226,"o":"m 101 972 l 285 972 l 285 172 l 572 172 l 572 972 l 756 972 l 756 172 l 1043 172 l 1043 972 l 1226 972 l 1226 0 l 101 0 l 101 972 z "},"Щ":{"ha":1403,"x_min":101,"x_max":1361,"o":"m 1190 0 l 101 0 l 101 972 l 285 972 l 285 172 l 572 172 l 572 972 l 756 972 l 756 172 l 1043 172 l 1043 972 l 1226 972 l 1226 172 l 1361 172 l 1361 -175 l 1190 -175 l 1190 0 z "},"Џ":{"ha":972,"x_min":101,"x_max":871,"o":"m 400 0 l 101 0 l 101 972 l 285 972 l 285 172 l 688 172 l 688 972 l 871 972 l 871 0 l 571 0 l 571 -175 l 400 -175 l 400 0 z "},"Ь":{"ha":924,"x_min":101,"x_max":867,"o":"m 101 972 l 285 972 l 285 622 l 511 622 q 771 543 675 622 q 867 313 867 464 q 770 82 867 164 q 511 0 674 0 l 101 0 l 101 972 m 497 169 q 636 207 589 169 q 683 313 683 244 q 636 418 683 381 q 497 456 589 456 l 285 456 l 285 169 l 497 169 z "},"Ъ":{"ha":1039,"x_min":22,"x_max":982,"o":"m 217 811 l 22 811 l 22 972 l 400 972 l 400 622 l 626 622 q 886 543 790 622 q 982 313 982 464 q 886 81 982 161 q 626 0 790 0 l 217 0 l 217 811 m 613 169 q 751 207 704 169 q 799 313 799 244 q 751 418 799 381 q 613 456 704 456 l 400 456 l 400 169 l 613 169 z "},"Ы":{"ha":1261,"x_min":101,"x_max":1160,"o":"m 101 972 l 285 972 l 285 622 l 511 622 q 771 543 675 622 q 867 313 867 464 q 770 82 867 164 q 511 0 674 0 l 101 0 l 101 972 m 497 169 q 636 207 589 169 q 683 313 683 244 q 636 418 683 381 q 497 456 589 456 l 285 456 l 285 169 l 497 169 m 976 972 l 1160 972 l 1160 0 l 976 0 l 976 972 z "},"Љ":{"ha":1536,"x_min":42,"x_max":1479,"o":"m 133 -10 q 42 0 79 -10 l 42 171 q 103 163 67 163 q 170 197 147 163 q 200 332 193 232 q 211 547 207 421 l 221 739 l 233 972 l 897 972 l 897 622 l 1124 622 q 1383 543 1288 622 q 1479 313 1479 464 q 1383 81 1479 161 q 1124 0 1288 0 l 714 0 l 714 803 l 396 803 l 392 731 l 382 553 q 368 299 371 346 q 296 62 356 133 q 133 -10 236 -10 m 1110 169 q 1296 313 1296 169 q 1249 418 1296 381 q 1110 456 1201 456 l 897 456 l 897 169 l 1110 169 z "},"Њ":{"ha":1476,"x_min":101,"x_max":1419,"o":"m 101 972 l 285 972 l 285 608 l 682 608 l 682 972 l 865 972 l 865 608 l 1078 608 q 1325 527 1231 608 q 1419 301 1419 446 q 1326 78 1419 157 q 1078 0 1232 0 l 682 0 l 682 433 l 285 433 l 285 0 l 101 0 l 101 972 m 1064 169 q 1236 301 1236 169 q 1064 433 1236 433 l 865 433 l 865 169 l 1064 169 z "},"Ѕ":{"ha":926,"x_min":61,"x_max":853,"o":"m 490 -19 q 210 55 317 -19 q 61 256 104 129 l 225 344 q 320 194 258 246 q 489 142 382 142 q 619 178 569 142 q 669 272 669 214 q 631 356 669 325 q 508 404 593 388 l 393 426 q 178 524 246 454 q 111 717 111 594 q 153 863 111 800 q 274 958 196 925 q 454 992 351 992 q 831 774 722 992 l 686 683 q 450 836 611 836 q 333 806 378 836 q 289 724 289 776 q 322 649 289 678 q 428 606 356 621 l 549 581 q 780 475 707 547 q 853 279 853 403 q 808 123 853 190 q 681 18 763 56 q 490 -19 599 -19 z "},"Є":{"ha":1067,"x_min":64,"x_max":1000,"o":"m 561 -19 q 306 44 419 -19 q 128 222 193 107 q 64 486 64 338 q 130 749 64 635 q 311 928 196 864 q 568 992 426 992 q 822 925 713 992 q 988 754 932 858 l 833 661 q 722 781 786 740 q 563 822 657 822 q 371 757 454 822 q 261 581 288 692 l 675 581 l 675 411 l 257 411 q 364 222 279 293 q 563 150 449 150 q 722 189 653 150 q 846 306 792 228 l 1000 218 q 815 37 914 93 q 561 -19 715 -19 z "},"Э":{"ha":1067,"x_min":67,"x_max":1003,"o":"m 506 -19 q 252 37 351 -19 q 67 218 153 93 l 221 306 q 344 189 275 228 q 504 150 414 150 q 703 222 618 150 q 810 411 788 293 l 392 411 l 392 581 l 806 581 q 697 758 779 693 q 504 822 614 822 q 345 781 410 822 q 233 661 281 740 l 79 754 q 244 925 135 858 q 499 992 354 992 q 756 928 640 992 q 937 749 871 864 q 1003 486 1003 635 q 938 222 1003 338 q 760 44 874 107 q 506 -19 647 -19 z "},"І":{"ha":386,"x_min":101,"x_max":285,"o":"m 101 972 l 285 972 l 285 0 l 101 0 l 101 972 z "},"Ї":{"ha":386,"x_min":-32,"x_max":418,"o":"m 101 972 l 285 972 l 285 0 l 101 0 l 101 972 z "},"Ј":{"ha":771,"x_min":58,"x_max":694,"o":"m 376 -19 q 143 61 228 -19 q 58 281 58 142 l 242 319 q 278 197 243 240 q 376 153 314 153 q 476 193 442 153 q 511 300 511 233 l 511 972 l 694 972 l 694 297 q 657 133 694 204 q 548 21 619 61 q 376 -19 476 -19 z "},"Ћ":{"ha":1111,"x_min":22,"x_max":1024,"o":"m 707 581 q 940 504 857 581 q 1024 279 1024 428 l 1024 0 l 840 0 l 840 254 q 799 374 840 332 q 678 417 757 417 q 489 365 576 417 l 489 0 l 306 0 l 306 803 l 22 803 l 22 972 l 800 972 l 800 803 l 489 803 l 489 536 q 590 569 533 557 q 707 581 647 581 z "},"Ю":{"ha":1414,"x_min":101,"x_max":1350,"o":"m 869 -19 q 645 34 747 -19 q 478 183 543 88 q 394 401 413 279 l 285 401 l 285 0 l 101 0 l 101 972 l 285 972 l 285 571 l 394 571 q 478 789 413 693 q 645 938 543 885 q 869 992 747 992 q 1115 926 1006 992 q 1288 744 1225 860 q 1350 486 1350 629 q 1288 228 1350 343 q 1115 47 1225 113 q 869 -19 1006 -19 m 869 150 q 1019 192 951 150 q 1125 310 1086 233 q 1164 486 1164 388 q 1126 663 1164 586 q 1021 781 1088 739 q 869 822 954 822 q 718 781 785 822 q 613 663 651 739 q 575 486 575 586 q 613 310 575 386 q 718 192 651 233 q 869 150 785 150 z "},"Я":{"ha":918,"x_min":43,"x_max":817,"o":"m 817 972 l 817 0 l 633 0 l 633 367 l 467 367 l 244 0 l 43 0 l 281 389 q 112 492 168 419 q 56 683 56 565 q 149 894 56 817 q 401 972 242 972 l 817 972 m 633 811 l 401 811 q 279 774 319 811 q 239 669 239 736 q 279 565 239 603 q 401 528 319 528 l 633 528 l 633 811 z "},"Ђ":{"ha":1079,"x_min":22,"x_max":1031,"o":"m 699 581 q 940 503 850 581 q 1031 292 1031 426 q 943 70 1031 150 q 713 -10 856 -10 q 628 0 674 -10 l 628 160 q 707 151 663 151 q 809 186 771 151 q 847 283 847 221 q 803 381 847 344 q 690 417 760 417 q 489 375 593 417 l 489 0 l 306 0 l 306 803 l 22 803 l 22 972 l 800 972 l 800 803 l 489 803 l 489 542 q 596 571 549 561 q 699 581 643 581 z "},"Ѣ":{"ha":1015,"x_min":28,"x_max":958,"o":"m 603 594 q 864 522 769 594 q 958 299 958 449 q 863 74 958 149 q 603 0 768 0 l 193 0 l 193 718 l 28 718 l 28 874 l 193 874 l 193 972 l 376 972 l 376 874 l 697 874 l 697 718 l 376 718 l 376 594 l 603 594 m 589 164 q 729 197 683 164 q 775 299 775 229 q 729 401 775 368 q 589 433 683 433 l 376 433 l 376 164 l 589 164 z "},"Ѳ":{"ha":1128,"x_min":64,"x_max":1064,"o":"m 564 992 q 819 926 706 992 q 999 744 933 860 q 1064 486 1064 629 q 999 228 1064 343 q 819 47 933 113 q 564 -19 706 -19 q 308 47 422 -19 q 129 228 194 113 q 64 486 64 343 q 129 744 64 629 q 308 926 194 860 q 564 992 422 992 m 564 819 q 362 751 446 819 q 257 561 278 682 q 404 607 325 607 q 506 594 461 607 q 610 557 550 582 q 673 532 647 540 q 724 524 699 524 q 802 537 768 524 q 869 574 836 550 q 762 754 844 689 q 564 819 679 819 m 564 153 q 766 221 682 153 q 871 408 850 289 q 724 365 806 365 q 622 378 667 365 q 518 415 578 390 q 455 440 481 432 q 404 449 429 449 q 258 397 329 449 q 367 217 283 282 q 564 153 450 153 z "},"Ѵ":{"ha":1099,"x_min":3,"x_max":1081,"o":"m 3 972 l 201 972 l 421 351 q 457 228 439 303 q 493 351 475 303 l 657 817 q 744 951 690 910 q 879 992 797 992 q 1081 879 1028 992 l 956 771 q 930 803 946 790 q 893 817 914 817 q 858 804 872 817 q 833 763 843 792 l 550 0 l 364 0 l 3 972 z "},"а":{"ha":788,"x_min":60,"x_max":733,"o":"m 688 171 q 698 75 688 113 q 733 0 708 38 l 556 0 q 532 45 543 17 q 522 114 521 74 q 437 14 494 47 q 301 -19 379 -19 q 125 39 190 -19 q 60 196 60 97 q 128 351 60 294 q 306 424 197 407 l 513 456 l 513 474 q 482 552 513 525 q 394 579 451 579 q 301 548 342 579 q 235 463 260 517 l 94 526 q 394 708 179 708 q 688 458 688 708 l 688 171 m 333 122 q 463 174 413 122 q 513 322 513 226 l 513 335 l 346 307 q 231 206 231 288 q 258 144 231 165 q 333 122 286 122 z "},"б":{"ha":815,"x_min":49,"x_max":767,"o":"m 418 -19 q 144 105 239 -19 q 49 446 49 229 q 118 753 49 617 q 260 895 167 849 q 486 958 353 942 q 617 1010 575 969 l 715 900 q 624 835 676 856 q 485 803 571 814 q 353 774 407 793 q 255 699 299 754 q 193 540 211 644 q 301 631 233 599 q 450 664 368 664 q 609 623 536 664 q 724 505 682 582 q 767 326 767 428 q 721 145 767 224 q 595 24 675 67 q 418 -19 515 -19 m 418 133 q 552 185 499 133 q 606 322 606 236 q 552 460 606 408 q 418 511 499 511 q 285 460 338 511 q 232 322 232 408 q 285 185 232 236 q 418 133 338 133 z "},"в":{"ha":736,"x_min":88,"x_max":674,"o":"m 88 689 l 408 689 q 585 641 521 689 q 649 518 649 593 q 622 425 649 461 q 546 364 596 389 q 639 306 604 347 q 674 201 674 265 q 641 96 674 142 q 551 25 608 50 q 424 0 494 0 l 88 0 l 88 689 m 393 425 q 462 440 440 425 q 483 490 483 456 q 462 540 483 525 q 393 556 440 556 l 260 556 l 260 425 l 393 425 m 400 133 q 500 214 500 133 q 400 292 500 292 l 260 292 l 260 133 l 400 133 z "},"г":{"ha":603,"x_min":88,"x_max":558,"o":"m 88 689 l 558 689 l 558 531 l 263 531 l 263 0 l 88 0 l 88 689 z "},"ѓ":{"ha":603,"x_min":88,"x_max":569,"o":"m 88 689 l 558 689 l 558 531 l 263 531 l 263 0 l 88 0 l 88 689 m 357 983 l 569 983 l 397 764 l 263 764 l 357 983 z "},"ґ":{"ha":603,"x_min":88,"x_max":558,"o":"m 88 689 l 400 689 l 400 850 l 558 850 l 558 531 l 263 531 l 263 0 l 88 0 l 88 689 z "},"д":{"ha":824,"x_min":14,"x_max":810,"o":"m 14 158 l 90 158 q 130 256 115 201 q 149 399 144 311 l 165 689 l 706 689 l 706 158 l 810 158 l 810 -161 l 651 -161 l 651 0 l 172 0 l 172 -161 l 14 -161 l 14 158 m 531 158 l 531 531 l 311 531 l 303 393 q 287 247 297 296 q 256 158 276 197 l 531 158 z "},"е":{"ha":771,"x_min":49,"x_max":719,"o":"m 719 297 l 218 297 q 275 172 224 219 q 406 125 326 125 q 586 225 529 125 l 706 131 q 588 21 664 61 q 403 -19 511 -19 q 217 26 297 -19 q 93 153 138 71 q 49 344 49 236 q 92 538 49 456 q 214 664 135 619 q 399 708 293 708 q 571 665 499 708 q 681 543 643 621 q 719 364 719 465 l 719 297 m 393 569 q 279 531 322 569 q 224 428 236 493 l 554 428 q 502 531 546 493 q 393 569 458 569 z "},"ѐ":{"ha":771,"x_min":49,"x_max":719,"o":"m 719 297 l 218 297 q 275 172 224 219 q 406 125 326 125 q 586 225 529 125 l 706 131 q 588 21 664 61 q 403 -19 511 -19 q 217 26 297 -19 q 93 153 138 71 q 49 344 49 236 q 92 538 49 456 q 214 664 135 619 q 399 708 293 708 q 571 665 499 708 q 681 543 643 621 q 719 364 719 465 l 719 297 m 393 569 q 279 531 322 569 q 224 428 236 493 l 554 428 q 502 531 546 493 q 393 569 458 569 m 197 983 l 410 983 l 504 764 l 369 764 l 197 983 z "},"ё":{"ha":771,"x_min":49,"x_max":719,"o":"m 719 297 l 218 297 q 275 172 224 219 q 406 125 326 125 q 586 225 529 125 l 706 131 q 588 21 664 61 q 403 -19 511 -19 q 217 26 297 -19 q 93 153 138 71 q 49 344 49 236 q 92 538 49 456 q 214 664 135 619 q 399 708 293 708 q 571 665 499 708 q 681 543 643 621 q 719 364 719 465 l 719 297 m 393 569 q 279 531 322 569 q 224 428 236 493 l 554 428 q 502 531 546 493 q 393 569 458 569 z "},"ж":{"ha":1064,"x_min":29,"x_max":1035,"o":"m 763 365 l 1035 0 l 824 0 l 619 285 l 619 0 l 444 0 l 444 285 l 240 0 l 29 0 l 301 365 l 29 689 l 253 689 l 444 440 l 444 689 l 619 689 l 619 440 l 811 689 l 1035 689 l 763 365 z "},"з":{"ha":699,"x_min":63,"x_max":633,"o":"m 489 364 q 594 304 556 346 q 633 200 633 263 q 558 40 633 100 q 344 -19 482 -19 q 153 33 231 -19 q 63 181 75 85 l 211 225 q 257 142 219 168 q 346 117 294 117 q 433 142 403 117 q 464 207 464 167 q 431 267 464 246 q 340 289 399 289 l 283 289 l 283 428 l 336 428 q 417 447 390 428 q 443 500 443 467 q 419 553 443 535 q 347 572 394 572 q 226 472 254 572 l 83 521 q 180 658 107 608 q 356 708 253 708 q 540 657 474 708 q 606 524 606 606 q 489 364 606 410 z "},"и":{"ha":822,"x_min":88,"x_max":735,"o":"m 88 689 l 254 689 l 254 235 l 554 689 l 735 689 l 735 0 l 568 0 l 568 454 l 268 0 l 88 0 l 88 689 z "},"й":{"ha":822,"x_min":88,"x_max":735,"o":"m 88 689 l 254 689 l 254 235 l 554 689 l 735 689 l 735 0 l 568 0 l 568 454 l 268 0 l 88 0 l 88 689 m 411 783 q 297 828 340 783 q 253 940 253 872 l 358 940 q 372 897 358 914 q 411 881 386 881 q 450 897 436 881 q 464 940 464 914 l 569 940 q 526 828 569 872 q 411 783 482 783 z "},"ѝ":{"ha":822,"x_min":88,"x_max":735,"o":"m 88 689 l 254 689 l 254 235 l 554 689 l 735 689 l 735 0 l 568 0 l 568 454 l 268 0 l 88 0 l 88 689 m 197 983 l 410 983 l 504 764 l 369 764 l 197 983 z "},"к":{"ha":728,"x_min":88,"x_max":699,"o":"m 401 364 l 699 0 l 492 0 l 263 288 l 263 0 l 88 0 l 88 689 l 263 689 l 263 439 l 486 689 l 699 689 l 401 364 z "},"ќ":{"ha":728,"x_min":88,"x_max":699,"o":"m 401 364 l 699 0 l 492 0 l 263 288 l 263 0 l 88 0 l 88 689 l 263 689 l 263 439 l 486 689 l 699 689 l 401 364 m 386 983 l 599 983 l 426 764 l 292 764 l 386 983 z "},"л":{"ha":799,"x_min":28,"x_max":711,"o":"m 89 -10 q 28 0 54 -10 l 28 154 q 76 146 46 146 q 126 178 110 146 q 147 299 142 210 l 169 689 l 711 689 l 711 0 l 536 0 l 536 531 l 322 531 l 310 292 q 252 64 303 138 q 89 -10 201 -10 z "},"м":{"ha":1014,"x_min":88,"x_max":926,"o":"m 88 689 l 317 689 l 507 206 l 697 689 l 926 689 l 926 0 l 760 0 l 760 436 l 575 0 l 439 0 l 254 436 l 254 0 l 88 0 l 88 689 z "},"н":{"ha":811,"x_min":88,"x_max":724,"o":"m 88 689 l 263 689 l 263 432 l 549 432 l 549 689 l 724 689 l 724 0 l 549 0 l 549 279 l 263 279 l 263 0 l 88 0 l 88 689 z "},"о":{"ha":850,"x_min":49,"x_max":801,"o":"m 425 -19 q 241 22 328 -19 q 101 147 154 64 q 49 344 49 229 q 101 542 49 460 q 241 667 154 625 q 425 708 328 708 q 609 667 522 708 q 749 542 696 625 q 801 344 801 460 q 749 147 801 229 q 609 22 696 64 q 425 -19 522 -19 m 425 136 q 523 160 478 136 q 596 232 568 185 q 624 344 624 279 q 596 457 624 410 q 523 528 568 504 q 425 553 478 553 q 327 528 372 553 q 254 457 282 504 q 226 344 226 410 q 254 232 226 279 q 327 160 282 185 q 425 136 372 136 z "},"п":{"ha":797,"x_min":88,"x_max":710,"o":"m 88 689 l 710 689 l 710 0 l 535 0 l 535 531 l 263 531 l 263 0 l 88 0 l 88 689 z "},"р":{"ha":867,"x_min":88,"x_max":818,"o":"m 88 689 l 263 689 l 263 597 q 356 679 299 650 q 482 708 413 708 q 657 663 581 708 q 776 535 733 617 q 818 344 818 453 q 776 154 818 236 q 657 26 733 72 q 482 -19 581 -19 q 356 10 413 -19 q 263 92 299 39 l 263 -283 l 88 -283 l 88 689 m 446 136 q 587 194 533 136 q 640 344 640 251 q 587 495 640 438 q 446 553 533 553 q 305 496 358 553 q 251 344 251 439 q 305 194 251 251 q 446 136 358 136 z "},"с":{"ha":751,"x_min":49,"x_max":722,"o":"m 403 -19 q 221 26 301 -19 q 94 153 140 71 q 49 344 49 236 q 96 534 49 451 q 224 663 143 617 q 403 708 306 708 q 714 536 622 708 l 575 440 q 506 526 546 499 q 410 553 467 553 q 317 526 358 553 q 251 452 275 500 q 226 344 226 404 q 278 192 226 247 q 410 136 329 136 q 510 163 472 136 q 588 256 549 190 l 722 163 q 592 28 672 75 q 403 -19 511 -19 z "},"т":{"ha":658,"x_min":36,"x_max":622,"o":"m 242 531 l 36 531 l 36 689 l 622 689 l 622 531 l 417 531 l 417 0 l 242 0 l 242 531 z "},"у":{"ha":758,"x_min":7,"x_max":751,"o":"m 290 -6 l 7 689 l 206 689 l 383 242 l 553 689 l 751 689 l 360 -283 l 172 -283 l 290 -6 z "},"ў":{"ha":758,"x_min":7,"x_max":751,"o":"m 290 -6 l 7 689 l 206 689 l 383 242 l 553 689 l 751 689 l 360 -283 l 172 -283 l 290 -6 m 379 783 q 265 828 308 783 q 221 940 221 872 l 326 940 q 340 897 326 914 q 379 881 354 881 q 418 897 404 881 q 432 940 432 914 l 538 940 q 494 828 538 872 q 379 783 450 783 z "},"ф":{"ha":989,"x_min":49,"x_max":940,"o":"m 940 344 q 842 101 940 196 q 579 -14 743 7 l 579 -283 l 410 -283 l 410 -14 q 147 101 246 7 q 49 344 49 196 q 147 588 49 493 q 410 703 246 682 l 410 972 l 579 972 l 579 703 q 842 588 743 682 q 940 344 940 493 m 226 344 q 274 213 226 261 q 410 151 322 165 l 410 538 q 274 476 322 524 q 226 344 226 428 m 579 151 q 715 213 667 165 q 763 344 763 261 q 715 476 763 428 q 579 538 667 524 l 579 151 z "},"х":{"ha":690,"x_min":-1,"x_max":689,"o":"m 250 364 l 28 689 l 228 689 l 343 504 l 460 689 l 663 689 l 447 368 l 689 0 l 485 0 l 343 226 l 200 0 l -1 0 l 250 364 z "},"ч":{"ha":760,"x_min":81,"x_max":672,"o":"m 508 256 q 336 225 417 225 q 149 297 218 225 q 81 499 81 369 l 81 689 l 244 689 l 244 519 q 371 378 244 378 q 437 383 408 378 q 508 403 465 389 l 508 689 l 672 689 l 672 0 l 508 0 l 508 256 z "},"ц":{"ha":826,"x_min":88,"x_max":813,"o":"m 654 0 l 88 0 l 88 689 l 263 689 l 263 158 l 535 158 l 535 689 l 710 689 l 710 158 l 813 158 l 813 -161 l 654 -161 l 654 0 z "},"ш":{"ha":1117,"x_min":88,"x_max":1029,"o":"m 88 689 l 263 689 l 263 158 l 471 158 l 471 689 l 646 689 l 646 158 l 854 158 l 854 689 l 1029 689 l 1029 0 l 88 0 l 88 689 z "},"щ":{"ha":1146,"x_min":88,"x_max":1132,"o":"m 976 0 l 88 0 l 88 689 l 263 689 l 263 158 l 471 158 l 471 689 l 646 689 l 646 158 l 854 158 l 854 689 l 1029 689 l 1029 158 l 1132 158 l 1132 -161 l 976 -161 l 976 0 z "},"џ":{"ha":797,"x_min":88,"x_max":710,"o":"m 319 0 l 88 0 l 88 689 l 263 689 l 263 158 l 535 158 l 535 689 l 710 689 l 710 0 l 478 0 l 478 -161 l 319 -161 l 319 0 z "},"ь":{"ha":722,"x_min":88,"x_max":675,"o":"m 88 689 l 263 689 l 263 464 l 401 464 q 601 405 526 464 q 675 232 675 346 q 601 59 675 118 q 401 0 526 0 l 88 0 l 88 689 m 389 133 q 477 160 449 133 q 506 232 506 188 q 477 303 506 276 q 389 331 449 331 l 263 331 l 263 133 l 389 133 z "},"ъ":{"ha":817,"x_min":21,"x_max":769,"o":"m 182 558 l 21 558 l 21 689 l 357 689 l 357 464 l 496 464 q 695 405 621 464 q 769 232 769 346 q 695 59 769 118 q 496 0 621 0 l 182 0 l 182 558 m 483 133 q 572 160 543 133 q 600 232 600 188 q 572 303 600 276 q 483 331 543 331 l 357 331 l 357 133 l 483 133 z "},"ы":{"ha":1006,"x_min":88,"x_max":918,"o":"m 88 689 l 263 689 l 263 464 l 401 464 q 601 405 526 464 q 675 232 675 346 q 601 59 675 118 q 401 0 526 0 l 88 0 l 88 689 m 389 133 q 477 160 449 133 q 506 232 506 188 q 477 303 506 276 q 389 331 449 331 l 263 331 l 263 133 l 389 133 m 743 689 l 918 689 l 918 0 l 743 0 l 743 689 z "},"љ":{"ha":1171,"x_min":28,"x_max":1124,"o":"m 89 -10 q 28 0 57 -10 l 28 154 q 76 146 47 146 q 126 178 110 146 q 147 299 142 210 l 169 689 l 711 689 l 711 464 l 850 464 q 1049 405 975 464 q 1124 232 1124 346 q 1049 59 1124 118 q 850 0 975 0 l 536 0 l 536 531 l 322 531 l 310 292 q 252 64 303 138 q 89 -10 201 -10 m 838 133 q 926 160 897 133 q 954 232 954 188 q 926 303 954 276 q 838 331 897 331 l 711 331 l 711 133 l 838 133 z "},"њ":{"ha":1164,"x_min":88,"x_max":1117,"o":"m 88 689 l 254 689 l 254 447 l 526 447 l 526 689 l 693 689 l 693 447 l 871 447 q 1049 388 981 447 q 1117 224 1117 328 q 1049 59 1117 118 q 871 0 982 0 l 526 0 l 526 294 l 254 294 l 254 0 l 88 0 l 88 689 m 847 133 q 947 219 947 133 q 847 304 947 304 l 693 304 l 693 133 l 847 133 z "},"ѕ":{"ha":700,"x_min":56,"x_max":664,"o":"m 381 -19 q 56 138 146 -19 l 185 243 q 261 149 214 179 q 383 119 308 119 q 465 140 433 119 q 497 193 497 160 q 415 263 497 246 l 303 286 q 142 357 196 308 q 88 496 88 406 q 161 651 88 593 q 349 708 235 708 q 649 563 564 708 l 528 471 q 458 549 503 522 q 354 575 413 575 q 276 556 303 575 q 249 506 249 538 q 267 464 249 479 q 326 440 286 449 l 450 415 q 613 340 561 393 q 664 206 664 288 q 586 42 664 104 q 381 -19 508 -19 z "},"є":{"ha":744,"x_min":49,"x_max":715,"o":"m 399 -19 q 217 24 296 -19 q 93 151 138 68 q 49 344 49 233 q 95 538 49 456 q 222 665 142 621 q 404 708 303 708 q 706 546 624 708 l 575 464 q 505 532 550 508 q 404 556 460 556 q 287 517 336 556 q 224 413 238 479 l 490 413 l 490 276 l 224 276 q 285 172 236 210 q 407 133 333 133 q 513 160 472 133 q 581 239 554 188 l 715 156 q 586 25 661 69 q 399 -19 511 -19 z "},"э":{"ha":753,"x_min":29,"x_max":704,"o":"m 354 -19 q 161 29 240 -19 q 29 167 82 78 l 165 250 q 357 133 218 133 q 469 169 424 133 q 529 276 514 206 l 264 276 l 264 413 l 529 413 q 464 519 511 482 q 349 556 417 556 q 181 460 238 556 l 47 539 q 165 664 89 619 q 349 708 240 708 q 533 665 453 708 q 659 538 614 621 q 704 344 704 456 q 660 151 704 233 q 536 24 615 68 q 354 -19 457 -19 z "},"і":{"ha":347,"x_min":60,"x_max":288,"o":"m 86 689 l 261 689 l 261 0 l 86 0 l 86 689 z "},"ї":{"ha":347,"x_min":-51,"x_max":399,"o":"m 86 689 l 261 689 l 261 0 l 86 0 l 86 689 z "},"ј":{"ha":332,"x_min":-68,"x_max":272,"o":"m 21 -293 q -68 -279 -26 -293 l -68 -121 q -7 -132 -39 -132 q 52 -108 33 -132 q 71 -33 71 -85 l 71 689 l 246 689 l 246 -53 q 190 -231 246 -169 q 21 -293 133 -293 z "},"ћ":{"ha":825,"x_min":13,"x_max":738,"o":"m 489 708 q 672 631 607 708 q 738 414 738 553 l 738 0 l 563 0 l 563 404 q 528 513 563 474 q 432 551 493 551 q 308 489 353 551 q 263 301 263 426 l 263 0 l 88 0 l 88 767 l 13 767 l 13 900 l 88 900 l 88 972 l 263 972 l 263 900 l 496 900 l 496 767 l 263 767 l 263 554 q 489 708 329 708 z "},"ю":{"ha":1078,"x_min":88,"x_max":1029,"o":"m 678 -19 q 523 14 596 -19 q 399 112 450 47 q 332 269 347 176 l 254 269 l 254 0 l 88 0 l 88 689 l 254 689 l 254 419 l 332 419 q 399 577 347 513 q 523 675 450 642 q 678 708 596 708 q 851 667 771 708 q 981 542 932 625 q 1029 344 1029 460 q 981 147 1029 229 q 851 22 932 64 q 678 -19 771 -19 m 678 144 q 801 199 751 144 q 851 344 851 253 q 801 490 851 436 q 678 544 751 544 q 554 490 604 544 q 504 344 504 436 q 554 199 504 253 q 678 144 604 144 z "},"я":{"ha":743,"x_min":63,"x_max":656,"o":"m 656 689 l 656 0 l 486 0 l 486 250 l 399 250 l 246 0 l 63 0 l 229 271 q 124 344 160 293 q 88 471 88 396 q 155 630 88 571 q 339 689 222 689 l 656 689 m 486 550 l 356 550 q 283 529 308 550 q 257 469 257 508 q 283 410 257 431 q 356 389 308 389 l 486 389 l 486 550 z "},"ђ":{"ha":844,"x_min":13,"x_max":757,"o":"m 532 -293 q 435 -279 479 -293 l 435 -121 q 504 -132 472 -132 q 564 -108 546 -132 q 582 -33 582 -83 l 582 397 q 547 506 582 467 q 443 544 511 544 q 322 490 369 544 q 274 350 274 436 l 274 0 l 99 0 l 99 767 l 13 767 l 13 900 l 99 900 l 99 972 l 274 972 l 274 900 l 496 900 l 496 767 l 274 767 l 274 581 q 375 675 313 642 q 513 708 438 708 q 691 642 625 708 q 757 465 757 576 l 757 -53 q 701 -231 757 -169 q 532 -293 644 -293 z "},"ѣ":{"ha":767,"x_min":31,"x_max":719,"o":"m 446 451 q 645 393 571 451 q 719 225 719 335 q 645 58 719 115 q 446 0 571 0 l 138 0 l 138 550 l 31 550 l 31 689 l 138 689 l 138 972 l 307 972 l 307 689 l 519 689 l 519 550 l 307 550 l 307 451 l 446 451 m 433 133 q 522 158 493 133 q 550 225 550 183 q 522 293 550 268 q 433 318 493 318 l 307 318 l 307 133 l 433 133 z "},"ѳ":{"ha":850,"x_min":49,"x_max":801,"o":"m 425 708 q 609 667 522 708 q 749 542 696 625 q 801 344 801 460 q 749 147 801 229 q 609 22 696 64 q 425 -19 522 -19 q 241 22 328 -19 q 101 147 154 64 q 49 344 49 229 q 101 542 49 460 q 241 667 154 625 q 425 708 328 708 m 425 553 q 309 517 361 553 q 238 417 257 481 q 284 441 257 432 q 340 450 311 450 q 390 442 369 450 q 440 417 411 433 q 478 396 461 403 q 514 389 494 389 q 613 418 564 389 q 540 517 592 482 q 425 553 489 553 m 425 136 q 541 172 489 136 q 613 272 593 208 q 566 248 593 257 q 510 239 539 239 q 460 247 481 239 q 410 272 439 256 q 372 293 389 286 q 336 300 356 300 q 238 271 286 300 q 310 172 258 207 q 425 136 361 136 z "},"ѵ":{"ha":894,"x_min":10,"x_max":889,"o":"m 10 689 l 196 689 l 371 222 l 499 564 q 574 671 525 633 q 703 708 624 708 q 817 683 772 708 q 889 606 863 657 l 769 507 q 710 558 750 558 q 657 504 679 558 l 453 0 l 289 0 l 10 689 z "},"Α":{"ha":975,"x_min":7,"x_max":968,"o":"m 678 246 l 297 246 l 203 0 l 7 0 l 400 972 l 575 972 l 968 0 l 772 0 l 678 246 m 613 418 l 524 651 q 488 757 504 701 q 451 651 471 701 l 363 418 l 613 418 z "},"Β":{"ha":917,"x_min":101,"x_max":853,"o":"m 101 972 l 501 972 q 731 905 649 972 q 813 718 813 838 q 775 601 813 654 q 674 525 738 547 q 805 443 757 501 q 853 292 853 385 q 760 78 853 157 q 508 0 667 0 l 101 0 l 101 972 m 496 594 q 597 622 563 594 q 632 700 632 649 q 597 778 632 751 q 496 806 563 806 l 285 806 l 285 594 l 496 594 m 497 172 q 626 206 582 172 q 669 303 669 239 q 626 400 669 367 q 497 433 582 433 l 285 433 l 285 172 l 497 172 z "},"Γ":{"ha":794,"x_min":101,"x_max":772,"o":"m 101 972 l 772 972 l 772 800 l 285 800 l 285 0 l 101 0 l 101 972 z "},"Δ":{"ha":975,"x_min":7,"x_max":968,"o":"m 400 972 l 575 972 l 968 0 l 7 0 l 400 972 m 710 164 l 524 651 q 488 757 504 703 q 451 651 471 703 l 265 164 l 710 164 z "},"Ε":{"ha":854,"x_min":101,"x_max":776,"o":"m 101 972 l 772 972 l 772 806 l 285 806 l 285 586 l 733 586 l 733 419 l 285 419 l 285 167 l 776 167 l 776 0 l 101 0 l 101 972 z "},"Ζ":{"ha":853,"x_min":49,"x_max":801,"o":"m 49 167 l 558 800 l 67 800 l 67 972 l 778 972 l 778 803 l 272 172 l 801 172 l 801 0 l 49 0 l 49 167 z "},"Η":{"ha":994,"x_min":101,"x_max":893,"o":"m 101 972 l 285 972 l 285 582 l 710 582 l 710 972 l 893 972 l 893 0 l 710 0 l 710 410 l 285 410 l 285 0 l 101 0 l 101 972 z "},"Θ":{"ha":978,"x_min":64,"x_max":914,"o":"m 489 -19 q 260 47 356 -19 q 114 228 164 113 q 64 486 64 343 q 114 744 64 629 q 260 926 164 860 q 489 992 356 992 q 718 926 622 992 q 864 744 814 860 q 914 486 914 629 q 864 228 914 343 q 718 47 814 113 q 489 -19 622 -19 m 724 567 q 649 756 708 689 q 489 822 589 822 q 328 756 388 822 q 254 567 269 689 l 724 567 m 489 150 q 649 217 589 150 q 724 406 708 283 l 254 406 q 328 217 269 283 q 489 150 388 150 z "},"Ι":{"ha":386,"x_min":101,"x_max":285,"o":"m 101 972 l 285 972 l 285 0 l 101 0 l 101 972 z "},"Κ":{"ha":914,"x_min":101,"x_max":888,"o":"m 101 972 l 285 972 l 285 597 l 361 683 l 633 972 l 865 972 l 521 611 l 888 0 l 674 0 l 389 475 l 285 365 l 285 0 l 101 0 l 101 972 z "},"Λ":{"ha":924,"x_min":7,"x_max":917,"o":"m 369 972 l 556 972 l 917 0 l 713 0 l 499 622 l 463 746 l 426 622 l 211 0 l 7 0 l 369 972 z "},"Μ":{"ha":1208,"x_min":101,"x_max":1107,"o":"m 101 972 l 294 972 l 604 200 l 914 972 l 1107 972 l 1107 0 l 929 0 l 929 594 l 882 446 l 692 0 l 517 0 l 326 446 l 279 594 l 279 0 l 101 0 l 101 972 z "},"Ν":{"ha":1014,"x_min":101,"x_max":913,"o":"m 288 972 l 693 354 q 735 278 726 297 l 735 972 l 913 972 l 913 0 l 726 0 l 321 622 q 279 699 288 679 l 279 0 l 101 0 l 101 972 l 288 972 z "},"Ξ":{"ha":850,"x_min":78,"x_max":772,"o":"m 82 972 l 768 972 l 768 808 l 82 808 l 82 972 m 121 585 l 729 585 l 729 421 l 121 421 l 121 585 m 78 164 l 772 164 l 772 0 l 78 0 l 78 164 z "},"Ο":{"ha":1128,"x_min":64,"x_max":1064,"o":"m 564 -19 q 308 47 422 -19 q 129 228 194 113 q 64 486 64 343 q 129 744 64 629 q 308 926 194 860 q 564 992 422 992 q 819 926 706 992 q 999 744 933 860 q 1064 486 1064 629 q 999 228 1064 343 q 819 47 933 113 q 564 -19 706 -19 m 564 153 q 724 193 653 153 q 837 308 796 233 q 878 486 878 383 q 837 664 878 589 q 724 779 796 739 q 564 819 653 819 q 403 779 475 819 q 291 664 332 739 q 250 486 250 589 q 291 308 250 383 q 403 193 332 233 q 564 153 475 153 z "},"Π":{"ha":972,"x_min":101,"x_max":871,"o":"m 101 972 l 871 972 l 871 0 l 688 0 l 688 800 l 285 800 l 285 0 l 101 0 l 101 972 z "},"Ρ":{"ha":964,"x_min":101,"x_max":907,"o":"m 101 972 l 543 972 q 809 890 711 972 q 907 656 907 807 q 809 422 907 504 q 543 339 711 339 l 285 339 l 285 0 l 101 0 l 101 972 m 538 506 q 677 545 631 506 q 724 656 724 585 q 677 766 724 726 q 538 806 631 806 l 285 806 l 285 506 l 538 506 z "},"Σ":{"ha":828,"x_min":56,"x_max":779,"o":"m 56 169 l 324 486 l 67 803 l 67 972 l 764 972 l 764 803 l 283 803 l 535 486 l 272 169 l 779 169 l 779 0 l 56 0 l 56 169 z "},"Τ":{"ha":822,"x_min":22,"x_max":800,"o":"m 319 800 l 22 800 l 22 972 l 800 972 l 800 800 l 503 800 l 503 0 l 319 0 l 319 800 z "},"Υ":{"ha":836,"x_min":6,"x_max":831,"o":"m 326 381 l 6 972 l 207 972 l 388 626 q 418 556 404 593 q 449 626 432 593 l 629 972 l 831 972 l 510 381 l 510 0 l 326 0 l 326 381 z "},"Φ":{"ha":1169,"x_min":57,"x_max":1113,"o":"m 490 81 l 485 81 q 278 128 376 81 q 118 267 179 175 q 57 486 57 360 q 118 705 57 613 q 278 844 179 797 q 485 892 376 892 l 490 892 l 490 992 l 679 992 l 679 892 l 685 892 q 892 844 793 892 q 1051 705 990 797 q 1113 486 1113 613 q 1051 267 1113 360 q 892 128 990 175 q 685 81 793 81 l 679 81 l 679 -19 l 490 -19 l 490 81 m 490 239 l 490 733 l 478 733 q 355 705 411 733 q 265 620 299 676 q 232 486 232 564 q 265 352 232 408 q 355 267 299 296 q 478 239 411 239 l 490 239 m 692 239 q 815 267 758 239 q 904 352 871 296 q 938 486 938 408 q 904 620 938 564 q 815 705 871 676 q 692 733 758 733 l 679 733 l 679 239 l 692 239 z "},"Χ":{"ha":857,"x_min":4,"x_max":851,"o":"m 329 522 l 47 972 l 243 972 l 428 664 l 622 972 l 808 972 l 531 529 l 851 0 l 656 0 l 428 375 l 201 0 l 4 0 l 329 522 z "},"Ψ":{"ha":1103,"x_min":85,"x_max":1018,"o":"m 460 222 q 181 323 278 222 q 85 619 85 424 l 85 972 l 268 972 l 268 625 q 318 446 268 508 q 460 383 368 383 l 460 972 l 643 972 l 643 383 q 785 446 735 383 q 835 625 835 508 l 835 972 l 1018 972 l 1018 619 q 922 323 1018 424 q 643 222 825 222 l 643 0 l 460 0 l 460 222 z "},"Ω":{"ha":1089,"x_min":64,"x_max":1025,"o":"m 81 133 l 272 133 q 124 306 185 201 q 64 543 64 410 q 127 773 64 671 q 300 933 190 875 q 544 992 410 992 q 789 933 679 992 q 962 773 899 875 q 1025 543 1025 671 q 965 306 1025 410 q 817 133 904 201 l 1008 133 l 1008 0 l 608 0 l 608 153 q 775 312 708 213 q 842 533 842 411 q 804 683 842 617 q 699 785 767 749 q 544 822 632 822 q 390 785 457 822 q 285 683 322 749 q 247 533 247 617 q 314 312 247 411 q 481 153 381 213 l 481 0 l 81 0 l 81 133 z "},"Ά":{"ha":975,"x_min":7,"x_max":968,"o":"m 678 246 l 297 246 l 203 0 l 7 0 l 400 972 l 575 972 l 968 0 l 772 0 l 678 246 m 613 418 l 524 651 q 488 757 504 701 q 451 651 471 701 l 363 418 l 613 418 m 115 972 l 315 972 l 174 753 l 51 753 l 115 972 z "},"Έ":{"ha":854,"x_min":-189,"x_max":776,"o":"m 101 972 l 772 972 l 772 806 l 285 806 l 285 586 l 733 586 l 733 419 l 285 419 l 285 167 l 776 167 l 776 0 l 101 0 l 101 972 m -125 972 l 75 972 l -67 753 l -189 753 l -125 972 z "},"Ή":{"ha":994,"x_min":-189,"x_max":893,"o":"m 101 972 l 285 972 l 285 582 l 710 582 l 710 972 l 893 972 l 893 0 l 710 0 l 710 410 l 285 410 l 285 0 l 101 0 l 101 972 m -125 972 l 75 972 l -67 753 l -189 753 l -125 972 z "},"Ί":{"ha":386,"x_min":-189,"x_max":285,"o":"m 101 972 l 285 972 l 285 0 l 101 0 l 101 972 m -125 972 l 75 972 l -67 753 l -189 753 l -125 972 z "},"Ό":{"ha":1128,"x_min":-53,"x_max":1064,"o":"m 564 -19 q 308 47 422 -19 q 129 228 194 113 q 64 486 64 343 q 129 744 64 629 q 308 926 194 860 q 564 992 422 992 q 819 926 706 992 q 999 744 933 860 q 1064 486 1064 629 q 999 228 1064 343 q 819 47 933 113 q 564 -19 706 -19 m 564 153 q 724 193 653 153 q 837 308 796 233 q 878 486 878 383 q 837 664 878 589 q 724 779 796 739 q 564 819 653 819 q 403 779 475 819 q 291 664 332 739 q 250 486 250 589 q 291 308 250 383 q 403 193 332 233 q 564 153 475 153 m 11 972 l 211 972 l 69 753 l -53 753 l 11 972 z "},"Ύ":{"ha":836,"x_min":-294,"x_max":831,"o":"m 326 381 l 6 972 l 207 972 l 388 626 q 418 556 404 593 q 449 626 432 593 l 629 972 l 831 972 l 510 381 l 510 0 l 326 0 l 326 381 m -231 972 l -31 972 l -172 753 l -294 753 l -231 972 z "},"Ώ":{"ha":1089,"x_min":-82,"x_max":1025,"o":"m 81 133 l 272 133 q 124 306 185 201 q 64 543 64 410 q 127 773 64 671 q 300 933 190 875 q 544 992 410 992 q 789 933 679 992 q 962 773 899 875 q 1025 543 1025 671 q 965 306 1025 410 q 817 133 904 201 l 1008 133 l 1008 0 l 608 0 l 608 153 q 775 312 708 213 q 842 533 842 411 q 804 683 842 617 q 699 785 767 749 q 544 822 632 822 q 390 785 457 822 q 285 683 322 749 q 247 533 247 617 q 314 312 247 411 q 481 153 381 213 l 481 0 l 81 0 l 81 133 m -18 972 l 182 972 l 40 753 l -82 753 l -18 972 z "},"Ϊ":{"ha":386,"x_min":-32,"x_max":418,"o":"m 101 972 l 285 972 l 285 0 l 101 0 l 101 972 z "},"Ϋ":{"ha":836,"x_min":6,"x_max":831,"o":"m 326 381 l 6 972 l 207 972 l 388 626 q 418 556 404 593 q 449 626 432 593 l 629 972 l 831 972 l 510 381 l 510 0 l 326 0 l 326 381 z "},"α":{"ha":954,"x_min":49,"x_max":928,"o":"m 406 -19 q 224 26 306 -19 q 96 153 143 71 q 49 344 49 236 q 96 537 49 454 q 220 664 143 619 q 382 708 297 708 q 528 681 467 708 q 639 592 590 654 l 657 689 l 835 689 l 758 290 q 783 174 765 214 q 839 133 801 133 q 892 151 865 133 l 928 0 q 824 -19 872 -19 q 710 10 754 -19 q 639 103 665 39 q 540 12 600 43 q 406 -19 479 -19 m 415 144 q 551 201 499 144 q 604 344 604 258 q 551 488 604 431 q 415 544 499 544 q 279 488 332 544 q 226 344 226 431 q 279 201 226 258 q 415 144 332 144 z "},"β":{"ha":817,"x_min":88,"x_max":760,"o":"m 88 689 q 129 856 88 788 q 240 958 171 925 q 390 992 308 992 q 605 926 525 992 q 685 751 685 860 q 547 544 685 611 q 700 444 640 511 q 760 275 760 378 q 722 124 760 190 q 618 19 685 57 q 468 -19 551 -19 q 344 5 393 -19 q 263 74 296 29 l 263 -283 l 88 -283 l 88 689 m 433 133 q 542 172 500 133 q 585 283 585 211 q 522 411 585 369 q 365 453 460 453 l 322 453 l 322 606 l 364 606 q 474 638 435 606 q 514 731 514 669 q 482 808 514 778 q 393 839 450 839 q 299 801 336 839 q 263 690 263 763 l 263 321 q 312 183 263 232 q 433 133 361 133 z "},"γ":{"ha":761,"x_min":19,"x_max":742,"o":"m 293 14 l 19 689 l 210 689 l 381 222 l 551 689 l 742 689 l 468 14 l 468 -283 l 293 -283 l 293 14 z "},"δ":{"ha":803,"x_min":57,"x_max":746,"o":"m 400 -19 q 228 19 307 -19 q 103 132 150 57 q 57 311 57 207 q 97 468 57 397 q 208 583 138 539 q 369 633 279 626 l 104 867 l 104 972 l 618 972 l 618 836 l 354 836 l 583 633 q 706 490 665 561 q 746 311 746 418 q 698 139 746 214 q 571 22 650 64 q 400 -19 492 -19 m 400 131 q 528 180 478 131 q 579 311 579 229 q 527 442 579 392 q 400 492 475 492 q 273 442 325 492 q 221 311 221 392 q 272 180 221 229 q 400 131 322 131 z "},"ε":{"ha":676,"x_min":57,"x_max":621,"o":"m 340 -19 q 131 43 206 -19 q 57 203 57 106 q 93 308 57 265 q 189 372 129 350 q 116 434 144 394 q 88 528 88 474 q 154 658 88 608 q 340 708 221 708 q 524 659 458 708 q 597 533 589 610 l 443 500 q 410 563 438 543 q 343 583 383 583 q 272 563 301 583 q 243 508 243 542 q 278 449 243 469 q 383 428 314 428 l 383 307 q 269 282 311 307 q 226 210 226 257 q 260 142 226 167 q 344 117 293 117 q 428 144 397 117 q 471 235 460 171 l 621 196 q 527 35 600 90 q 340 -19 454 -19 z "},"ζ":{"ha":710,"x_min":57,"x_max":683,"o":"m 483 -101 q 506 -51 506 -74 q 432 0 506 0 q 156 81 254 0 q 57 332 57 161 q 158 620 57 489 q 401 831 258 751 l 74 831 l 74 972 l 585 972 l 585 831 q 404 703 485 779 q 278 542 324 628 q 232 374 232 456 q 467 161 232 164 q 628 109 572 160 q 683 -33 683 58 q 664 -119 683 -79 q 607 -200 644 -158 l 483 -101 z "},"η":{"ha":825,"x_min":88,"x_max":738,"o":"m 489 708 q 672 631 607 708 q 738 414 738 553 l 738 -283 l 563 -283 l 563 404 q 528 513 563 474 q 432 551 493 551 q 308 489 353 551 q 263 301 263 426 l 263 0 l 88 0 l 88 689 l 263 689 l 263 554 q 489 708 329 708 z "},"θ":{"ha":889,"x_min":57,"x_max":832,"o":"m 444 -19 q 240 40 328 -19 q 105 213 153 99 q 57 486 57 326 q 107 759 57 644 q 245 933 157 874 q 444 992 333 992 q 644 933 556 992 q 782 759 732 874 q 832 486 832 644 q 784 213 832 326 q 649 40 736 99 q 444 -19 561 -19 m 649 567 q 583 765 636 701 q 444 828 529 828 q 306 765 360 828 q 240 567 253 701 l 649 567 m 444 144 q 583 208 529 144 q 649 406 636 271 l 240 406 q 306 208 253 271 q 444 144 360 144 z "},"ι":{"ha":449,"x_min":88,"x_max":415,"o":"m 304 -19 q 88 200 88 -19 l 88 689 l 263 689 l 263 231 q 346 136 263 136 q 399 144 371 136 l 415 0 q 304 -19 354 -19 z "},"κ":{"ha":751,"x_min":88,"x_max":722,"o":"m 88 689 l 263 689 l 263 469 l 472 689 l 689 689 l 431 425 l 722 0 l 521 0 l 310 301 l 263 253 l 263 0 l 88 0 l 88 689 z "},"λ":{"ha":758,"x_min":7,"x_max":751,"o":"m 290 694 l 268 756 q 190 822 244 822 q 128 806 158 822 l 100 965 q 196 982 143 982 q 333 942 278 982 q 424 814 388 903 l 751 0 l 553 0 l 383 447 l 206 0 l 7 0 l 290 694 z "},"μ":{"ha":825,"x_min":88,"x_max":738,"o":"m 88 689 l 263 689 l 263 301 q 403 144 263 144 q 519 197 475 144 q 563 333 563 250 l 563 689 l 738 689 l 738 0 l 563 0 l 563 108 q 472 14 529 47 q 343 -19 415 -19 q 258 -7 299 -19 q 263 -101 263 -86 l 263 -283 l 88 -283 l 88 689 z "},"ν":{"ha":742,"x_min":10,"x_max":732,"o":"m 10 689 l 196 689 l 371 222 l 546 689 l 732 689 l 453 0 l 289 0 l 10 689 z "},"ξ":{"ha":761,"x_min":58,"x_max":718,"o":"m 482 -122 q 507 -71 507 -96 q 488 -31 507 -43 q 424 -19 468 -19 q 233 17 317 -19 q 104 120 150 54 q 58 271 58 186 q 113 438 58 374 q 247 533 168 501 q 143 616 182 561 q 104 749 104 671 q 142 874 104 819 q 250 960 179 929 q 415 992 321 992 q 640 927 567 992 q 718 754 713 863 l 543 731 q 508 814 539 786 q 414 842 476 842 q 318 810 354 842 q 282 725 282 779 q 336 624 282 661 q 490 588 390 588 l 490 451 q 310 410 379 451 q 242 292 242 369 q 303 177 242 218 q 479 136 364 136 q 633 92 576 136 q 690 -28 690 47 q 665 -132 690 -90 q 588 -218 639 -174 l 482 -122 z "},"ο":{"ha":850,"x_min":49,"x_max":801,"o":"m 425 -19 q 241 22 328 -19 q 101 147 154 64 q 49 344 49 229 q 101 542 49 460 q 241 667 154 625 q 425 708 328 708 q 609 667 522 708 q 749 542 696 625 q 801 344 801 460 q 749 147 801 229 q 609 22 696 64 q 425 -19 522 -19 m 425 136 q 523 160 478 136 q 596 232 568 185 q 624 344 624 279 q 596 457 624 410 q 523 528 568 504 q 425 553 478 553 q 327 528 372 553 q 254 457 282 504 q 226 344 226 410 q 254 232 226 279 q 327 160 282 185 q 425 136 372 136 z "},"π":{"ha":947,"x_min":35,"x_max":906,"o":"m 786 -19 q 640 37 694 -19 q 586 200 586 93 l 586 547 l 354 547 l 354 0 l 179 0 l 179 547 l 35 547 l 35 689 l 906 689 l 906 547 l 761 547 l 761 228 q 836 136 761 136 q 888 144 863 136 l 904 0 q 786 -19 851 -19 z "},"ρ":{"ha":867,"x_min":88,"x_max":818,"o":"m 88 344 q 134 539 88 457 q 263 665 181 621 q 451 708 344 708 q 642 665 558 708 q 772 539 725 621 q 818 344 818 457 q 774 153 818 236 q 653 26 731 71 q 481 -19 576 -19 q 356 8 415 -19 q 263 81 297 36 l 263 -283 l 88 -283 l 88 344 m 451 144 q 588 201 535 144 q 640 344 640 258 q 588 488 640 431 q 451 544 535 544 q 315 488 368 544 q 263 344 263 431 q 315 201 263 258 q 451 144 368 144 z "},"ς":{"ha":771,"x_min":49,"x_max":726,"o":"m 422 -129 q 456 -68 456 -100 q 442 -36 456 -50 q 401 -18 428 -22 q 226 40 307 -6 q 97 165 146 86 q 49 354 49 244 q 98 538 49 457 q 231 663 147 618 q 411 708 314 708 q 613 656 533 708 q 726 517 692 603 l 583 422 q 404 544 526 544 q 277 492 328 544 q 226 357 226 439 q 287 210 226 267 q 451 133 347 154 q 606 72 557 113 q 654 -50 654 32 q 532 -239 654 -153 l 422 -129 z "},"σ":{"ha":888,"x_min":49,"x_max":853,"o":"m 425 -19 q 241 22 328 -19 q 101 147 154 64 q 49 344 49 229 q 103 543 49 461 q 246 667 157 625 q 439 708 335 708 l 853 708 l 853 578 l 700 578 q 772 478 743 539 q 801 344 801 417 q 749 147 801 229 q 609 22 696 64 q 425 -19 522 -19 m 425 144 q 523 169 478 144 q 596 239 568 193 q 624 344 624 285 q 596 450 624 404 q 523 520 568 496 q 425 544 478 544 q 327 520 372 544 q 254 451 282 496 q 226 344 226 406 q 254 238 226 283 q 327 169 282 193 q 425 144 372 144 z "},"τ":{"ha":638,"x_min":25,"x_max":597,"o":"m 457 -19 q 290 31 356 -19 q 224 200 224 82 l 224 547 l 25 547 l 25 689 l 597 689 l 597 547 l 399 547 l 399 233 q 424 160 399 183 q 492 136 450 136 q 557 146 525 136 l 575 0 q 457 -19 521 -19 z "},"υ":{"ha":808,"x_min":88,"x_max":721,"o":"m 404 -19 q 174 62 260 -19 q 88 299 88 143 l 88 689 l 263 689 l 263 301 q 299 185 263 226 q 404 144 336 144 q 509 185 472 144 q 546 301 546 226 l 546 689 l 721 689 l 721 299 q 635 62 721 143 q 404 -19 549 -19 z "},"φ":{"ha":1022,"x_min":49,"x_max":974,"o":"m 424 0 l 408 0 q 231 42 314 0 q 99 162 149 83 q 49 344 49 240 q 95 529 49 451 q 226 648 142 607 q 424 689 311 689 l 599 689 q 796 648 711 689 q 927 529 881 607 q 974 344 974 451 q 924 162 974 240 q 791 42 874 83 q 614 0 708 0 l 599 0 l 599 -283 l 424 -283 l 424 0 m 424 542 q 281 492 339 542 q 224 344 224 442 q 281 197 224 247 q 424 147 339 147 l 424 542 m 599 147 q 741 197 683 147 q 799 344 799 247 q 741 492 799 442 q 599 542 683 542 l 599 147 z "},"χ":{"ha":788,"x_min":31,"x_max":807,"o":"m 688 -293 q 567 -261 613 -293 q 489 -151 522 -229 l 406 42 l 247 -283 l 57 -283 l 322 231 l 196 501 q 172 536 185 526 q 143 546 160 546 q 86 525 113 546 l 31 644 q 94 683 57 668 q 172 699 132 699 q 274 672 231 699 q 340 592 317 644 l 415 424 l 540 689 l 724 689 l 500 233 l 643 -74 q 674 -122 658 -108 q 715 -136 689 -136 q 768 -118 740 -136 l 807 -261 q 755 -284 786 -275 q 688 -293 724 -293 z "},"ψ":{"ha":975,"x_min":88,"x_max":888,"o":"m 400 -19 q 171 60 254 -19 q 88 289 88 139 l 88 689 l 263 689 l 263 289 q 297 176 263 215 q 400 138 332 138 l 400 689 l 575 689 l 575 138 q 678 176 643 138 q 713 289 713 215 l 713 689 l 888 689 l 888 289 q 804 60 888 139 q 575 -19 721 -19 l 575 -283 l 400 -283 l 400 -19 z "},"ω":{"ha":1136,"x_min":78,"x_max":1058,"o":"m 351 -19 q 150 72 222 -19 q 78 317 78 164 q 188 708 78 547 l 343 635 q 274 474 296 546 q 253 311 253 401 q 283 177 253 221 q 365 133 314 133 q 449 173 418 133 q 481 288 481 213 l 481 500 l 656 500 l 656 288 q 687 173 656 213 q 771 133 718 133 q 853 177 822 133 q 883 311 883 221 q 862 474 883 401 q 793 635 840 546 l 949 708 q 1058 317 1058 547 q 986 72 1058 164 q 785 -19 914 -19 q 648 17 700 -19 q 568 125 596 54 q 488 17 540 54 q 351 -19 436 -19 z "},"ί":{"ha":449,"x_min":88,"x_max":415,"o":"m 304 -19 q 88 200 88 -19 l 88 689 l 263 689 l 263 231 q 346 136 263 136 q 399 144 371 136 l 415 0 q 304 -19 354 -19 m 178 972 l 378 972 l 236 753 l 114 753 l 178 972 z "},"ϊ":{"ha":449,"x_min":-50,"x_max":415,"o":"m 304 -19 q 88 200 88 -19 l 88 689 l 263 689 l 263 231 q 346 136 263 136 q 399 144 371 136 l 415 0 q 304 -19 354 -19 z "},"ΐ":{"ha":449,"x_min":-174,"x_max":499,"o":"m 304 -19 q 88 200 88 -19 l 88 689 l 263 689 l 263 231 q 346 136 263 136 q 399 144 371 136 l 415 0 q 304 -19 354 -19 m 106 983 l 306 983 l 164 764 l 42 764 l 106 983 m -72 767 q -144 797 -114 767 q -174 868 -174 826 q -144 938 -174 908 q -72 968 -114 968 q -1 938 -31 968 q 29 868 29 908 q -1 797 29 826 q -72 767 -31 767 m 397 767 q 326 797 356 767 q 296 868 296 826 q 326 938 296 908 q 397 968 356 968 q 469 938 439 968 q 499 868 499 908 q 469 797 499 826 q 397 767 439 767 z "},"ύ":{"ha":808,"x_min":88,"x_max":721,"o":"m 404 -19 q 174 62 260 -19 q 88 299 88 143 l 88 689 l 263 689 l 263 301 q 299 185 263 226 q 404 144 336 144 q 509 185 472 144 q 546 301 546 226 l 546 689 l 721 689 l 721 299 q 635 62 721 143 q 404 -19 549 -19 m 407 972 l 607 972 l 465 753 l 343 753 l 407 972 z "},"ϋ":{"ha":808,"x_min":88,"x_max":721,"o":"m 404 -19 q 174 62 260 -19 q 88 299 88 143 l 88 689 l 263 689 l 263 301 q 299 185 263 226 q 404 144 336 144 q 509 185 472 144 q 546 301 546 226 l 546 689 l 721 689 l 721 299 q 635 62 721 143 q 404 -19 549 -19 z "},"ΰ":{"ha":808,"x_min":56,"x_max":728,"o":"m 404 -19 q 174 62 260 -19 q 88 299 88 143 l 88 689 l 263 689 l 263 301 q 299 185 263 226 q 404 144 336 144 q 509 185 472 144 q 546 301 546 226 l 546 689 l 721 689 l 721 299 q 635 62 721 143 q 404 -19 549 -19 m 335 983 l 535 983 l 393 764 l 271 764 l 335 983 m 157 767 q 85 797 115 767 q 56 868 56 826 q 85 938 56 908 q 157 968 115 968 q 228 938 199 968 q 258 868 258 908 q 228 797 258 826 q 157 767 199 767 m 626 767 q 555 797 585 767 q 525 868 525 826 q 555 938 525 908 q 626 968 585 968 q 698 938 668 968 q 728 868 728 908 q 698 797 728 826 q 626 767 668 767 z "},"ό":{"ha":850,"x_min":49,"x_max":801,"o":"m 425 -19 q 241 22 328 -19 q 101 147 154 64 q 49 344 49 229 q 101 542 49 460 q 241 667 154 625 q 425 708 328 708 q 609 667 522 708 q 749 542 696 625 q 801 344 801 460 q 749 147 801 229 q 609 22 696 64 q 425 -19 522 -19 m 425 136 q 523 160 478 136 q 596 232 568 185 q 624 344 624 279 q 596 457 624 410 q 523 528 568 504 q 425 553 478 553 q 327 528 372 553 q 254 457 282 504 q 226 344 226 410 q 254 232 226 279 q 327 160 282 185 q 425 136 372 136 m 435 983 l 647 983 l 475 764 l 340 764 l 435 983 z "},"ώ":{"ha":1136,"x_min":78,"x_max":1058,"o":"m 351 -19 q 150 72 222 -19 q 78 317 78 164 q 188 708 78 547 l 343 635 q 274 474 296 546 q 253 311 253 401 q 283 177 253 221 q 365 133 314 133 q 449 173 418 133 q 481 288 481 213 l 481 500 l 656 500 l 656 288 q 687 173 656 213 q 771 133 718 133 q 853 177 822 133 q 883 311 883 221 q 862 474 883 401 q 793 635 840 546 l 949 708 q 1058 317 1058 547 q 986 72 1058 164 q 785 -19 914 -19 q 648 17 700 -19 q 568 125 596 54 q 488 17 540 54 q 351 -19 436 -19 m 571 972 l 771 972 l 629 753 l 507 753 l 571 972 z "},"ά":{"ha":954,"x_min":49,"x_max":928,"o":"m 406 -19 q 224 26 306 -19 q 96 153 143 71 q 49 344 49 236 q 96 537 49 454 q 220 664 143 619 q 382 708 297 708 q 528 681 467 708 q 639 592 590 654 l 657 689 l 835 689 l 758 290 q 783 174 765 214 q 839 133 801 133 q 892 151 865 133 l 928 0 q 824 -19 872 -19 q 710 10 754 -19 q 639 103 665 39 q 540 12 600 43 q 406 -19 479 -19 m 415 144 q 551 201 499 144 q 604 344 604 258 q 551 488 604 431 q 415 544 499 544 q 279 488 332 544 q 226 344 226 431 q 279 201 226 258 q 415 144 332 144 m 457 972 l 657 972 l 515 753 l 393 753 l 457 972 z "},"έ":{"ha":676,"x_min":57,"x_max":621,"o":"m 340 -19 q 131 43 206 -19 q 57 203 57 106 q 93 308 57 265 q 189 372 129 350 q 116 434 144 394 q 88 528 88 474 q 154 658 88 608 q 340 708 221 708 q 524 659 458 708 q 597 533 589 610 l 443 500 q 410 563 438 543 q 343 583 383 583 q 272 563 301 583 q 243 508 243 542 q 278 449 243 469 q 383 428 314 428 l 383 307 q 269 282 311 307 q 226 210 226 257 q 260 142 226 167 q 344 117 293 117 q 428 144 397 117 q 471 235 460 171 l 621 196 q 527 35 600 90 q 340 -19 454 -19 m 342 972 l 542 972 l 400 753 l 278 753 l 342 972 z "},"ή":{"ha":825,"x_min":88,"x_max":738,"o":"m 489 708 q 672 631 607 708 q 738 414 738 553 l 738 -283 l 563 -283 l 563 404 q 528 513 563 474 q 432 551 493 551 q 308 489 353 551 q 263 301 263 426 l 263 0 l 88 0 l 88 689 l 263 689 l 263 554 q 489 708 329 708 m 415 972 l 615 972 l 474 753 l 351 753 l 415 972 z "},"ͺ":{"ha":326,"x_min":50,"x_max":297,"o":"m 217 -275 q 97 -233 143 -275 q 50 -101 50 -192 l 50 -28 l 197 -28 l 197 -69 q 214 -125 197 -107 q 260 -143 231 -143 q 297 -139 283 -143 l 297 -262 q 217 -275 265 -275 z "},"₀":{"ha":533,"x_min":46,"x_max":488,"o":"m 267 -293 q 106 -222 165 -293 q 46 -31 46 -151 q 106 161 46 90 q 267 232 165 232 q 428 161 368 232 q 488 -31 488 90 q 428 -222 488 -151 q 267 -293 368 -293 m 267 -185 q 344 -143 315 -185 q 372 -31 372 -101 q 344 82 372 40 q 267 124 315 124 q 190 82 218 124 q 161 -31 161 40 q 190 -143 161 -101 q 267 -185 218 -185 z "},"₁":{"ha":354,"x_min":53,"x_max":274,"o":"m 158 82 q 113 56 138 63 q 53 50 89 50 l 53 158 q 122 174 96 158 q 165 222 149 190 l 274 222 l 274 -283 l 158 -283 l 158 82 z "},"₂":{"ha":475,"x_min":60,"x_max":417,"o":"m 242 -176 l 417 -176 l 417 -283 l 63 -283 l 63 -201 l 238 -46 q 289 11 272 -15 q 306 64 306 38 q 288 110 306 92 q 243 128 271 128 q 175 39 179 128 l 60 56 q 110 185 63 139 q 243 232 157 232 q 369 185 321 232 q 417 64 417 139 q 390 -28 417 17 q 307 -121 364 -72 l 242 -176 z "},"₃":{"ha":489,"x_min":60,"x_max":438,"o":"m 311 35 q 404 -22 371 21 q 438 -118 438 -64 q 386 -244 438 -196 q 250 -293 335 -293 q 60 -160 93 -293 l 165 -114 q 194 -172 171 -151 q 250 -192 217 -192 q 302 -173 282 -192 q 322 -126 322 -154 q 294 -67 322 -85 q 214 -49 267 -49 q 181 -50 192 -49 l 181 35 l 269 122 l 79 122 l 81 222 l 403 222 l 403 132 l 311 35 z "},"₄":{"ha":532,"x_min":65,"x_max":469,"o":"m 469 -81 l 469 -187 l 421 -187 l 421 -283 l 306 -283 l 306 -187 l 65 -187 l 65 -81 l 306 222 l 421 222 l 421 -81 l 469 -81 m 306 63 l 190 -81 l 306 -81 l 306 63 z "},"₅":{"ha":501,"x_min":67,"x_max":456,"o":"m 276 65 q 408 18 361 65 q 456 -108 456 -29 q 400 -240 456 -186 q 256 -293 344 -293 q 126 -257 171 -293 q 67 -162 81 -221 l 161 -112 q 257 -192 178 -192 q 318 -169 294 -192 q 342 -108 342 -147 q 317 -52 342 -74 q 256 -31 293 -31 q 163 -78 193 -31 l 75 -54 l 99 222 l 424 222 l 424 114 l 186 114 l 178 33 q 222 58 193 50 q 276 65 250 65 z "},"₆":{"ha":508,"x_min":64,"x_max":460,"o":"m 285 47 q 410 0 361 47 q 460 -121 460 -47 q 406 -246 460 -199 q 267 -293 353 -293 q 119 -231 175 -293 q 64 -60 64 -169 q 118 151 64 71 q 278 232 172 232 q 388 200 347 232 q 443 117 429 168 l 344 82 q 322 119 339 104 q 278 133 304 133 q 208 94 236 133 q 175 -4 181 54 q 220 35 190 22 q 285 47 250 47 m 265 -197 q 324 -176 301 -197 q 347 -124 347 -156 q 324 -70 347 -90 q 265 -50 301 -50 q 205 -69 228 -50 q 182 -124 182 -89 q 205 -176 182 -156 q 265 -197 228 -197 z "},"₇":{"ha":447,"x_min":60,"x_max":408,"o":"m 408 222 l 408 119 l 254 -283 l 119 -283 l 281 115 l 60 115 l 60 222 l 408 222 z "},"₈":{"ha":479,"x_min":51,"x_max":428,"o":"m 239 -293 q 102 -251 153 -293 q 51 -142 51 -210 q 74 -61 51 -96 q 135 -11 96 -26 q 85 29 103 0 q 67 97 67 58 q 115 194 67 156 q 239 232 163 232 q 365 194 317 232 q 413 97 413 156 q 394 28 413 57 q 344 -11 375 0 q 406 -61 383 -26 q 428 -142 428 -96 q 376 -251 428 -210 q 239 -293 325 -293 m 239 31 q 283 47 264 31 q 303 90 303 63 q 284 133 303 118 q 239 147 265 147 q 194 133 214 147 q 175 90 175 118 q 194 47 175 63 q 239 31 214 31 m 239 -201 q 293 -181 271 -201 q 315 -132 315 -161 q 294 -83 315 -103 q 239 -64 272 -64 q 185 -83 206 -64 q 164 -132 164 -103 q 185 -181 164 -161 q 239 -201 207 -201 z "},"₉":{"ha":500,"x_min":57,"x_max":453,"o":"m 250 232 q 397 170 342 232 q 453 -1 453 108 q 399 -212 453 -132 q 239 -293 344 -293 q 128 -261 169 -293 q 74 -178 88 -229 l 172 -143 q 196 -181 178 -168 q 239 -194 214 -194 q 309 -155 282 -194 q 342 -57 336 -115 q 297 -96 326 -83 q 232 -108 267 -108 q 106 -61 156 -108 q 57 60 57 -14 q 110 185 57 138 q 250 232 164 232 m 251 -11 q 312 8 289 -11 q 335 63 335 28 q 312 115 335 94 q 251 136 289 136 q 192 115 215 136 q 169 63 169 94 q 192 9 169 29 q 251 -11 215 -11 z "},"⁰":{"ha":533,"x_min":46,"x_max":488,"o":"m 267 581 q 106 651 165 581 q 46 843 46 722 q 106 1035 46 964 q 267 1106 165 1106 q 428 1035 368 1106 q 488 843 488 964 q 428 651 488 722 q 267 581 368 581 m 267 689 q 344 731 315 689 q 372 843 372 772 q 344 956 372 914 q 267 997 315 997 q 190 956 218 997 q 161 843 161 914 q 190 731 161 772 q 267 689 218 689 z "},"¹":{"ha":354,"x_min":53,"x_max":274,"o":"m 158 956 q 113 930 138 936 q 53 924 89 924 l 53 1032 q 122 1048 96 1032 q 165 1096 149 1064 l 274 1096 l 274 590 l 158 590 l 158 956 z "},"²":{"ha":475,"x_min":60,"x_max":417,"o":"m 242 697 l 417 697 l 417 590 l 63 590 l 63 672 l 238 828 q 289 885 272 858 q 306 938 306 911 q 288 983 306 965 q 243 1001 271 1001 q 175 913 179 1001 l 60 929 q 110 1059 63 1013 q 243 1106 157 1106 q 369 1059 321 1106 q 417 938 417 1013 q 390 846 417 890 q 307 753 364 801 l 242 697 z "},"³":{"ha":489,"x_min":60,"x_max":438,"o":"m 311 908 q 404 852 371 894 q 438 756 438 810 q 386 629 438 678 q 250 581 335 581 q 60 714 93 581 l 165 760 q 194 702 171 722 q 250 682 217 682 q 302 701 282 682 q 322 747 322 719 q 294 807 322 789 q 214 825 267 825 q 181 824 192 825 l 181 908 l 269 996 l 79 996 l 81 1096 l 403 1096 l 403 1006 l 311 908 z "},"⁴":{"ha":532,"x_min":65,"x_max":469,"o":"m 469 793 l 469 686 l 421 686 l 421 590 l 306 590 l 306 686 l 65 686 l 65 793 l 306 1096 l 421 1096 l 421 793 l 469 793 m 306 936 l 190 793 l 306 793 l 306 936 z "},"⁵":{"ha":501,"x_min":67,"x_max":456,"o":"m 276 939 q 408 892 361 939 q 456 765 456 844 q 400 634 456 688 q 256 581 344 581 q 126 617 171 581 q 67 711 81 653 l 161 761 q 257 682 178 682 q 318 704 294 682 q 342 765 342 726 q 317 822 342 800 q 256 843 293 843 q 163 796 193 843 l 75 819 l 99 1096 l 424 1096 l 424 988 l 186 988 l 178 907 q 222 931 193 924 q 276 939 250 939 z "},"⁶":{"ha":508,"x_min":64,"x_max":460,"o":"m 285 921 q 410 874 361 921 q 460 753 460 826 q 406 628 460 675 q 267 581 353 581 q 119 642 175 581 q 64 814 64 704 q 118 1025 64 944 q 278 1106 172 1106 q 388 1074 347 1106 q 443 990 429 1042 l 344 956 q 322 992 339 978 q 278 1007 304 1007 q 208 967 236 1007 q 175 869 181 928 q 220 908 190 896 q 285 921 250 921 m 265 676 q 324 697 301 676 q 347 750 347 718 q 324 803 347 783 q 265 824 301 824 q 205 804 228 824 q 182 750 182 785 q 205 697 182 718 q 265 676 228 676 z "},"⁷":{"ha":447,"x_min":60,"x_max":408,"o":"m 408 1096 l 408 993 l 254 590 l 119 590 l 281 989 l 60 989 l 60 1096 l 408 1096 z "},"⁸":{"ha":479,"x_min":51,"x_max":428,"o":"m 239 581 q 102 622 153 581 q 51 732 51 664 q 74 813 51 778 q 135 863 96 847 q 85 903 103 874 q 67 971 67 932 q 115 1067 67 1029 q 239 1106 163 1106 q 365 1067 317 1106 q 413 971 413 1029 q 394 902 413 931 q 344 863 375 874 q 406 813 383 847 q 428 732 428 778 q 376 622 428 664 q 239 581 325 581 m 239 904 q 283 920 264 904 q 303 964 303 936 q 284 1006 303 992 q 239 1021 265 1021 q 194 1006 214 1021 q 175 964 175 992 q 194 920 175 936 q 239 904 214 904 m 239 672 q 293 692 271 672 q 315 742 315 713 q 294 790 315 771 q 239 810 272 810 q 185 790 206 810 q 164 742 164 771 q 185 692 164 713 q 239 672 207 672 z "},"⁹":{"ha":500,"x_min":57,"x_max":453,"o":"m 250 1106 q 397 1044 342 1106 q 453 872 453 982 q 399 661 453 742 q 239 581 344 581 q 128 613 169 581 q 74 696 88 644 l 172 731 q 196 692 178 706 q 239 679 214 679 q 309 719 282 679 q 342 817 336 758 q 297 778 326 790 q 232 765 267 765 q 106 813 156 765 q 57 933 57 860 q 110 1058 57 1011 q 250 1106 164 1106 m 251 863 q 312 882 289 863 q 335 936 335 901 q 312 989 335 968 q 251 1010 289 1010 q 192 989 215 1010 q 169 936 169 968 q 192 883 169 903 q 251 863 215 863 z "},"⁄":{"ha":288,"x_min":-208,"x_max":496,"o":"m -208 58 l 396 982 l 496 914 l -108 -10 l -208 58 z "},"½":{"ha":1117,"x_min":53,"x_max":1058,"o":"m 158 832 q 113 806 138 813 q 53 800 89 800 l 53 908 q 122 924 96 908 q 165 972 149 940 l 274 972 l 274 467 l 158 467 l 158 832 m 146 58 l 750 982 l 850 914 l 246 -10 l 146 58 m 883 107 l 1058 107 l 1058 0 l 704 0 l 704 82 l 879 238 q 931 294 914 268 q 947 347 947 321 q 930 393 947 375 q 885 411 913 411 q 817 322 821 411 l 701 339 q 751 469 704 422 q 885 515 799 515 q 1010 469 963 515 q 1058 347 1058 422 q 1032 256 1058 300 q 949 163 1006 211 l 883 107 z "},"⅓":{"ha":1131,"x_min":53,"x_max":1079,"o":"m 158 832 q 113 806 138 813 q 53 800 89 800 l 53 908 q 122 924 96 908 q 165 972 149 940 l 274 972 l 274 467 l 158 467 l 158 832 m 146 58 l 750 982 l 850 914 l 246 -10 l 146 58 m 953 318 q 1046 262 1013 304 q 1079 165 1079 219 q 1028 39 1079 88 q 892 -10 976 -10 q 701 124 735 -10 l 807 169 q 835 112 813 132 q 892 92 858 92 q 944 110 924 92 q 964 157 964 129 q 936 217 964 199 q 856 235 908 235 q 822 233 833 235 l 822 318 l 911 406 l 721 406 l 722 506 l 1044 506 l 1044 415 l 953 318 z "},"⅔":{"ha":1251,"x_min":60,"x_max":1200,"o":"m 242 574 l 417 574 l 417 467 l 63 467 l 63 549 l 238 704 q 289 761 272 735 q 306 814 306 788 q 288 860 306 842 q 243 878 271 878 q 175 789 179 878 l 60 806 q 110 935 63 889 q 243 982 157 982 q 369 935 321 982 q 417 814 417 889 q 390 722 417 767 q 307 629 364 678 l 242 574 m 267 58 l 871 982 l 971 914 l 367 -10 l 267 58 m 1074 318 q 1167 262 1133 304 q 1200 165 1200 219 q 1149 39 1200 88 q 1013 -10 1097 -10 q 822 124 856 -10 l 928 169 q 956 112 933 132 q 1013 92 979 92 q 1065 110 1044 92 q 1085 157 1085 129 q 1057 217 1085 199 q 976 235 1029 235 q 943 233 954 235 l 943 318 l 1032 406 l 842 406 l 843 506 l 1165 506 l 1165 415 l 1074 318 z "},"¼":{"ha":1049,"x_min":53,"x_max":986,"o":"m 158 832 q 113 806 138 813 q 53 800 89 800 l 53 908 q 122 924 96 908 q 165 972 149 940 l 274 972 l 274 467 l 158 467 l 158 832 m 146 58 l 750 982 l 850 914 l 246 -10 l 146 58 m 986 203 l 986 96 l 938 96 l 938 0 l 822 0 l 822 96 l 582 96 l 582 203 l 822 506 l 938 506 l 938 203 l 986 203 m 822 346 l 707 203 l 822 203 l 822 346 z "},"¾":{"ha":1183,"x_min":60,"x_max":1121,"o":"m 311 785 q 404 728 371 771 q 438 632 438 686 q 386 506 438 554 q 250 457 335 457 q 60 590 93 457 l 165 636 q 194 578 171 599 q 250 558 217 558 q 302 577 282 558 q 322 624 322 596 q 294 683 322 665 q 214 701 267 701 q 181 700 192 701 l 181 785 l 269 872 l 79 872 l 81 972 l 403 972 l 403 882 l 311 785 m 281 58 l 885 982 l 985 914 l 381 -10 l 281 58 m 1121 203 l 1121 96 l 1072 96 l 1072 0 l 957 0 l 957 96 l 717 96 l 717 203 l 957 506 l 1072 506 l 1072 203 l 1121 203 m 957 346 l 842 203 l 957 203 l 957 346 z "},"⅛":{"ha":1121,"x_min":53,"x_max":1069,"o":"m 158 832 q 113 806 138 813 q 53 800 89 800 l 53 908 q 122 924 96 908 q 165 972 149 940 l 274 972 l 274 467 l 158 467 l 158 832 m 146 58 l 750 982 l 850 914 l 246 -10 l 146 58 m 881 -10 q 744 32 794 -10 q 693 142 693 74 q 715 222 693 188 q 776 272 738 257 q 726 313 744 283 q 708 381 708 342 q 756 477 708 439 q 881 515 804 515 q 1006 477 958 515 q 1054 381 1054 439 q 1035 312 1054 340 q 986 272 1017 283 q 1047 222 1025 257 q 1069 142 1069 188 q 1018 32 1069 74 q 881 -10 967 -10 m 881 314 q 925 330 906 314 q 944 374 944 346 q 926 416 944 401 q 881 431 907 431 q 836 416 856 431 q 817 374 817 401 q 836 330 817 346 q 881 314 856 314 m 881 82 q 935 102 913 82 q 957 151 957 122 q 935 200 957 181 q 881 219 914 219 q 826 200 847 219 q 806 151 806 181 q 827 102 806 122 q 881 82 849 82 z "},"⅜":{"ha":1256,"x_min":60,"x_max":1204,"o":"m 311 785 q 404 728 371 771 q 438 632 438 686 q 386 506 438 554 q 250 457 335 457 q 60 590 93 457 l 165 636 q 194 578 171 599 q 250 558 217 558 q 302 577 282 558 q 322 624 322 596 q 294 683 322 665 q 214 701 267 701 q 181 700 192 701 l 181 785 l 269 872 l 79 872 l 81 972 l 403 972 l 403 882 l 311 785 m 281 58 l 885 982 l 985 914 l 381 -10 l 281 58 m 1015 -10 q 878 32 929 -10 q 828 142 828 74 q 850 222 828 188 q 911 272 872 257 q 861 313 879 283 q 843 381 843 342 q 891 477 843 439 q 1015 515 939 515 q 1141 477 1093 515 q 1189 381 1189 439 q 1170 312 1189 340 q 1121 272 1151 283 q 1182 222 1160 257 q 1204 142 1204 188 q 1153 32 1204 74 q 1015 -10 1101 -10 m 1015 314 q 1060 330 1040 314 q 1079 374 1079 346 q 1060 416 1079 401 q 1015 431 1042 431 q 971 416 990 431 q 951 374 951 401 q 971 330 951 346 q 1015 314 990 314 m 1015 82 q 1069 102 1047 82 q 1092 151 1092 122 q 1070 200 1092 181 q 1015 219 1049 219 q 961 200 982 219 q 940 151 940 181 q 962 102 940 122 q 1015 82 983 82 z "},"⅝":{"ha":1268,"x_min":67,"x_max":1217,"o":"m 276 815 q 408 768 361 815 q 456 642 456 721 q 400 510 456 564 q 256 457 344 457 q 126 493 171 457 q 67 588 81 529 l 161 638 q 257 558 178 558 q 318 581 294 558 q 342 642 342 603 q 317 698 342 676 q 256 719 293 719 q 163 672 193 719 l 75 696 l 99 972 l 424 972 l 424 864 l 186 864 l 178 783 q 222 808 193 800 q 276 815 250 815 m 293 58 l 897 982 l 997 914 l 393 -10 l 293 58 m 1028 -10 q 891 32 942 -10 q 840 142 840 74 q 863 222 840 188 q 924 272 885 257 q 874 313 892 283 q 856 381 856 342 q 903 477 856 439 q 1028 515 951 515 q 1153 477 1106 515 q 1201 381 1201 439 q 1183 312 1201 340 q 1133 272 1164 283 q 1194 222 1172 257 q 1217 142 1217 188 q 1165 32 1217 74 q 1028 -10 1114 -10 m 1028 314 q 1072 330 1053 314 q 1092 374 1092 346 q 1073 416 1092 401 q 1028 431 1054 431 q 983 416 1003 431 q 964 374 964 401 q 983 330 964 346 q 1028 314 1003 314 m 1028 82 q 1082 102 1060 82 q 1104 151 1104 122 q 1083 200 1104 181 q 1028 219 1061 219 q 974 200 994 219 q 953 151 953 181 q 974 102 953 122 q 1028 82 996 82 z "},"⅞":{"ha":1214,"x_min":60,"x_max":1163,"o":"m 408 972 l 408 869 l 254 467 l 119 467 l 281 865 l 60 865 l 60 972 l 408 972 m 239 58 l 843 982 l 943 914 l 339 -10 l 239 58 m 974 -10 q 837 32 888 -10 q 786 142 786 74 q 808 222 786 188 q 869 272 831 257 q 819 313 838 283 q 801 381 801 342 q 849 477 801 439 q 974 515 897 515 q 1099 477 1051 515 q 1147 381 1147 439 q 1128 312 1147 340 q 1079 272 1110 283 q 1140 222 1118 257 q 1163 142 1163 188 q 1111 32 1163 74 q 974 -10 1060 -10 m 974 314 q 1018 330 999 314 q 1038 374 1038 346 q 1019 416 1038 401 q 974 431 1000 431 q 929 416 949 431 q 910 374 910 401 q 929 330 910 346 q 974 314 949 314 m 974 82 q 1028 102 1006 82 q 1050 151 1050 122 q 1028 200 1050 181 q 974 219 1007 219 q 919 200 940 219 q 899 151 899 181 q 920 102 899 122 q 974 82 942 82 z "},".":{"ha":339,"x_min":56,"x_max":283,"o":"m 169 -15 q 89 18 122 -15 q 56 99 56 51 q 89 178 56 144 q 169 211 122 211 q 250 178 217 211 q 283 99 283 144 q 250 18 283 51 q 169 -15 217 -15 z "},",":{"ha":340,"x_min":56,"x_max":285,"o":"m 56 -168 l 85 186 l 285 186 l 175 -168 l 56 -168 z "},":":{"ha":339,"x_min":56,"x_max":283,"o":"m 169 -15 q 89 18 122 -15 q 56 99 56 51 q 89 178 56 144 q 169 211 122 211 q 250 178 217 211 q 283 99 283 144 q 250 18 283 51 q 169 -15 217 -15 m 169 469 q 89 503 122 469 q 56 583 56 536 q 89 663 56 629 q 169 696 122 696 q 250 663 217 696 q 283 583 283 629 q 250 503 283 536 q 169 469 217 469 z "},";":{"ha":340,"x_min":56,"x_max":285,"o":"m 56 -168 l 85 186 l 285 186 l 175 -168 l 56 -168 m 169 468 q 89 501 122 468 q 56 582 56 535 q 89 661 56 628 q 169 694 122 694 q 250 661 217 694 q 283 582 283 628 q 250 501 283 535 q 169 468 217 468 z "},"…":{"ha":867,"x_min":56,"x_max":811,"o":"m 169 -15 q 89 18 122 -15 q 56 99 56 51 q 89 178 56 144 q 169 211 122 211 q 250 178 217 211 q 283 99 283 144 q 250 18 283 51 q 169 -15 217 -15 m 433 -15 q 353 18 386 -15 q 319 99 319 51 q 353 178 319 144 q 433 211 386 211 q 514 178 481 211 q 547 99 547 144 q 514 18 547 51 q 433 -15 481 -15 m 697 -15 q 617 18 650 -15 q 583 99 583 51 q 617 178 583 144 q 697 211 650 211 q 778 178 744 211 q 811 99 811 144 q 778 18 811 51 q 697 -15 744 -15 z "},"!":{"ha":431,"x_min":101,"x_max":329,"o":"m 104 635 l 104 972 l 288 972 l 288 635 l 265 289 l 126 289 l 104 635 m 215 -15 q 135 18 168 -15 q 101 99 101 51 q 135 178 101 144 q 215 211 168 211 q 296 178 263 211 q 329 99 329 144 q 296 18 329 51 q 215 -15 263 -15 z "},"¡":{"ha":431,"x_min":101,"x_max":329,"o":"m 215 704 q 296 671 263 704 q 329 590 329 638 q 296 511 329 544 q 215 478 263 478 q 135 511 168 478 q 101 590 101 544 q 135 671 101 638 q 215 704 168 704 m 326 54 l 326 -283 l 143 -283 l 143 54 l 165 400 l 304 400 l 326 54 z "},"?":{"ha":760,"x_min":57,"x_max":697,"o":"m 279 311 q 406 536 279 450 q 497 619 468 579 q 525 708 525 660 q 488 799 525 765 q 390 833 451 833 q 269 785 317 833 q 224 628 222 738 l 58 640 l 57 669 q 99 841 57 768 q 216 953 142 914 q 386 992 290 992 q 550 958 479 992 q 659 863 621 924 q 697 721 697 801 q 654 565 697 636 q 515 422 611 494 q 463 365 476 394 q 450 289 450 336 l 279 289 l 279 311 m 386 -15 q 306 18 339 -15 q 272 99 272 51 q 306 178 272 144 q 386 211 339 211 q 467 178 433 211 q 500 99 500 144 q 467 18 500 51 q 386 -15 433 -15 z "},"¿":{"ha":760,"x_min":63,"x_max":703,"o":"m 374 704 q 454 671 421 704 q 488 590 488 638 q 454 511 488 544 q 374 478 421 478 q 293 511 326 478 q 260 590 260 544 q 293 671 260 638 q 374 704 326 704 m 481 378 q 354 153 481 239 q 263 69 292 110 q 235 -19 235 29 q 272 -110 235 -76 q 369 -144 308 -144 q 490 -97 443 -144 q 536 61 538 -49 l 701 49 l 703 19 q 660 -152 703 -79 q 544 -264 618 -225 q 374 -303 469 -303 q 210 -269 281 -303 q 101 -174 139 -235 q 63 -32 63 -112 q 106 124 63 53 q 244 267 149 194 q 297 324 283 294 q 310 400 310 353 l 481 400 l 481 378 z "},"·":{"ha":339,"x_min":56,"x_max":283,"o":"m 169 388 q 89 421 122 388 q 56 501 56 454 q 89 581 56 547 q 169 614 122 614 q 250 581 217 614 q 283 501 283 547 q 250 421 283 454 q 169 388 217 388 z "},"•":{"ha":453,"x_min":60,"x_max":393,"o":"m 226 215 q 108 264 157 215 q 60 382 60 313 q 108 500 60 451 q 226 549 157 549 q 344 500 296 549 q 393 382 393 451 q 344 264 393 313 q 226 215 296 215 z "},"*":{"ha":608,"x_min":64,"x_max":544,"o":"m 257 658 l 139 557 l 64 688 l 211 739 l 64 790 l 139 921 l 257 819 l 229 972 l 379 972 l 351 819 l 469 921 l 544 790 l 397 739 l 544 688 l 469 557 l 351 658 l 379 506 l 229 506 l 257 658 z "},"#":{"ha":925,"x_min":63,"x_max":868,"o":"m 186 283 l 63 283 l 63 414 l 210 414 l 236 558 l 90 558 l 90 689 l 260 689 l 311 972 l 464 972 l 413 689 l 592 689 l 644 972 l 797 972 l 744 689 l 868 689 l 868 558 l 721 558 l 694 414 l 840 414 l 840 283 l 671 283 l 619 0 l 467 0 l 518 283 l 339 283 l 286 0 l 133 0 l 186 283 m 542 414 l 568 558 l 389 558 l 363 414 l 542 414 z "},"/":{"ha":747,"x_min":7,"x_max":740,"o":"m 563 1014 l 740 1014 l 185 -42 l 7 -42 l 563 1014 z "},"\\":{"ha":747,"x_min":7,"x_max":740,"o":"m 7 1014 l 185 1014 l 740 -42 l 563 -42 l 7 1014 z "},"(":{"ha":500,"x_min":88,"x_max":394,"o":"m 238 -206 q 88 383 88 61 q 238 972 88 706 l 394 972 q 302 700 339 871 q 265 383 265 529 q 302 67 265 238 q 394 -206 339 -104 l 238 -206 z "},")":{"ha":500,"x_min":106,"x_max":413,"o":"m 106 -206 q 198 67 161 -104 q 235 383 235 238 q 198 700 235 529 q 106 972 161 871 l 263 972 q 413 383 413 706 q 263 -206 413 61 l 106 -206 z "},"{":{"ha":549,"x_min":67,"x_max":486,"o":"m 419 -208 q 233 -147 296 -208 q 171 51 171 -86 l 171 201 q 145 288 171 264 q 67 311 119 311 l 67 453 q 145 476 119 453 q 171 563 171 500 l 171 713 q 233 911 171 850 q 419 972 296 972 l 486 972 l 486 808 l 451 808 q 372 780 399 808 q 346 688 346 751 l 346 539 q 322 436 346 471 q 250 382 299 401 q 322 328 299 363 q 346 225 346 293 l 346 76 q 372 -16 346 13 q 451 -44 399 -44 l 486 -44 l 486 -208 l 419 -208 z "},"}":{"ha":549,"x_min":63,"x_max":482,"o":"m 63 -44 l 97 -44 q 176 -16 150 -44 q 203 76 203 13 l 203 225 q 226 328 203 293 q 299 382 250 363 q 226 436 250 401 q 203 539 203 471 l 203 688 q 176 780 203 751 q 97 808 150 808 l 63 808 l 63 972 l 129 972 q 315 911 253 972 q 378 713 378 850 l 378 563 q 403 476 378 500 q 482 453 429 453 l 482 311 q 403 288 429 311 q 378 201 378 264 l 378 51 q 315 -147 378 -86 q 129 -208 253 -208 l 63 -208 l 63 -44 z "},"[":{"ha":482,"x_min":101,"x_max":419,"o":"m 101 972 l 419 972 l 419 808 l 276 808 l 276 -44 l 419 -44 l 419 -208 l 101 -208 l 101 972 z "},"]":{"ha":482,"x_min":63,"x_max":381,"o":"m 63 -44 l 206 -44 l 206 808 l 63 808 l 63 972 l 381 972 l 381 -208 l 63 -208 l 63 -44 z "},"-":{"ha":650,"x_min":56,"x_max":594,"o":"m 56 503 l 594 503 l 594 361 l 56 361 l 56 503 z "},"­":{"ha":650,"x_min":56,"x_max":594,"o":"m 56 503 l 594 503 l 594 361 l 56 361 l 56 503 z "},"–":{"ha":803,"x_min":56,"x_max":747,"o":"m 56 503 l 747 503 l 747 361 l 56 361 l 56 503 z "},"—":{"ha":1178,"x_min":56,"x_max":1122,"o":"m 56 503 l 1122 503 l 1122 361 l 56 361 l 56 503 z "},"_":{"ha":711,"x_min":10,"x_max":701,"o":"m 10 -10 l 701 -10 l 701 -151 l 10 -151 l 10 -10 z "},"‚":{"ha":319,"x_min":39,"x_max":268,"o":"m 39 -168 l 68 186 l 268 186 l 158 -168 l 39 -168 z "},"„":{"ha":585,"x_min":39,"x_max":533,"o":"m 39 -168 l 68 186 l 268 186 l 158 -168 l 39 -168 m 304 -168 l 333 186 l 533 186 l 424 -168 l 304 -168 z "},"“":{"ha":585,"x_min":51,"x_max":546,"o":"m 281 972 l 251 618 l 51 618 l 161 972 l 281 972 m 546 972 l 517 618 l 317 618 l 426 972 l 546 972 z "},"”":{"ha":585,"x_min":39,"x_max":533,"o":"m 304 618 l 333 972 l 533 972 l 424 618 l 304 618 m 39 618 l 68 972 l 268 972 l 158 618 l 39 618 z "},"‘":{"ha":319,"x_min":51,"x_max":281,"o":"m 281 972 l 251 618 l 51 618 l 161 972 l 281 972 z "},"’":{"ha":319,"x_min":39,"x_max":268,"o":"m 39 618 l 68 972 l 268 972 l 158 618 l 39 618 z "},"«":{"ha":825,"x_min":56,"x_max":783,"o":"m 56 382 l 288 678 l 483 678 l 253 382 l 483 86 l 288 86 l 56 382 m 356 382 l 588 678 l 783 678 l 553 382 l 783 86 l 588 86 l 356 382 z "},"»":{"ha":825,"x_min":42,"x_max":769,"o":"m 272 382 l 42 678 l 238 678 l 469 382 l 238 86 l 42 86 l 272 382 m 572 382 l 342 678 l 538 678 l 769 382 l 538 86 l 342 86 l 572 382 z "},"‹":{"ha":525,"x_min":56,"x_max":483,"o":"m 56 382 l 288 679 l 483 679 l 253 382 l 483 88 l 288 88 l 56 382 z "},"›":{"ha":525,"x_min":42,"x_max":469,"o":"m 272 382 l 42 679 l 238 679 l 469 382 l 238 88 l 42 88 l 272 382 z "},"\"":{"ha":547,"x_min":71,"x_max":476,"o":"m 71 863 l 71 972 l 238 972 l 238 863 l 219 631 l 89 631 l 71 863 m 310 863 l 310 972 l 476 972 l 476 863 l 458 631 l 328 631 l 310 863 z "},"'":{"ha":308,"x_min":71,"x_max":238,"o":"m 71 863 l 71 972 l 238 972 l 238 863 l 219 631 l 89 631 l 71 863 z "},"·":{"ha":339,"x_min":56,"x_max":283,"o":"m 169 401 q 89 435 122 401 q 56 515 56 468 q 89 594 56 561 q 169 628 122 628 q 250 594 217 628 q 283 515 283 561 q 250 435 283 468 q 169 401 217 401 z "},";":{"ha":340,"x_min":56,"x_max":285,"o":"m 56 -168 l 85 186 l 285 186 l 175 -168 l 56 -168 m 169 468 q 89 501 122 468 q 56 582 56 535 q 89 661 56 628 q 169 694 122 694 q 250 661 217 694 q 283 582 283 628 q 250 501 283 535 q 169 468 217 468 z "}," ":{"ha":383,"x_min":0,"x_max":0,"o":""},"฿":{"ha":917,"x_min":101,"x_max":853,"o":"m 853 292 q 810 142 853 207 q 695 42 768 78 q 533 0 622 6 l 533 -139 l 389 -139 l 389 0 l 101 0 l 101 972 l 389 972 l 389 1111 l 533 1111 l 533 971 q 740 903 667 965 q 813 735 813 840 q 774 610 813 664 q 678 528 736 557 q 853 292 853 458 m 285 594 l 389 594 l 389 811 l 285 811 l 285 594 m 635 703 q 610 775 635 749 q 533 808 586 801 l 533 597 q 610 631 586 604 q 635 703 635 657 m 389 164 l 389 433 l 285 433 l 285 164 l 389 164 m 533 165 q 669 299 669 179 q 533 432 669 418 l 533 165 z "},"₿":{"ha":917,"x_min":101,"x_max":853,"o":"m 853 292 q 788 113 853 186 q 618 14 724 40 l 618 -139 l 474 -139 l 474 0 l 392 0 l 392 -139 l 247 -139 l 247 0 l 101 0 l 101 972 l 247 972 l 247 1111 l 392 1111 l 392 972 l 474 972 l 474 1111 l 618 1111 l 618 960 q 763 880 713 938 q 813 735 813 822 q 774 610 813 664 q 678 528 736 557 q 853 292 853 458 m 285 594 l 488 594 q 599 621 564 594 q 635 703 635 647 q 599 785 635 758 q 488 811 564 811 l 285 811 l 285 594 m 497 164 q 669 299 669 164 q 497 433 669 433 l 285 433 l 285 164 l 497 164 z "},"¢":{"ha":786,"x_min":57,"x_max":731,"o":"m 731 163 q 485 -14 646 15 l 485 -153 l 346 -153 l 346 -14 q 137 103 217 7 q 57 344 57 200 q 94 515 57 439 q 198 640 132 592 q 346 703 264 689 l 346 861 l 485 861 l 485 703 q 722 536 646 678 l 583 440 q 485 542 543 518 l 485 146 q 543 184 517 158 q 596 256 569 210 l 731 163 m 235 344 q 265 221 235 271 q 346 150 294 171 l 346 538 q 265 463 296 514 q 235 344 235 411 z "},"¤":{"ha":906,"x_min":81,"x_max":825,"o":"m 81 214 l 189 321 q 144 486 144 394 q 189 651 144 578 l 81 758 l 181 858 l 289 750 q 453 796 364 796 q 617 750 542 796 l 725 858 l 825 758 l 717 651 q 761 486 761 578 q 717 321 761 394 l 825 214 l 725 114 l 617 222 q 453 176 542 176 q 289 222 364 176 l 181 114 l 81 214 m 453 311 q 573 360 526 311 q 619 486 619 408 q 573 613 619 564 q 453 661 526 661 q 333 613 379 661 q 286 486 286 564 q 333 360 286 408 q 453 311 379 311 z "},"$":{"ha":906,"x_min":61,"x_max":832,"o":"m 389 -14 q 169 87 251 6 q 61 292 86 168 l 222 374 q 279 228 239 283 q 389 151 319 172 l 389 438 q 180 539 257 467 q 103 725 103 611 q 181 904 103 833 q 389 989 258 975 l 389 1111 l 533 1111 l 533 983 q 706 905 635 965 q 815 742 776 844 l 671 658 q 533 819 631 779 l 533 574 q 758 467 685 539 q 832 279 832 396 q 796 144 832 207 q 692 38 760 81 q 533 -15 625 -4 l 533 -139 l 389 -139 l 389 -14 m 389 832 q 307 798 336 824 q 278 729 278 772 q 305 662 278 690 q 389 611 332 633 l 389 832 m 533 149 q 618 194 588 161 q 649 272 649 226 q 620 348 649 317 q 533 400 592 379 l 533 149 z "},"₫":{"ha":699,"x_min":38,"x_max":689,"o":"m 689 913 l 689 814 l 631 814 l 631 194 l 479 194 l 479 260 q 413 202 457 225 q 310 179 369 179 q 172 213 235 179 q 74 313 110 247 q 38 469 38 379 q 76 625 38 558 q 178 726 115 692 q 310 761 242 761 q 413 742 369 761 q 479 692 456 724 l 479 814 l 292 814 l 292 913 l 479 913 l 479 972 l 631 972 l 631 913 l 689 913 m 340 321 q 447 363 406 321 q 488 469 488 404 q 447 576 488 535 q 340 618 406 618 q 233 576 275 618 q 192 469 192 535 q 233 363 192 404 q 340 321 275 321 m 38 101 l 689 101 l 689 0 l 38 0 l 38 101 z "},"€":{"ha":1094,"x_min":49,"x_max":1031,"o":"m 606 -19 q 327 70 442 -19 q 171 318 213 160 l 49 318 l 107 446 l 149 446 q 147 486 147 458 q 149 526 147 513 l 49 526 l 107 654 l 171 654 q 336 900 217 808 q 610 992 456 992 q 872 921 767 992 q 1026 713 978 850 l 861 639 q 768 776 831 731 q 604 822 706 822 q 451 778 517 822 q 354 654 386 735 l 740 654 l 682 526 l 329 526 q 328 486 328 513 l 329 446 l 740 446 l 682 318 l 354 318 q 453 194 388 239 q 606 150 519 150 q 869 353 801 150 l 1031 294 q 871 60 978 140 q 606 -19 764 -19 z "},"ƒ":{"ha":490,"x_min":-7,"x_max":474,"o":"m 81 -303 q -7 -287 33 -303 l 24 -131 q 72 -142 47 -142 q 126 -121 110 -142 q 142 -56 142 -100 l 142 547 l 42 547 l 42 689 l 142 689 l 142 786 q 209 976 142 910 q 386 1042 276 1042 q 474 1026 433 1042 l 443 872 q 394 881 418 881 q 337 857 357 881 q 317 790 317 833 l 317 689 l 467 689 l 467 547 l 317 547 l 317 -47 q 255 -237 317 -172 q 81 -303 193 -303 z "},"₣":{"ha":858,"x_min":17,"x_max":789,"o":"m 285 808 l 285 590 l 747 590 l 747 426 l 285 426 l 285 315 l 539 315 l 539 165 l 285 165 l 285 0 l 101 0 l 101 165 l 17 165 l 17 315 l 101 315 l 101 972 l 789 972 l 789 808 l 285 808 z "},"₴":{"ha":861,"x_min":21,"x_max":840,"o":"m 21 638 l 565 638 q 599 729 599 675 q 556 805 599 779 q 450 831 514 831 q 238 679 292 831 l 93 763 q 446 992 172 992 q 617 960 542 992 q 733 873 692 929 q 774 743 774 817 q 742 638 774 681 l 840 638 l 840 518 l 21 518 l 21 638 m 422 -19 q 236 15 315 -19 q 115 113 157 50 q 74 256 74 175 q 85 329 74 297 l 21 329 l 21 449 l 840 449 l 840 329 l 268 329 q 257 272 257 301 q 303 178 257 214 q 424 142 349 142 q 646 289 610 142 l 821 260 q 694 54 794 128 q 422 -19 593 -19 z "},"₭":{"ha":894,"x_min":14,"x_max":868,"o":"m 358 417 l 285 417 l 285 0 l 101 0 l 101 417 l 14 417 l 14 569 l 101 569 l 101 972 l 285 972 l 285 569 l 364 569 l 638 972 l 849 972 l 569 569 l 826 569 l 826 417 l 569 417 l 868 0 l 660 0 l 358 417 z "},"₺":{"ha":772,"x_min":13,"x_max":715,"o":"m 715 433 l 715 406 q 655 176 715 267 q 497 42 594 85 q 282 0 399 0 l 101 0 l 101 221 l 13 179 l 13 339 l 101 381 l 101 486 l 13 444 l 13 604 l 101 646 l 101 972 l 285 972 l 285 733 l 453 813 l 453 653 l 285 574 l 285 468 l 453 547 l 453 388 l 285 308 l 285 169 q 557 406 557 169 l 557 433 l 715 433 z "},"₱":{"ha":1032,"x_min":17,"x_max":997,"o":"m 997 658 l 879 658 l 879 635 l 879 611 l 997 611 l 997 508 l 860 508 q 735 351 825 406 q 515 297 646 297 l 290 297 l 290 0 l 107 0 l 107 508 l 17 508 l 17 611 l 107 611 l 107 658 l 17 658 l 17 761 l 107 761 l 107 972 l 515 972 q 735 918 646 972 q 860 761 825 864 l 997 761 l 997 658 m 290 761 l 650 761 q 510 808 603 808 l 290 808 l 290 761 m 696 635 q 694 658 696 650 l 290 658 l 290 611 l 694 611 q 696 635 696 619 m 510 461 q 650 508 603 461 l 290 508 l 290 461 l 510 461 z "},"₽":{"ha":872,"x_min":11,"x_max":815,"o":"m 290 257 l 658 257 l 658 110 l 290 110 l 290 0 l 107 0 l 107 110 l 11 110 l 11 257 l 107 257 l 107 339 l 11 339 l 11 503 l 107 503 l 107 972 l 451 972 q 717 890 619 972 q 815 656 815 807 q 717 422 815 504 q 451 339 619 339 l 290 339 l 290 257 m 290 503 l 446 503 q 585 544 539 503 q 632 656 632 585 q 585 767 632 726 q 446 808 539 808 l 290 808 l 290 503 z "},"₨":{"ha":1519,"x_min":101,"x_max":1483,"o":"m 450 394 l 285 394 l 285 0 l 101 0 l 101 972 l 517 972 q 769 898 676 972 q 863 697 863 824 q 640 411 863 490 l 875 0 l 658 0 l 450 394 m 285 556 l 517 556 q 639 590 599 556 q 679 683 679 624 q 639 777 679 743 q 517 811 599 811 l 285 811 l 285 556 m 1200 -19 q 875 138 965 -19 l 1004 243 q 1081 149 1033 179 q 1203 119 1128 119 q 1285 140 1253 119 q 1317 193 1317 160 q 1235 263 1317 246 l 1122 286 q 961 357 1015 308 q 907 496 907 406 q 981 651 907 593 q 1168 708 1054 708 q 1468 563 1383 708 l 1347 471 q 1277 549 1322 522 q 1174 575 1232 575 q 1095 556 1122 575 q 1068 506 1068 538 q 1087 464 1068 479 q 1146 440 1106 449 l 1269 415 q 1432 340 1381 393 q 1483 206 1483 288 q 1406 42 1483 104 q 1200 -19 1328 -19 z "},"₹":{"ha":728,"x_min":28,"x_max":703,"o":"m 703 835 l 521 835 q 585 731 567 792 l 703 731 l 703 628 l 594 628 q 552 505 590 560 q 451 419 514 450 q 310 388 388 388 l 261 388 l 581 0 l 356 0 l 28 388 l 28 547 l 260 547 q 406 628 381 547 l 28 628 l 28 731 l 406 731 q 260 811 381 811 l 28 811 l 28 972 l 703 972 l 703 835 z "},"₪":{"ha":997,"x_min":101,"x_max":896,"o":"m 101 972 l 438 972 q 585 926 538 972 q 632 778 632 881 l 632 238 l 546 238 l 546 719 q 521 792 546 767 q 449 817 496 817 l 271 817 l 271 0 l 101 0 l 101 972 m 560 0 q 413 46 460 0 q 365 194 365 92 l 365 735 l 451 735 l 451 253 q 476 181 451 206 q 549 156 501 156 l 726 156 l 726 972 l 896 972 l 896 0 l 560 0 z "},"£":{"ha":799,"x_min":39,"x_max":746,"o":"m 83 131 q 149 225 131 181 q 168 338 168 269 q 160 415 168 376 l 39 415 l 39 551 l 126 551 q 106 696 106 640 q 149 853 106 786 q 265 956 192 921 q 431 992 339 992 q 661 916 581 992 q 746 715 742 840 l 583 685 q 537 806 574 768 q 426 844 500 844 q 322 805 364 844 q 281 693 281 765 q 301 551 281 635 l 564 551 l 564 415 l 329 415 q 333 344 333 382 q 319 239 333 282 q 278 153 306 196 l 736 153 l 736 0 l 83 0 l 83 131 z "},"₸":{"ha":822,"x_min":22,"x_max":800,"o":"m 22 972 l 800 972 l 800 844 l 22 844 l 22 972 m 319 567 l 22 567 l 22 736 l 800 736 l 800 567 l 503 567 l 503 0 l 319 0 l 319 567 z "},"₩":{"ha":1086,"x_min":19,"x_max":1067,"o":"m 1067 464 l 968 464 l 881 0 l 669 0 l 588 464 l 499 464 l 417 0 l 206 0 l 118 464 l 19 464 l 19 581 l 96 581 l 21 972 l 214 972 l 274 581 l 375 581 l 443 972 l 643 972 l 713 581 l 813 581 l 872 972 l 1065 972 l 990 581 l 1067 581 l 1067 464 m 567 581 l 543 715 l 519 581 l 567 581 m 354 464 l 290 464 l 307 358 l 322 225 l 336 360 l 354 464 m 796 464 l 733 464 l 751 360 l 764 225 l 779 358 l 796 464 z "},"¥":{"ha":842,"x_min":19,"x_max":822,"o":"m 329 156 l 126 156 l 126 297 l 329 297 l 329 381 l 126 381 l 126 522 l 256 522 l 19 972 l 217 972 l 388 626 q 421 551 408 583 q 454 626 433 583 l 625 972 l 822 972 l 586 522 l 715 522 l 715 381 l 513 381 l 513 297 l 715 297 l 715 156 l 513 156 l 513 0 l 329 0 l 329 156 z "},"∙":{"ha":453,"x_min":60,"x_max":393,"o":"m 226 215 q 108 264 157 215 q 60 382 60 313 q 108 500 60 451 q 226 549 157 549 q 344 500 296 549 q 393 382 393 451 q 344 264 393 313 q 226 215 296 215 z "},"∕":{"ha":747,"x_min":7,"x_max":740,"o":"m 563 1014 l 740 1014 l 185 -42 l 7 -42 l 563 1014 z "},"+":{"ha":783,"x_min":56,"x_max":728,"o":"m 321 436 l 56 436 l 56 578 l 321 578 l 321 843 l 463 843 l 463 578 l 728 578 l 728 436 l 463 436 l 463 171 l 321 171 l 321 436 z "},"−":{"ha":783,"x_min":56,"x_max":728,"o":"m 56 578 l 728 578 l 728 436 l 56 436 l 56 578 z "},"×":{"ha":772,"x_min":99,"x_max":674,"o":"m 99 319 l 286 507 l 99 694 l 199 794 l 386 607 l 574 794 l 674 694 l 486 507 l 674 319 l 574 219 l 386 407 l 199 219 l 99 319 z "},"÷":{"ha":799,"x_min":63,"x_max":735,"o":"m 419 -15 q 339 18 372 -15 q 306 99 306 51 q 339 178 306 144 q 419 211 372 211 q 500 178 467 211 q 533 99 533 144 q 500 18 533 51 q 419 -15 467 -15 m 419 469 q 339 503 372 469 q 306 583 306 536 q 339 663 306 629 q 419 696 372 696 q 500 663 467 696 q 533 583 533 629 q 500 503 533 536 q 419 469 467 469 m 63 407 l 735 407 l 735 265 l 63 265 l 63 407 z "},"=":{"ha":783,"x_min":56,"x_max":728,"o":"m 56 689 l 728 689 l 728 547 l 56 547 l 56 689 m 56 411 l 728 411 l 728 269 l 56 269 l 56 411 z "},"≠":{"ha":783,"x_min":56,"x_max":728,"o":"m 114 140 l 189 269 l 56 269 l 56 411 l 269 411 l 349 547 l 56 547 l 56 689 l 431 689 l 547 890 l 669 818 l 594 689 l 728 689 l 728 547 l 514 547 l 435 411 l 728 411 l 728 269 l 353 269 l 236 68 l 114 140 z "},">":{"ha":731,"x_min":68,"x_max":675,"o":"m 68 238 l 483 431 l 68 624 l 68 796 l 675 499 l 675 363 l 68 64 l 68 238 z "},"<":{"ha":731,"x_min":56,"x_max":663,"o":"m 56 363 l 56 499 l 663 796 l 663 624 l 247 431 l 663 238 l 663 64 l 56 363 z "},"≥":{"ha":783,"x_min":56,"x_max":728,"o":"m 89 376 l 504 569 l 89 763 l 89 935 l 696 638 l 696 501 l 89 203 l 89 376 m 56 142 l 728 142 l 728 0 l 56 0 l 56 142 z "},"≤":{"ha":783,"x_min":56,"x_max":728,"o":"m 89 501 l 89 638 l 696 935 l 696 763 l 281 569 l 696 376 l 696 203 l 89 501 m 56 142 l 728 142 l 728 0 l 56 0 l 56 142 z "},"±":{"ha":799,"x_min":63,"x_max":735,"o":"m 328 519 l 63 519 l 63 661 l 328 661 l 328 926 l 469 926 l 469 661 l 735 661 l 735 519 l 469 519 l 469 254 l 328 254 l 328 519 m 63 142 l 735 142 l 735 0 l 63 0 l 63 142 z "},"≈":{"ha":640,"x_min":56,"x_max":585,"o":"m 76 243 q 56 317 56 275 q 97 422 56 383 q 203 461 139 461 q 289 446 256 461 q 354 404 322 431 q 387 381 375 388 q 414 374 399 374 q 440 383 429 374 q 451 408 451 392 q 442 440 451 424 l 564 463 q 585 386 585 432 q 543 283 585 321 q 438 244 501 244 q 351 260 385 244 q 286 301 318 275 q 253 325 265 318 q 226 332 242 332 q 200 323 211 332 q 189 297 189 314 q 199 265 189 282 l 76 243 m 76 507 q 56 581 56 539 q 97 686 56 647 q 203 725 139 725 q 289 710 256 725 q 354 668 322 694 q 387 644 375 651 q 414 638 399 638 q 440 647 429 638 q 451 672 451 656 q 442 704 451 688 l 564 726 q 585 650 585 696 q 543 547 585 585 q 438 508 501 508 q 351 524 385 508 q 286 565 318 539 q 253 589 265 582 q 226 596 242 596 q 200 587 211 596 q 189 561 189 578 q 199 529 189 546 l 76 507 z "},"~":{"ha":640,"x_min":56,"x_max":585,"o":"m 76 351 q 56 425 56 383 q 97 531 56 492 q 203 569 139 569 q 289 554 256 569 q 354 513 322 539 q 387 489 375 496 q 414 482 399 482 q 440 491 429 482 q 451 517 451 500 q 442 549 451 532 l 564 571 q 585 494 585 540 q 543 391 585 429 q 438 353 501 353 q 351 368 385 353 q 286 410 318 383 q 253 433 265 426 q 226 440 242 440 q 200 431 211 440 q 189 406 189 422 q 199 374 189 390 l 76 351 z "},"¬":{"ha":763,"x_min":56,"x_max":675,"o":"m 511 436 l 56 436 l 56 578 l 675 578 l 675 242 l 511 242 l 511 436 z "},"^":{"ha":692,"x_min":25,"x_max":667,"o":"m 269 972 l 422 972 l 667 597 l 500 597 l 346 836 l 192 597 l 25 597 l 269 972 z "},"∞":{"ha":1075,"x_min":57,"x_max":1018,"o":"m 290 182 q 122 247 186 182 q 57 417 57 313 q 122 586 57 521 q 290 651 186 651 q 426 615 368 651 q 538 513 483 578 q 649 615 592 578 q 785 651 707 651 q 953 586 889 651 q 1018 417 1018 521 q 953 247 1018 313 q 785 182 889 182 q 649 219 707 182 q 538 321 592 256 q 426 219 483 256 q 290 182 368 182 m 306 304 q 385 333 349 304 q 464 417 421 361 q 384 501 419 472 q 306 529 349 529 q 225 497 257 529 q 193 417 193 464 q 225 337 193 369 q 306 304 257 304 m 769 304 q 850 337 818 304 q 882 417 882 369 q 850 497 882 464 q 769 529 818 529 q 690 500 726 529 q 611 417 653 471 q 689 333 653 363 q 769 304 725 304 z "},"∫":{"ha":490,"x_min":-7,"x_max":479,"o":"m 93 -303 q -7 -287 33 -303 l -7 -128 q 71 -142 43 -142 q 128 -118 108 -142 q 149 -51 149 -94 l 149 764 q 210 931 149 871 q 379 992 271 992 q 479 976 439 992 l 479 817 q 401 831 429 831 q 344 807 364 831 q 324 740 324 783 l 324 -75 q 263 -242 324 -182 q 93 -303 201 -303 z "},"Ω":{"ha":1089,"x_min":64,"x_max":1025,"o":"m 81 133 l 272 133 q 124 306 185 201 q 64 543 64 410 q 127 773 64 671 q 300 933 190 875 q 544 992 410 992 q 789 933 679 992 q 962 773 899 875 q 1025 543 1025 671 q 965 306 1025 410 q 817 133 904 201 l 1008 133 l 1008 0 l 608 0 l 608 153 q 775 312 708 213 q 842 533 842 411 q 804 683 842 617 q 699 785 767 749 q 544 822 632 822 q 390 785 457 822 q 285 683 322 749 q 247 533 247 617 q 314 312 247 411 q 481 153 381 213 l 481 0 l 81 0 l 81 133 z "},"∆":{"ha":975,"x_min":7,"x_max":968,"o":"m 400 972 l 575 972 l 968 0 l 7 0 l 400 972 m 710 164 l 524 651 q 488 757 504 703 q 451 651 471 703 l 265 164 l 710 164 z "},"∏":{"ha":953,"x_min":101,"x_max":851,"o":"m 101 972 l 851 972 l 851 -283 l 668 -283 l 668 803 l 285 803 l 285 -283 l 101 -283 l 101 972 z "},"∑":{"ha":813,"x_min":42,"x_max":768,"o":"m 42 3 l 313 403 l 56 803 l 56 972 l 758 972 l 758 803 l 272 803 l 524 403 l 258 3 l 768 3 l 768 -167 l 42 -167 l 42 3 z "},"√":{"ha":872,"x_min":38,"x_max":846,"o":"m 181 356 l 38 356 l 38 494 l 318 494 l 401 247 l 671 972 l 846 972 l 485 0 l 310 0 l 181 356 z "},"µ":{"ha":825,"x_min":88,"x_max":738,"o":"m 88 689 l 263 689 l 263 301 q 403 144 263 144 q 519 197 475 144 q 563 333 563 250 l 563 689 l 738 689 l 738 0 l 563 0 l 563 108 q 472 14 529 47 q 343 -19 415 -19 q 258 -7 299 -19 q 263 -101 263 -86 l 263 -283 l 88 -283 l 88 689 z "},"∂":{"ha":854,"x_min":57,"x_max":797,"o":"m 393 992 q 616 918 525 992 q 752 717 707 844 q 797 429 797 590 q 751 188 797 289 q 619 33 704 86 q 418 -19 533 -19 q 229 22 311 -19 q 102 139 147 64 q 57 313 57 214 q 99 479 57 406 q 217 594 142 553 q 389 636 293 636 q 524 608 463 636 q 619 525 586 581 q 548 746 608 658 q 393 833 488 833 q 297 802 335 833 q 244 711 258 771 l 86 768 q 187 930 110 868 q 393 992 264 992 m 421 136 q 555 183 504 136 q 606 308 606 231 q 555 433 606 386 q 421 481 504 481 q 288 433 339 481 q 238 308 238 386 q 288 183 238 231 q 421 136 339 136 z "},"%":{"ha":1215,"x_min":60,"x_max":1156,"o":"m 301 506 q 177 538 232 506 q 91 624 122 569 q 60 749 60 679 q 91 873 60 818 q 177 960 122 928 q 301 992 232 992 q 426 960 371 992 q 512 873 481 928 q 543 749 543 818 q 512 624 543 679 q 426 538 481 569 q 301 506 371 506 m 254 58 l 858 982 l 958 914 l 354 -10 l 254 58 m 301 625 q 383 660 350 625 q 415 749 415 694 q 383 838 415 803 q 301 872 350 872 q 220 838 253 872 q 188 749 188 803 q 220 660 188 694 q 301 625 253 625 m 914 -19 q 790 13 844 -19 q 703 99 735 44 q 672 224 672 154 q 703 348 672 293 q 790 435 735 403 q 914 467 844 467 q 1038 435 983 467 q 1124 348 1093 403 q 1156 224 1156 293 q 1124 99 1156 154 q 1038 13 1093 44 q 914 -19 983 -19 m 914 100 q 995 135 963 100 q 1028 224 1028 169 q 995 313 1028 278 q 914 347 963 347 q 833 313 865 347 q 800 224 800 278 q 833 135 800 169 q 914 100 865 100 z "},"‰":{"ha":1571,"x_min":60,"x_max":1511,"o":"m 301 506 q 177 538 232 506 q 91 624 122 569 q 60 749 60 679 q 91 873 60 818 q 177 960 122 928 q 301 992 232 992 q 426 960 371 992 q 512 873 481 928 q 543 749 543 818 q 512 624 543 679 q 426 538 481 569 q 301 506 371 506 m 254 58 l 858 982 l 958 914 l 354 -10 l 254 58 m 301 625 q 383 660 350 625 q 415 749 415 694 q 383 838 415 803 q 301 872 350 872 q 220 838 253 872 q 188 749 188 803 q 220 660 188 694 q 301 625 253 625 m 914 -19 q 790 13 844 -19 q 703 99 735 44 q 672 224 672 154 q 703 348 672 293 q 790 435 735 403 q 914 467 844 467 q 1013 447 967 467 q 1092 393 1058 428 q 1171 447 1125 428 q 1269 467 1217 467 q 1394 435 1339 467 q 1480 348 1449 403 q 1511 224 1511 293 q 1480 99 1511 154 q 1394 13 1449 44 q 1269 -19 1339 -19 q 1171 0 1217 -19 q 1092 54 1125 19 q 1013 0 1058 19 q 914 -19 967 -19 m 914 100 q 995 135 963 100 q 1028 224 1028 169 q 995 313 1028 278 q 914 347 963 347 q 833 313 865 347 q 800 224 800 278 q 833 135 800 169 q 914 100 865 100 m 1269 100 q 1351 135 1318 100 q 1383 224 1383 169 q 1351 313 1383 278 q 1269 347 1318 347 q 1188 313 1221 347 q 1156 224 1156 278 q 1188 135 1156 169 q 1269 100 1221 100 z "},"↑":{"ha":747,"x_min":53,"x_max":694,"o":"m 303 588 l 157 442 l 53 546 l 374 867 l 694 546 l 590 442 l 444 588 l 444 161 l 303 161 l 303 588 z "},"↗":{"ha":751,"x_min":94,"x_max":644,"o":"m 94 229 l 396 532 l 190 532 l 190 679 l 644 679 l 644 225 l 497 225 l 497 431 l 194 129 l 94 229 z "},"→":{"ha":826,"x_min":57,"x_max":763,"o":"m 338 215 l 483 361 l 57 361 l 57 503 l 483 503 l 338 649 l 442 753 l 763 432 l 442 111 l 338 215 z "},"↘":{"ha":751,"x_min":94,"x_max":644,"o":"m 190 297 l 396 297 l 94 600 l 194 700 l 497 399 l 497 604 l 644 604 l 644 150 l 190 150 l 190 297 z "},"↓":{"ha":747,"x_min":53,"x_max":694,"o":"m 53 482 l 157 586 l 303 440 l 303 867 l 444 867 l 444 440 l 590 586 l 694 482 l 374 161 l 53 482 z "},"↙":{"ha":751,"x_min":107,"x_max":657,"o":"m 107 604 l 254 604 l 254 399 l 557 700 l 657 600 l 356 297 l 561 297 l 561 150 l 107 150 l 107 604 z "},"←":{"ha":826,"x_min":64,"x_max":769,"o":"m 64 432 l 385 753 l 489 649 l 343 503 l 769 503 l 769 361 l 343 361 l 489 215 l 385 111 l 64 432 z "},"↖":{"ha":751,"x_min":107,"x_max":657,"o":"m 254 431 l 254 225 l 107 225 l 107 679 l 561 679 l 561 532 l 356 532 l 657 229 l 557 129 l 254 431 z "},"↔":{"ha":1111,"x_min":64,"x_max":1047,"o":"m 64 432 l 385 753 l 489 649 l 343 503 l 768 503 l 622 649 l 726 753 l 1047 432 l 726 111 l 622 215 l 768 361 l 343 361 l 489 215 l 385 111 l 64 432 z "},"↕":{"ha":747,"x_min":53,"x_max":694,"o":"m 53 315 l 157 419 l 303 274 l 303 699 l 157 553 l 53 657 l 374 978 l 694 657 l 590 553 l 444 699 l 444 274 l 590 419 l 694 315 l 374 -6 l 53 315 z "},"◊":{"ha":842,"x_min":32,"x_max":810,"o":"m 32 486 l 332 972 l 510 972 l 810 486 l 510 0 l 332 0 l 32 486 m 626 486 l 421 819 l 215 486 l 421 153 l 626 486 z "},"":{"ha":1039,"x_min":108,"x_max":931,"o":"m 139 0 q 117 9 126 0 q 108 31 108 18 l 108 857 q 115 876 108 867 q 131 888 121 885 l 506 996 l 519 999 l 533 996 l 908 888 q 924 876 918 885 q 931 857 931 867 l 931 31 q 922 9 931 18 q 900 0 913 0 l 890 1 l 519 108 l 149 1 l 139 0 m 489 929 l 169 836 q 218 678 175 750 q 333 560 261 606 q 489 508 404 515 l 489 929 m 550 508 q 706 560 635 515 q 821 678 778 606 q 869 836 864 750 l 550 929 l 550 508 m 489 164 l 489 447 q 303 508 388 456 q 168 643 218 560 l 168 71 l 489 164 m 871 643 q 735 508 819 560 q 550 447 651 456 l 550 164 l 871 71 l 871 643 z "},"@":{"ha":1331,"x_min":63,"x_max":1261,"o":"m 636 -211 q 351 -148 482 -211 q 142 47 221 -85 q 63 374 63 179 q 144 685 63 543 q 370 909 225 826 q 697 992 515 992 q 977 934 849 992 q 1183 760 1106 876 q 1261 474 1261 643 q 1215 251 1261 350 q 1090 94 1169 151 q 917 38 1011 38 q 818 67 856 38 q 781 143 781 96 l 782 160 q 694 72 750 107 q 569 38 639 38 q 385 119 454 38 q 317 335 317 201 q 369 556 317 461 q 501 700 421 650 q 661 750 581 750 q 836 660 789 750 l 847 728 l 981 728 l 903 225 l 901 203 q 912 167 901 178 q 944 156 922 156 q 1024 192 985 156 q 1088 301 1063 229 q 1114 472 1114 374 q 1067 675 1114 586 q 924 814 1019 764 q 688 864 828 864 q 448 800 557 864 q 274 622 339 736 q 210 364 210 507 q 268 121 210 222 q 424 -32 326 19 q 642 -83 522 -83 q 791 -63 729 -83 q 906 -7 853 -43 l 972 -119 q 822 -189 899 -167 q 636 -211 744 -211 m 590 156 q 695 194 646 156 q 774 305 744 233 q 803 467 803 376 q 679 629 803 629 q 574 590 624 629 q 494 481 525 550 q 464 326 464 411 q 499 200 464 244 q 590 156 535 156 z "},"&":{"ha":921,"x_min":71,"x_max":872,"o":"m 383 -19 q 222 19 293 -19 q 111 126 151 57 q 71 283 71 194 q 253 568 71 457 q 192 754 192 668 q 224 878 192 824 q 313 962 257 932 q 436 992 368 992 q 608 937 542 992 q 674 790 674 882 q 467 533 674 639 l 644 300 q 703 494 683 381 l 839 417 q 740 174 806 274 l 872 0 l 672 0 l 629 57 q 383 -19 526 -19 m 389 636 q 496 705 465 674 q 526 775 526 736 q 500 836 526 814 q 436 858 474 858 q 371 833 397 858 q 344 760 344 807 q 389 636 344 703 m 410 133 q 478 142 447 133 q 543 174 510 151 l 333 456 q 267 381 288 419 q 246 292 246 343 q 292 177 246 221 q 410 133 339 133 z "},"¶":{"ha":910,"x_min":51,"x_max":867,"o":"m 365 433 l 353 433 q 199 467 267 433 q 91 561 131 500 q 51 703 51 622 q 91 844 51 783 q 199 939 131 906 q 353 972 267 972 l 867 972 l 867 831 l 776 831 l 776 -167 l 621 -167 l 621 831 l 521 831 l 521 -167 l 365 -167 l 365 433 z "}}}
